<svg width="230" height="184" viewBox="0 0 230 184" fill="none" xmlns="http://www.w3.org/2000/svg">
<rect x="1" y="1" width="228" height="182" rx="4" fill="white" stroke="#D8DEE5" stroke-width="2"/>
<path fill-rule="evenodd" clip-rule="evenodd" d="M212.547 78.4531H16.6211C16.2592 78.4531 15.9658 78.7465 15.9658 79.1084V96.8007C15.9658 97.1626 16.2592 97.456 16.6211 97.456H212.547C212.909 97.456 213.202 97.1626 213.202 96.8007V79.1084C213.202 78.7465 212.909 78.4531 212.547 78.4531ZM16.6211 76.4873C15.1735 76.4873 14 77.6608 14 79.1084V96.8007C14 98.2483 15.1735 99.4218 16.6211 99.4218H212.547C213.995 99.4218 215.168 98.2483 215.168 96.8007V79.1084C215.168 77.6608 213.995 76.4873 212.547 76.4873H16.6211Z" fill="#D8DEE5"/>
<path d="M19.91 92V82.186H21.968V84.594L21.87 85.84C22.1313 85.6067 22.4347 85.392 22.78 85.196C23.1347 84.9907 23.5453 84.888 24.012 84.888C24.768 84.888 25.314 85.14 25.65 85.644C25.9953 86.1387 26.168 86.82 26.168 87.688V92H24.11V87.954C24.11 87.45 24.04 87.1047 23.9 86.918C23.7693 86.7313 23.5547 86.638 23.256 86.638C22.9947 86.638 22.7707 86.6987 22.584 86.82C22.3973 86.932 22.192 87.0953 21.968 87.31V92H19.91ZM30.582 92.168C29.7234 92.168 29.1074 91.9207 28.734 91.426C28.37 90.9313 28.188 90.2827 28.188 89.48V86.666H27.236V85.14L28.3 85.056L28.538 83.208H30.246V85.056H31.912V86.666H30.246V89.452C30.246 89.844 30.3254 90.1287 30.484 90.306C30.652 90.474 30.8714 90.558 31.142 90.558C31.254 90.558 31.366 90.544 31.478 90.516C31.5994 90.488 31.7067 90.4553 31.8 90.418L32.122 91.916C31.9447 91.972 31.7254 92.028 31.464 92.084C31.212 92.14 30.918 92.168 30.582 92.168ZM35.668 92.168C34.8093 92.168 34.1933 91.9207 33.82 91.426C33.456 90.9313 33.274 90.2827 33.274 89.48V86.666H32.322V85.14L33.386 85.056L33.624 83.208H35.332V85.056H36.998V86.666H35.332V89.452C35.332 89.844 35.4113 90.1287 35.57 90.306C35.738 90.474 35.9573 90.558 36.228 90.558C36.34 90.558 36.452 90.544 36.564 90.516C36.6853 90.488 36.7927 90.4553 36.886 90.418L37.208 91.916C37.0307 91.972 36.8113 92.028 36.55 92.084C36.298 92.14 36.004 92.168 35.668 92.168ZM38.3534 94.576V85.056H40.0334L40.1734 85.742H40.2294C40.5 85.4993 40.8034 85.2987 41.1394 85.14C41.4847 84.972 41.8394 84.888 42.2034 84.888C43.0434 84.888 43.706 85.21 44.1914 85.854C44.6767 86.4887 44.9194 87.3427 44.9194 88.416C44.9194 89.2093 44.7794 89.886 44.4994 90.446C44.2194 91.006 43.8554 91.4353 43.4074 91.734C42.9687 92.0233 42.4974 92.168 41.9934 92.168C41.6947 92.168 41.4054 92.1073 41.1254 91.986C40.8454 91.8553 40.584 91.6733 40.3414 91.44L40.4114 92.546V94.576H38.3534ZM41.5174 90.488C41.872 90.488 42.1754 90.3247 42.4274 89.998C42.6794 89.6713 42.8054 89.1533 42.8054 88.444C42.8054 87.1933 42.404 86.568 41.6014 86.568C41.2 86.568 40.8034 86.778 40.4114 87.198V90.04C40.598 90.208 40.7847 90.3247 40.9714 90.39C41.158 90.4553 41.34 90.488 41.5174 90.488ZM48.3544 92.168C47.8971 92.168 47.4257 92.0793 46.9404 91.902C46.4644 91.7247 46.0491 91.4913 45.6944 91.202L46.6184 89.914C46.9357 90.1473 47.2391 90.3293 47.5284 90.46C47.8271 90.5813 48.1211 90.642 48.4104 90.642C48.7184 90.642 48.9424 90.5907 49.0824 90.488C49.2224 90.376 49.2924 90.2313 49.2924 90.054C49.2924 89.8953 49.2224 89.7647 49.0824 89.662C48.9517 89.5593 48.7791 89.466 48.5644 89.382C48.3497 89.2887 48.1211 89.1953 47.8784 89.102C47.5984 88.99 47.3184 88.85 47.0384 88.682C46.7677 88.514 46.5391 88.2993 46.3524 88.038C46.1657 87.7673 46.0724 87.4407 46.0724 87.058C46.0724 86.414 46.3151 85.8913 46.8004 85.49C47.2951 85.0887 47.9391 84.888 48.7324 84.888C49.2644 84.888 49.7311 84.9813 50.1324 85.168C50.5431 85.3453 50.8931 85.546 51.1824 85.77L50.2584 87.002C50.0157 86.8153 49.7731 86.6707 49.5304 86.568C49.2877 86.4653 49.0451 86.414 48.8024 86.414C48.2704 86.414 48.0044 86.596 48.0044 86.96C48.0044 87.184 48.1351 87.3567 48.3964 87.478C48.6671 87.59 48.9797 87.7113 49.3344 87.842C49.6331 87.9447 49.9224 88.08 50.2024 88.248C50.4917 88.4067 50.7297 88.6213 50.9164 88.892C51.1124 89.1533 51.2104 89.4987 51.2104 89.928C51.2104 90.5533 50.9677 91.0853 50.4824 91.524C49.9971 91.9533 49.2877 92.168 48.3544 92.168ZM53.7074 87.632C53.3528 87.632 53.0541 87.5107 52.8114 87.268C52.5781 87.016 52.4614 86.708 52.4614 86.344C52.4614 85.9707 52.5781 85.6627 52.8114 85.42C53.0541 85.168 53.3528 85.042 53.7074 85.042C54.0621 85.042 54.3561 85.168 54.5894 85.42C54.8321 85.6627 54.9534 85.9707 54.9534 86.344C54.9534 86.708 54.8321 87.016 54.5894 87.268C54.3561 87.5107 54.0621 87.632 53.7074 87.632ZM53.7074 92.168C53.3528 92.168 53.0541 92.0467 52.8114 91.804C52.5781 91.552 52.4614 91.244 52.4614 90.88C52.4614 90.5067 52.5781 90.1987 52.8114 89.956C53.0541 89.704 53.3528 89.578 53.7074 89.578C54.0621 89.578 54.3561 89.704 54.5894 89.956C54.8321 90.1987 54.9534 90.5067 54.9534 90.88C54.9534 91.244 54.8321 91.552 54.5894 91.804C54.3561 92.0467 54.0621 92.168 53.7074 92.168ZM55.9867 94.24L58.8007 82.06H60.1447L57.3307 94.24H55.9867ZM60.7308 94.24L63.5448 82.06H64.8888L62.0748 94.24H60.7308ZM67.365 92L65.629 85.056H67.673L68.345 88.276C68.401 88.6213 68.4523 88.962 68.499 89.298C68.5456 89.634 68.597 89.9793 68.653 90.334H68.709C68.7743 89.9793 68.835 89.6293 68.891 89.284C68.9563 88.9387 69.031 88.6027 69.115 88.276L69.885 85.056H71.663L72.447 88.276C72.531 88.6213 72.6056 88.962 72.671 89.298C72.7456 89.634 72.8156 89.9793 72.881 90.334H72.937C73.0023 89.9793 73.0536 89.634 73.091 89.298C73.1376 88.962 73.1936 88.6213 73.259 88.276L73.917 85.056H75.821L74.155 92H71.747L71.117 89.228C71.0516 88.9013 70.9863 88.5747 70.921 88.248C70.865 87.9213 70.8043 87.5713 70.739 87.198H70.683C70.6176 87.5713 70.557 87.9213 70.501 88.248C70.4543 88.5747 70.3983 88.9013 70.333 89.228L69.717 92H67.365ZM78.2341 92L76.4981 85.056H78.5421L79.2141 88.276C79.2701 88.6213 79.3214 88.962 79.3681 89.298C79.4148 89.634 79.4661 89.9793 79.5221 90.334H79.5781C79.6434 89.9793 79.7041 89.6293 79.7601 89.284C79.8254 88.9387 79.9001 88.6027 79.9841 88.276L80.7541 85.056H82.5321L83.3161 88.276C83.4001 88.6213 83.4748 88.962 83.5401 89.298C83.6148 89.634 83.6848 89.9793 83.7501 90.334H83.8061C83.8714 89.9793 83.9228 89.634 83.9601 89.298C84.0068 88.962 84.0628 88.6213 84.1281 88.276L84.7861 85.056H86.6901L85.0241 92H82.6161L81.9861 89.228C81.9208 88.9013 81.8554 88.5747 81.7901 88.248C81.7341 87.9213 81.6734 87.5713 81.6081 87.198H81.5521C81.4868 87.5713 81.4261 87.9213 81.3701 88.248C81.3234 88.5747 81.2674 88.9013 81.2021 89.228L80.5861 92H78.2341ZM89.1033 92L87.3673 85.056H89.4113L90.0833 88.276C90.1393 88.6213 90.1906 88.962 90.2373 89.298C90.2839 89.634 90.3353 89.9793 90.3913 90.334H90.4473C90.5126 89.9793 90.5733 89.6293 90.6292 89.284C90.6946 88.9387 90.7692 88.6027 90.8533 88.276L91.6233 85.056H93.4013L94.1853 88.276C94.2693 88.6213 94.3439 88.962 94.4093 89.298C94.4839 89.634 94.5539 89.9793 94.6193 90.334H94.6753C94.7406 89.9793 94.7919 89.634 94.8293 89.298C94.8759 88.962 94.9319 88.6213 94.9973 88.276L95.6553 85.056H97.5593L95.8933 92H93.4853L92.8553 89.228C92.7899 88.9013 92.7246 88.5747 92.6593 88.248C92.6033 87.9213 92.5426 87.5713 92.4773 87.198H92.4213C92.3559 87.5713 92.2953 87.9213 92.2393 88.248C92.1926 88.5747 92.1366 88.9013 92.0713 89.228L91.4553 92H89.1033ZM98.8383 92.168C98.4836 92.168 98.1849 92.0467 97.9423 91.804C97.7089 91.552 97.5923 91.244 97.5923 90.88C97.5923 90.5067 97.7089 90.1987 97.9423 89.956C98.1849 89.704 98.4836 89.578 98.8383 89.578C99.1929 89.578 99.4869 89.704 99.7203 89.956C99.9629 90.1987 100.084 90.5067 100.084 90.88C100.084 91.244 99.9629 91.552 99.7203 91.804C99.4869 92.0467 99.1929 92.168 98.8383 92.168ZM101.846 92V85.056H103.904V92H101.846ZM102.868 84.034C102.522 84.034 102.242 83.936 102.028 83.74C101.813 83.544 101.706 83.2827 101.706 82.956C101.706 82.6293 101.813 82.368 102.028 82.172C102.242 81.976 102.522 81.878 102.868 81.878C103.213 81.878 103.493 81.976 103.708 82.172C103.922 82.368 104.03 82.6293 104.03 82.956C104.03 83.2827 103.922 83.544 103.708 83.74C103.493 83.936 103.213 84.034 102.868 84.034ZM105.715 92V85.056H107.395L107.535 85.938H107.591C107.889 85.658 108.216 85.4153 108.571 85.21C108.935 84.9953 109.35 84.888 109.817 84.888C110.573 84.888 111.119 85.14 111.455 85.644C111.8 86.1387 111.973 86.82 111.973 87.688V92H109.915V87.954C109.915 87.45 109.845 87.1047 109.705 86.918C109.574 86.7313 109.359 86.638 109.061 86.638C108.799 86.638 108.575 86.6987 108.389 86.82C108.202 86.932 107.997 87.0953 107.773 87.31V92H105.715ZM115.77 92.168C115.313 92.168 114.842 92.0793 114.356 91.902C113.88 91.7247 113.465 91.4913 113.11 91.202L114.034 89.914C114.352 90.1473 114.655 90.3293 114.944 90.46C115.243 90.5813 115.537 90.642 115.826 90.642C116.134 90.642 116.358 90.5907 116.498 90.488C116.638 90.376 116.708 90.2313 116.708 90.054C116.708 89.8953 116.638 89.7647 116.498 89.662C116.368 89.5593 116.195 89.466 115.98 89.382C115.766 89.2887 115.537 89.1953 115.294 89.102C115.014 88.99 114.734 88.85 114.454 88.682C114.184 88.514 113.955 88.2993 113.768 88.038C113.582 87.7673 113.488 87.4407 113.488 87.058C113.488 86.414 113.731 85.8913 114.216 85.49C114.711 85.0887 115.355 84.888 116.148 84.888C116.68 84.888 117.147 84.9813 117.548 85.168C117.959 85.3453 118.309 85.546 118.598 85.77L117.674 87.002C117.432 86.8153 117.189 86.6707 116.946 86.568C116.704 86.4653 116.461 86.414 116.218 86.414C115.686 86.414 115.42 86.596 115.42 86.96C115.42 87.184 115.551 87.3567 115.812 87.478C116.083 87.59 116.396 87.7113 116.75 87.842C117.049 87.9447 117.338 88.08 117.618 88.248C117.908 88.4067 118.146 88.6213 118.332 88.892C118.528 89.1533 118.626 89.4987 118.626 89.928C118.626 90.5533 118.384 91.0853 117.898 91.524C117.413 91.9533 116.704 92.168 115.77 92.168ZM122.334 92.168C121.475 92.168 120.859 91.9207 120.486 91.426C120.122 90.9313 119.94 90.2827 119.94 89.48V86.666H118.988V85.14L120.052 85.056L120.29 83.208H121.998V85.056H123.664V86.666H121.998V89.452C121.998 89.844 122.077 90.1287 122.236 90.306C122.404 90.474 122.623 90.558 122.894 90.558C123.006 90.558 123.118 90.544 123.23 90.516C123.351 90.488 123.459 90.4553 123.552 90.418L123.874 91.916C123.697 91.972 123.477 92.028 123.216 92.084C122.964 92.14 122.67 92.168 122.334 92.168ZM126.496 92.168C125.861 92.168 125.357 91.9673 124.984 91.566C124.611 91.1553 124.424 90.656 124.424 90.068C124.424 89.34 124.732 88.7707 125.348 88.36C125.964 87.9493 126.958 87.674 128.33 87.534C128.311 87.226 128.218 86.9833 128.05 86.806C127.891 86.6193 127.621 86.526 127.238 86.526C126.949 86.526 126.655 86.582 126.356 86.694C126.057 86.806 125.74 86.96 125.404 87.156L124.662 85.798C125.101 85.5273 125.567 85.308 126.062 85.14C126.566 84.972 127.089 84.888 127.63 84.888C128.517 84.888 129.198 85.1447 129.674 85.658C130.15 86.1713 130.388 86.96 130.388 88.024V92H128.708L128.568 91.286H128.512C128.223 91.5473 127.91 91.762 127.574 91.93C127.247 92.0887 126.888 92.168 126.496 92.168ZM127.196 90.572C127.429 90.572 127.63 90.5207 127.798 90.418C127.975 90.306 128.153 90.1613 128.33 89.984V88.766C127.602 88.8593 127.098 89.0087 126.818 89.214C126.538 89.41 126.398 89.6433 126.398 89.914C126.398 90.138 126.468 90.306 126.608 90.418C126.757 90.5207 126.953 90.572 127.196 90.572ZM134.607 94.954C134.065 94.954 133.575 94.8933 133.137 94.772C132.698 94.6507 132.348 94.4593 132.087 94.198C131.825 93.9367 131.695 93.6007 131.695 93.19C131.695 92.63 132.026 92.1633 132.689 91.79V91.734C132.511 91.6127 132.357 91.4587 132.227 91.272C132.105 91.0853 132.045 90.8473 132.045 90.558C132.045 90.306 132.119 90.0633 132.269 89.83C132.418 89.5967 132.605 89.4053 132.829 89.256V89.2C132.586 89.032 132.367 88.7893 132.171 88.472C131.984 88.1547 131.891 87.7953 131.891 87.394C131.891 86.834 132.026 86.372 132.297 86.008C132.567 85.6347 132.922 85.3547 133.361 85.168C133.799 84.9813 134.266 84.888 134.761 84.888C135.171 84.888 135.531 84.944 135.839 85.056H138.373V86.554H137.267C137.332 86.6567 137.383 86.7873 137.421 86.946C137.467 87.1047 137.491 87.2773 137.491 87.464C137.491 87.996 137.369 88.4347 137.127 88.78C136.884 89.1253 136.557 89.382 136.147 89.55C135.736 89.718 135.274 89.802 134.761 89.802C134.49 89.802 134.21 89.7553 133.921 89.662C133.753 89.802 133.669 89.9747 133.669 90.18C133.669 90.3573 133.748 90.488 133.907 90.572C134.065 90.656 134.336 90.698 134.719 90.698H135.839C136.697 90.698 137.351 90.838 137.799 91.118C138.256 91.3887 138.485 91.8367 138.485 92.462C138.485 92.938 138.326 93.3627 138.009 93.736C137.691 94.1187 137.243 94.4173 136.665 94.632C136.086 94.8467 135.4 94.954 134.607 94.954ZM134.761 88.556C135.031 88.556 135.255 88.458 135.433 88.262C135.619 88.066 135.713 87.7767 135.713 87.394C135.713 87.03 135.619 86.7547 135.433 86.568C135.255 86.372 135.031 86.274 134.761 86.274C134.49 86.274 134.261 86.3673 134.075 86.554C133.897 86.7407 133.809 87.0207 133.809 87.394C133.809 87.7767 133.897 88.066 134.075 88.262C134.261 88.458 134.49 88.556 134.761 88.556ZM134.929 93.666C135.395 93.666 135.778 93.582 136.077 93.414C136.375 93.246 136.525 93.0453 136.525 92.812C136.525 92.5973 136.431 92.4527 136.245 92.378C136.067 92.3033 135.806 92.266 135.461 92.266H134.747C134.513 92.266 134.317 92.2567 134.159 92.238C134.009 92.2287 133.879 92.21 133.767 92.182C133.515 92.406 133.389 92.6347 133.389 92.868C133.389 93.1293 133.529 93.3253 133.809 93.456C134.098 93.596 134.471 93.666 134.929 93.666ZM139.607 92V85.056H141.287L141.427 86.274H141.483C141.735 85.8073 142.039 85.462 142.393 85.238C142.748 85.0047 143.103 84.888 143.457 84.888C143.653 84.888 143.817 84.902 143.947 84.93C144.078 84.9487 144.19 84.9813 144.283 85.028L143.947 86.806C143.826 86.7687 143.705 86.7407 143.583 86.722C143.471 86.7033 143.341 86.694 143.191 86.694C142.93 86.694 142.655 86.792 142.365 86.988C142.085 87.1747 141.852 87.5013 141.665 87.968V92H139.607ZM146.539 92.168C145.904 92.168 145.4 91.9673 145.027 91.566C144.654 91.1553 144.467 90.656 144.467 90.068C144.467 89.34 144.775 88.7707 145.391 88.36C146.007 87.9493 147.001 87.674 148.373 87.534C148.354 87.226 148.261 86.9833 148.093 86.806C147.934 86.6193 147.664 86.526 147.281 86.526C146.992 86.526 146.698 86.582 146.399 86.694C146.1 86.806 145.783 86.96 145.447 87.156L144.705 85.798C145.144 85.5273 145.61 85.308 146.105 85.14C146.609 84.972 147.132 84.888 147.673 84.888C148.56 84.888 149.241 85.1447 149.717 85.658C150.193 86.1713 150.431 86.96 150.431 88.024V92H148.751L148.611 91.286H148.555C148.266 91.5473 147.953 91.762 147.617 91.93C147.29 92.0887 146.931 92.168 146.539 92.168ZM147.239 90.572C147.472 90.572 147.673 90.5207 147.841 90.418C148.018 90.306 148.196 90.1613 148.373 89.984V88.766C147.645 88.8593 147.141 89.0087 146.861 89.214C146.581 89.41 146.441 89.6433 146.441 89.914C146.441 90.138 146.511 90.306 146.651 90.418C146.8 90.5207 146.996 90.572 147.239 90.572ZM152.172 92V85.056H153.852L153.992 85.952H154.048C154.337 85.6627 154.645 85.4153 154.972 85.21C155.298 84.9953 155.69 84.888 156.148 84.888C156.642 84.888 157.039 84.9907 157.338 85.196C157.646 85.392 157.888 85.6767 158.066 86.05C158.374 85.7327 158.7 85.462 159.046 85.238C159.391 85.0047 159.792 84.888 160.25 84.888C160.996 84.888 161.542 85.14 161.888 85.644C162.242 86.1387 162.42 86.82 162.42 87.688V92H160.362V87.954C160.362 87.45 160.292 87.1047 160.152 86.918C160.021 86.7313 159.806 86.638 159.508 86.638C159.162 86.638 158.766 86.862 158.318 87.31V92H156.26V87.954C156.26 87.45 156.19 87.1047 156.05 86.918C155.919 86.7313 155.704 86.638 155.406 86.638C155.06 86.638 154.668 86.862 154.23 87.31V92H152.172ZM165.366 92.168C165.011 92.168 164.712 92.0467 164.47 91.804C164.236 91.552 164.12 91.244 164.12 90.88C164.12 90.5067 164.236 90.1987 164.47 89.956C164.712 89.704 165.011 89.578 165.366 89.578C165.72 89.578 166.014 89.704 166.248 89.956C166.49 90.1987 166.612 90.5067 166.612 90.88C166.612 91.244 166.49 91.552 166.248 91.804C166.014 92.0467 165.72 92.168 165.366 92.168ZM171.26 92.168C170.616 92.168 170.033 92.028 169.51 91.748C168.997 91.4587 168.586 91.0433 168.278 90.502C167.98 89.9513 167.83 89.2933 167.83 88.528C167.83 87.7533 167.998 87.0953 168.334 86.554C168.67 86.0127 169.114 85.602 169.664 85.322C170.215 85.0327 170.808 84.888 171.442 84.888C171.872 84.888 172.25 84.958 172.576 85.098C172.912 85.238 173.211 85.4153 173.472 85.63L172.506 86.96C172.18 86.6893 171.867 86.554 171.568 86.554C171.074 86.554 170.677 86.7313 170.378 87.086C170.089 87.4407 169.944 87.9213 169.944 88.528C169.944 89.1253 170.089 89.606 170.378 89.97C170.677 90.3247 171.05 90.502 171.498 90.502C171.722 90.502 171.942 90.4553 172.156 90.362C172.371 90.2593 172.567 90.138 172.744 89.998L173.556 91.342C173.211 91.6407 172.838 91.8553 172.436 91.986C172.035 92.1073 171.643 92.168 171.26 92.168ZM177.357 92.168C176.769 92.168 176.214 92.028 175.691 91.748C175.178 91.4587 174.762 91.0433 174.445 90.502C174.128 89.9513 173.969 89.2933 173.969 88.528C173.969 87.7533 174.128 87.0953 174.445 86.554C174.762 86.0127 175.178 85.602 175.691 85.322C176.214 85.0327 176.769 84.888 177.357 84.888C177.945 84.888 178.496 85.0327 179.009 85.322C179.522 85.602 179.938 86.0127 180.255 86.554C180.572 87.0953 180.731 87.7533 180.731 88.528C180.731 89.2933 180.572 89.9513 180.255 90.502C179.938 91.0433 179.522 91.4587 179.009 91.748C178.496 92.028 177.945 92.168 177.357 92.168ZM177.357 90.502C177.777 90.502 178.094 90.3247 178.309 89.97C178.524 89.606 178.631 89.1253 178.631 88.528C178.631 87.9213 178.524 87.4407 178.309 87.086C178.094 86.7313 177.777 86.554 177.357 86.554C176.928 86.554 176.606 86.7313 176.391 87.086C176.186 87.4407 176.083 87.9213 176.083 88.528C176.083 89.1253 176.186 89.606 176.391 89.97C176.606 90.3247 176.928 90.502 177.357 90.502ZM182.14 92V85.056H183.82L183.96 85.952H184.016C184.306 85.6627 184.614 85.4153 184.94 85.21C185.267 84.9953 185.659 84.888 186.116 84.888C186.611 84.888 187.008 84.9907 187.306 85.196C187.614 85.392 187.857 85.6767 188.034 86.05C188.342 85.7327 188.669 85.462 189.014 85.238C189.36 85.0047 189.761 84.888 190.218 84.888C190.965 84.888 191.511 85.14 191.856 85.644C192.211 86.1387 192.388 86.82 192.388 87.688V92H190.33V87.954C190.33 87.45 190.26 87.1047 190.12 86.918C189.99 86.7313 189.775 86.638 189.476 86.638C189.131 86.638 188.734 86.862 188.286 87.31V92H186.228V87.954C186.228 87.45 186.158 87.1047 186.018 86.918C185.888 86.7313 185.673 86.638 185.374 86.638C185.029 86.638 184.637 86.862 184.198 87.31V92H182.14ZM193.416 94.24L196.23 82.06H197.574L194.76 94.24H193.416ZM200.051 92L198.315 85.056H200.359L201.031 88.276C201.087 88.6213 201.138 88.962 201.185 89.298C201.231 89.634 201.283 89.9793 201.339 90.334H201.395C201.46 89.9793 201.521 89.6293 201.577 89.284C201.642 88.9387 201.717 88.6027 201.801 88.276L202.571 85.056H204.349L205.133 88.276C205.217 88.6213 205.291 88.962 205.357 89.298C205.431 89.634 205.501 89.9793 205.567 90.334H205.623C205.688 89.9793 205.739 89.634 205.777 89.298C205.823 88.962 205.879 88.6213 205.945 88.276L206.603 85.056H208.507L206.841 92H204.433L203.803 89.228C203.737 88.9013 203.672 88.5747 203.607 88.248C203.551 87.9213 203.49 87.5713 203.425 87.198H203.369C203.303 87.5713 203.243 87.9213 203.187 88.248C203.14 88.5747 203.084 88.9013 203.019 89.228L202.403 92H200.051Z" fill="#D7DDE5"/>
<rect x="181" y="76" width="34" height="24" rx="2" fill="white"/>
<rect x="181" y="76" width="34" height="24" rx="2" fill="#79B5FC"/>
<g filter="url(#filter0_dd_1045_2056)">
<path fill-rule="evenodd" clip-rule="evenodd" d="M187.26 92.8154C187.777 92.8154 188.196 92.3962 188.196 91.879V88.9364C188.196 88.4192 187.777 88 187.26 88C186.743 88 186.323 88.4192 186.323 88.9364V91.8791C186.323 92.3962 186.742 92.8154 187.26 92.8154ZM180.787 90.786C181.153 90.4205 181.745 90.4206 182.111 90.786L184.192 92.8667C184.557 93.2324 184.557 93.8252 184.192 94.1909C184.009 94.3737 183.769 94.4652 183.53 94.4652C183.29 94.4652 183.05 94.3737 182.867 94.1909L180.787 92.1103C180.421 91.7446 180.421 91.1517 180.787 90.786ZM200.152 106.11L205.724 111.682C206.09 112.048 206.09 112.641 205.724 113.006L203.005 115.726C202.83 115.901 202.591 116 202.343 116C202.095 116 201.856 115.901 201.681 115.726L196.109 110.153L193.813 114.129C193.634 114.439 193.293 114.62 192.935 114.594C192.577 114.568 192.265 114.34 192.132 114.007L185.062 96.2782C184.924 95.9307 185.005 95.534 185.27 95.2693C185.535 95.0047 185.931 94.923 186.279 95.0618L204.006 102.133C204.339 102.266 204.567 102.577 204.593 102.935C204.619 103.293 204.438 103.634 204.127 103.813L200.152 106.11ZM182.816 97.2593C182.816 96.7423 182.397 96.323 181.88 96.323H178.937C178.42 96.323 178.001 96.7422 178.001 97.2593C178.001 97.7764 178.42 98.1958 178.937 98.1958H181.88C182.397 98.1957 182.816 97.7764 182.816 97.2593ZM180.356 102.23L182.437 100.149C182.802 99.7838 183.395 99.7838 183.761 100.149C184.126 100.515 184.126 101.108 183.761 101.474L181.68 103.554C181.497 103.737 181.257 103.828 181.018 103.828C180.778 103.828 180.539 103.737 180.356 103.554C179.99 103.189 179.99 102.596 180.356 102.23ZM191.473 93.76C191.291 93.9428 191.051 94.0342 190.811 94.0342C190.572 94.0342 190.332 93.9428 190.149 93.76C189.784 93.3944 189.784 92.8015 190.149 92.4358L192.23 90.3551C192.595 89.9896 193.188 89.9896 193.554 90.3551C193.92 90.7208 193.92 91.3137 193.554 91.6794L191.473 93.76Z" fill="white"/>
<path d="M182.111 90.786L182.182 90.7153L182.182 90.7153L182.111 90.786ZM180.787 90.786L180.716 90.7153L180.716 90.7153L180.787 90.786ZM184.192 92.8667L184.121 92.9374L184.121 92.9374L184.192 92.8667ZM184.192 94.1909L184.262 94.2616L184.192 94.1909ZM182.867 94.1909L182.797 94.2616L182.867 94.1909ZM180.787 92.1103L180.716 92.181L180.716 92.1811L180.787 92.1103ZM205.724 111.682L205.653 111.753V111.753L205.724 111.682ZM200.152 106.11L200.102 106.023L199.989 106.088L200.081 106.18L200.152 106.11ZM205.724 113.006L205.795 113.077L205.795 113.077L205.724 113.006ZM203.005 115.726L202.934 115.655L202.934 115.655L203.005 115.726ZM201.681 115.726L201.752 115.655L201.752 115.655L201.681 115.726ZM196.109 110.153L196.18 110.083L196.088 109.99L196.022 110.103L196.109 110.153ZM193.813 114.129L193.726 114.079L193.726 114.079L193.813 114.129ZM192.935 114.594L192.942 114.494L192.942 114.494L192.935 114.594ZM192.132 114.007L192.04 114.044L192.04 114.044L192.132 114.007ZM185.062 96.2782L185.155 96.2412L185.155 96.2411L185.062 96.2782ZM185.27 95.2693L185.199 95.1985L185.199 95.1986L185.27 95.2693ZM186.279 95.0618L186.242 95.1546L186.242 95.1546L186.279 95.0618ZM204.006 102.133L203.969 102.226L203.969 102.226L204.006 102.133ZM204.593 102.935L204.493 102.943V102.943L204.593 102.935ZM204.127 103.813L204.077 103.727L204.077 103.727L204.127 103.813ZM181.88 98.1958V98.2958H181.88L181.88 98.1958ZM182.437 100.149L182.366 100.079L182.366 100.079L182.437 100.149ZM180.356 102.23L180.285 102.159L180.285 102.159L180.356 102.23ZM183.761 100.149L183.831 100.079L183.831 100.079L183.761 100.149ZM183.761 101.474L183.831 101.544L183.831 101.544L183.761 101.474ZM181.68 103.554L181.609 103.484L181.609 103.484L181.68 103.554ZM180.356 103.554L180.285 103.625L180.285 103.625L180.356 103.554ZM191.473 93.76L191.544 93.8307L191.544 93.8307L191.473 93.76ZM190.149 93.76L190.079 93.8307L190.079 93.8307L190.149 93.76ZM190.149 92.4358L190.22 92.5065L190.22 92.5065L190.149 92.4358ZM192.23 90.3551L192.159 90.2844L192.159 90.2844L192.23 90.3551ZM193.554 90.3551L193.625 90.2844L193.625 90.2844L193.554 90.3551ZM193.554 91.6794L193.483 91.6087L193.483 91.6087L193.554 91.6794ZM188.096 91.879C188.096 92.341 187.721 92.7154 187.26 92.7154V92.9154C187.832 92.9154 188.296 92.4514 188.296 91.879H188.096ZM188.096 88.9364V91.879H188.296V88.9364H188.096ZM187.26 88.1C187.722 88.1 188.096 88.4745 188.096 88.9364H188.296C188.296 88.364 187.832 87.9 187.26 87.9V88.1ZM186.423 88.9364C186.423 88.4744 186.798 88.1 187.26 88.1V87.9C186.687 87.9 186.223 88.3639 186.223 88.9364H186.423ZM186.423 91.8791V88.9364H186.223V91.8791H186.423ZM187.26 92.7154C186.798 92.7154 186.423 92.341 186.423 91.8791H186.223C186.223 92.4514 186.687 92.9154 187.26 92.9154V92.7154ZM182.182 90.7153C181.777 90.3109 181.121 90.3108 180.716 90.7153L180.858 90.8568C181.184 90.5303 181.714 90.5304 182.041 90.8568L182.182 90.7153ZM184.262 92.796L182.182 90.7153L182.04 90.8567L184.121 92.9374L184.262 92.796ZM184.262 94.2616C184.667 93.8569 184.667 93.2008 184.262 92.796L184.121 92.9374C184.448 93.2641 184.448 93.7936 184.121 94.1202L184.262 94.2616ZM183.53 94.5652C183.795 94.5652 184.06 94.4639 184.262 94.2616L184.121 94.1202C183.958 94.2835 183.744 94.3652 183.53 94.3652V94.5652ZM182.797 94.2616C182.999 94.4639 183.264 94.5652 183.53 94.5652V94.3652C183.315 94.3652 183.101 94.2835 182.938 94.1202L182.797 94.2616ZM180.716 92.1811L182.797 94.2616L182.938 94.1202L180.858 92.0396L180.716 92.1811ZM180.716 90.7153C180.312 91.1201 180.312 91.7763 180.716 92.181L180.858 92.0396C180.531 91.713 180.531 91.1834 180.858 90.8567L180.716 90.7153ZM205.795 111.611L200.223 106.039L200.081 106.18L205.653 111.753L205.795 111.611ZM205.795 113.077C206.199 112.672 206.199 112.016 205.795 111.611L205.653 111.753C205.98 112.079 205.98 112.609 205.653 112.936L205.795 113.077ZM203.076 115.796L205.795 113.077L205.653 112.936L202.934 115.655L203.076 115.796ZM202.343 116.1C202.618 116.1 202.882 115.991 203.076 115.796L202.934 115.655C202.778 115.812 202.565 115.9 202.343 115.9V116.1ZM201.61 115.796C201.804 115.991 202.068 116.1 202.343 116.1V115.9C202.121 115.9 201.908 115.812 201.752 115.655L201.61 115.796ZM196.038 110.224L201.61 115.796L201.752 115.655L196.18 110.083L196.038 110.224ZM193.9 114.179L196.196 110.203L196.022 110.103L193.726 114.079L193.9 114.179ZM192.928 114.694C193.324 114.723 193.701 114.523 193.9 114.179L193.726 114.079C193.566 114.356 193.262 114.518 192.942 114.494L192.928 114.694ZM192.04 114.044C192.187 114.413 192.531 114.665 192.928 114.694L192.942 114.494C192.622 114.471 192.344 114.268 192.225 113.97L192.04 114.044ZM184.969 96.3152L192.04 114.044L192.225 113.97L185.155 96.2412L184.969 96.3152ZM185.199 95.1986C184.906 95.4915 184.816 95.9306 184.969 96.3153L185.155 96.2411C185.031 95.9308 185.104 95.5764 185.341 95.34L185.199 95.1986ZM186.316 94.9689C185.931 94.8153 185.492 94.9058 185.199 95.1985L185.341 95.34C185.577 95.1037 185.931 95.0307 186.242 95.1546L186.316 94.9689ZM204.043 102.04L186.316 94.9689L186.242 95.1546L203.969 102.226L204.043 102.04ZM204.692 102.928C204.664 102.532 204.412 102.187 204.043 102.04L203.969 102.226C204.266 102.345 204.47 102.623 204.493 102.943L204.692 102.928ZM204.177 103.9C204.521 103.702 204.721 103.324 204.692 102.928L204.493 102.943C204.516 103.262 204.355 103.567 204.077 103.727L204.177 103.9ZM200.202 106.196L204.177 103.9L204.077 103.727L200.102 106.023L200.202 106.196ZM181.88 96.423C182.342 96.423 182.716 96.7976 182.716 97.2593H182.916C182.916 96.6871 182.452 96.223 181.88 96.223V96.423ZM178.937 96.423H181.88V96.223H178.937V96.423ZM178.101 97.2593C178.101 96.7975 178.476 96.423 178.937 96.423V96.223C178.365 96.223 177.901 96.687 177.901 97.2593H178.101ZM178.937 98.0958C178.475 98.0958 178.101 97.7212 178.101 97.2593H177.901C177.901 97.8317 178.365 98.2958 178.937 98.2958V98.0958ZM181.88 98.0958H178.937V98.2958H181.88V98.0958ZM182.716 97.2593C182.716 97.7212 182.342 98.0957 181.88 98.0958L181.88 98.2958C182.452 98.2957 182.916 97.8317 182.916 97.2593H182.716ZM182.366 100.079L180.285 102.159L180.426 102.301L182.507 100.22L182.366 100.079ZM183.831 100.079C183.427 99.6741 182.771 99.674 182.366 100.079L182.507 100.22C182.834 99.8935 183.363 99.8936 183.69 100.22L183.831 100.079ZM183.831 101.544C184.236 101.14 184.236 100.483 183.831 100.079L183.69 100.22C184.017 100.547 184.017 101.076 183.69 101.403L183.831 101.544ZM181.751 103.625L183.831 101.544L183.69 101.403L181.609 103.484L181.751 103.625ZM181.018 103.928C181.283 103.928 181.548 103.827 181.751 103.625L181.609 103.484C181.446 103.647 181.232 103.728 181.018 103.728V103.928ZM180.285 103.625C180.487 103.827 180.753 103.928 181.018 103.928V103.728C180.804 103.728 180.59 103.647 180.426 103.484L180.285 103.625ZM180.285 102.159C179.88 102.564 179.88 103.22 180.285 103.625L180.426 103.484C180.1 103.157 180.1 102.627 180.426 102.301L180.285 102.159ZM190.811 94.1342C191.077 94.1342 191.342 94.033 191.544 93.8307L191.403 93.6893C191.239 93.8526 191.026 93.9342 190.811 93.9342V94.1342ZM190.079 93.8307C190.281 94.033 190.546 94.1342 190.811 94.1342V93.9342C190.597 93.9342 190.383 93.8526 190.22 93.6893L190.079 93.8307ZM190.079 92.3651C189.674 92.7698 189.674 93.426 190.079 93.8307L190.22 93.6893C189.893 93.3627 189.893 92.8331 190.22 92.5065L190.079 92.3651ZM192.159 90.2844L190.079 92.3651L190.22 92.5065L192.3 90.4258L192.159 90.2844ZM193.625 90.2844C193.22 89.8798 192.564 89.8798 192.159 90.2844L192.3 90.4258C192.627 90.0994 193.157 90.0994 193.483 90.4258L193.625 90.2844ZM193.625 91.7501C194.029 91.3454 194.029 90.6891 193.625 90.2844L193.483 90.4258C193.81 90.7525 193.81 91.2821 193.483 91.6087L193.625 91.7501ZM191.544 93.8307L193.625 91.7501L193.483 91.6087L191.403 93.6893L191.544 93.8307Z" fill="#D9E7F7"/>
</g>
<path fill-rule="evenodd" clip-rule="evenodd" d="M199.871 86.1711H202.219L198.11 90.4011L194.001 86.1711H196.349V82.5454H199.871V86.1711ZM202.219 92.8182H194V91.6096H202.219V92.8182Z" fill="white"/>
<path d="M33.5605 64.192C32.9525 64.192 32.4032 64.1067 31.9125 63.936C31.4325 63.7547 31.0165 63.472 30.6645 63.088C30.3232 62.704 30.0565 62.2133 29.8645 61.616C29.6832 61.008 29.5925 60.272 29.5925 59.408V53.536H31.4485V59.552C31.4485 60.1173 31.4965 60.5973 31.5925 60.992C31.6992 61.376 31.8432 61.6853 32.0245 61.92C32.2165 62.1547 32.4405 62.3253 32.6965 62.432C32.9525 62.528 33.2405 62.576 33.5605 62.576C33.8805 62.576 34.1738 62.528 34.4405 62.432C34.7072 62.3253 34.9365 62.1547 35.1285 61.92C35.3205 61.6853 35.4698 61.376 35.5765 60.992C35.6832 60.5973 35.7365 60.1173 35.7365 59.552V53.536H37.5125V59.408C37.5125 60.272 37.4218 61.008 37.2405 61.616C37.0592 62.2133 36.7925 62.704 36.4405 63.088C36.0992 63.472 35.6832 63.7547 35.1925 63.936C34.7125 64.1067 34.1685 64.192 33.5605 64.192ZM39.9649 64V56.144H41.4849L41.6129 57.216H41.6769C42.0075 56.864 42.3649 56.5653 42.7489 56.32C43.1435 56.0747 43.5862 55.952 44.0769 55.952C44.6529 55.952 45.1115 56.0747 45.4529 56.32C45.8049 56.5653 46.0715 56.912 46.2529 57.36C46.6262 56.9547 47.0155 56.6187 47.4209 56.352C47.8262 56.0853 48.2795 55.952 48.7809 55.952C49.6129 55.952 50.2262 56.224 50.6209 56.768C51.0155 57.3013 51.2129 58.0693 51.2129 59.072V64H49.3569V59.312C49.3569 58.6613 49.2555 58.2027 49.0529 57.936C48.8609 57.6693 48.5622 57.536 48.1569 57.536C47.6662 57.536 47.1169 57.8613 46.5089 58.512V64H44.6689V59.312C44.6689 58.6613 44.5675 58.2027 44.3649 57.936C44.1729 57.6693 43.8689 57.536 43.4529 57.536C42.9622 57.536 42.4129 57.8613 41.8049 58.512V64H39.9649ZM53.4493 64V56.144H54.9693L55.0973 57.216H55.1613C55.4919 56.864 55.8493 56.5653 56.2333 56.32C56.6279 56.0747 57.0706 55.952 57.5613 55.952C58.1373 55.952 58.5959 56.0747 58.9373 56.32C59.2893 56.5653 59.5559 56.912 59.7373 57.36C60.1106 56.9547 60.4999 56.6187 60.9053 56.352C61.3106 56.0853 61.7639 55.952 62.2653 55.952C63.0973 55.952 63.7106 56.224 64.1053 56.768C64.4999 57.3013 64.6973 58.0693 64.6973 59.072V64H62.8413V59.312C62.8413 58.6613 62.7399 58.2027 62.5373 57.936C62.3453 57.6693 62.0466 57.536 61.6413 57.536C61.1506 57.536 60.6013 57.8613 59.9933 58.512V64H58.1533V59.312C58.1533 58.6613 58.0519 58.2027 57.8493 57.936C57.6573 57.6693 57.3533 57.536 56.9373 57.536C56.4466 57.536 55.8973 57.8613 55.2893 58.512V64H53.4493ZM67.4616 67.232C67.2483 67.232 67.0616 67.216 66.9016 67.184C66.7416 67.1627 66.587 67.1253 66.4376 67.072L66.7736 65.632C66.8483 65.6533 66.9336 65.6747 67.0296 65.696C67.1363 65.728 67.2376 65.744 67.3336 65.744C67.7496 65.744 68.0803 65.616 68.3256 65.36C68.5816 65.1147 68.7736 64.7947 68.9016 64.4L69.0456 63.904L65.9576 56.144H67.8296L69.1896 60C69.307 60.3413 69.419 60.704 69.5256 61.088C69.643 61.4613 69.7603 61.8347 69.8776 62.208H69.9416C70.0376 61.8453 70.1336 61.4773 70.2296 61.104C70.3363 60.72 70.4376 60.352 70.5336 60L71.7176 56.144H73.4936L70.6456 64.352C70.4856 64.8 70.3096 65.2 70.1176 65.552C69.9256 65.904 69.7016 66.2027 69.4456 66.448C69.2003 66.704 68.9123 66.896 68.5816 67.024C68.2616 67.1627 67.8883 67.232 67.4616 67.232ZM80.0906 64L76.8266 53.536H78.7946L80.2666 58.8C80.4373 59.3973 80.5866 59.9627 80.7146 60.496C80.8533 61.0293 81.0133 61.6 81.1946 62.208H81.2586C81.44 61.6 81.5946 61.0293 81.7226 60.496C81.8613 59.9627 82.0106 59.3973 82.1706 58.8L83.6266 53.536H85.5306L82.2826 64H80.0906ZM86.6368 64V56.144H88.4768V64H86.6368ZM87.5648 54.768C87.2341 54.768 86.9621 54.672 86.7488 54.48C86.5354 54.288 86.4288 54.0373 86.4288 53.728C86.4288 53.4187 86.5354 53.168 86.7488 52.976C86.9621 52.7733 87.2341 52.672 87.5648 52.672C87.8954 52.672 88.1674 52.7733 88.3808 52.976C88.5941 53.168 88.7008 53.4187 88.7008 53.728C88.7008 54.0373 88.5941 54.288 88.3808 54.48C88.1674 54.672 87.8954 54.768 87.5648 54.768ZM93.5763 64.192C92.5843 64.192 91.7949 63.8347 91.2083 63.12C90.6323 62.3947 90.3443 61.3813 90.3443 60.08C90.3443 59.44 90.4349 58.864 90.6163 58.352C90.8083 57.84 91.0589 57.408 91.3683 57.056C91.6776 56.704 92.0296 56.432 92.4243 56.24C92.8296 56.048 93.2456 55.952 93.6723 55.952C94.1203 55.952 94.4989 56.032 94.8083 56.192C95.1176 56.3413 95.4269 56.5493 95.7363 56.816L95.6723 55.552V52.704H97.5123V64H95.9923L95.8643 63.152H95.8003C95.5123 63.44 95.1763 63.6853 94.7923 63.888C94.4083 64.0907 94.0029 64.192 93.5763 64.192ZM94.0243 62.672C94.6109 62.672 95.1603 62.3787 95.6723 61.792V58.128C95.3949 57.8827 95.1229 57.712 94.8563 57.616C94.6003 57.52 94.3389 57.472 94.0723 57.472C93.5603 57.472 93.1283 57.696 92.7763 58.144C92.4243 58.592 92.2483 59.232 92.2483 60.064C92.2483 60.9173 92.3976 61.568 92.6963 62.016C93.0056 62.4533 93.4483 62.672 94.0243 62.672ZM103.216 64.192C102.672 64.192 102.165 64.1013 101.696 63.92C101.226 63.728 100.816 63.456 100.464 63.104C100.112 62.752 99.8342 62.3253 99.6315 61.824C99.4395 61.312 99.3435 60.7307 99.3435 60.08C99.3435 59.44 99.4448 58.864 99.6475 58.352C99.8502 57.84 100.117 57.408 100.448 57.056C100.789 56.704 101.178 56.432 101.616 56.24C102.053 56.048 102.501 55.952 102.96 55.952C103.493 55.952 103.962 56.0427 104.368 56.224C104.773 56.4053 105.109 56.6613 105.376 56.992C105.653 57.3227 105.861 57.7173 106 58.176C106.138 58.6347 106.208 59.136 106.208 59.68C106.208 59.8613 106.197 60.032 106.176 60.192C106.165 60.352 106.149 60.48 106.128 60.576H101.136C101.221 61.28 101.466 61.824 101.872 62.208C102.288 62.5813 102.816 62.768 103.456 62.768C103.797 62.768 104.112 62.72 104.4 62.624C104.698 62.5173 104.992 62.3733 105.28 62.192L105.904 63.344C105.53 63.5893 105.114 63.792 104.656 63.952C104.197 64.112 103.717 64.192 103.216 64.192ZM101.12 59.328H104.608C104.608 58.72 104.474 58.2453 104.208 57.904C103.952 57.552 103.552 57.376 103.008 57.376C102.538 57.376 102.128 57.5413 101.776 57.872C101.424 58.2027 101.205 58.688 101.12 59.328ZM111.181 64.192C110.69 64.192 110.221 64.1013 109.773 63.92C109.325 63.7387 108.925 63.472 108.573 63.12C108.232 62.768 107.96 62.336 107.757 61.824C107.554 61.312 107.453 60.7307 107.453 60.08C107.453 59.4293 107.554 58.848 107.757 58.336C107.96 57.824 108.232 57.392 108.573 57.04C108.925 56.688 109.325 56.4213 109.773 56.24C110.221 56.048 110.69 55.952 111.181 55.952C111.672 55.952 112.141 56.048 112.589 56.24C113.048 56.4213 113.448 56.688 113.789 57.04C114.13 57.392 114.402 57.824 114.605 58.336C114.818 58.848 114.925 59.4293 114.925 60.08C114.925 60.7307 114.818 61.312 114.605 61.824C114.402 62.336 114.13 62.768 113.789 63.12C113.448 63.472 113.048 63.7387 112.589 63.92C112.141 64.1013 111.672 64.192 111.181 64.192ZM111.181 62.688C111.757 62.688 112.21 62.4533 112.541 61.984C112.872 61.504 113.037 60.8693 113.037 60.08C113.037 59.28 112.872 58.6453 112.541 58.176C112.21 57.696 111.757 57.456 111.181 57.456C110.605 57.456 110.152 57.696 109.821 58.176C109.501 58.6453 109.341 59.28 109.341 60.08C109.341 60.8693 109.501 61.504 109.821 61.984C110.152 62.4533 110.605 62.688 111.181 62.688ZM120.109 64V53.536H122.909C124.509 53.536 125.757 53.968 126.653 54.832C127.549 55.696 127.997 56.992 127.997 58.72C127.997 59.584 127.88 60.3467 127.645 61.008C127.421 61.6693 127.091 62.224 126.653 62.672C126.227 63.1093 125.704 63.44 125.085 63.664C124.477 63.888 123.784 64 123.005 64H120.109ZM121.965 62.496H122.781C123.848 62.496 124.664 62.192 125.229 61.584C125.805 60.9653 126.093 60.0107 126.093 58.72C126.093 57.44 125.805 56.5067 125.229 55.92C124.653 55.3333 123.837 55.04 122.781 55.04H121.965V62.496ZM133.165 64.192C132.675 64.192 132.205 64.1013 131.757 63.92C131.309 63.7387 130.909 63.472 130.557 63.12C130.216 62.768 129.944 62.336 129.741 61.824C129.539 61.312 129.437 60.7307 129.437 60.08C129.437 59.4293 129.539 58.848 129.741 58.336C129.944 57.824 130.216 57.392 130.557 57.04C130.909 56.688 131.309 56.4213 131.757 56.24C132.205 56.048 132.675 55.952 133.165 55.952C133.656 55.952 134.125 56.048 134.573 56.24C135.032 56.4213 135.432 56.688 135.773 57.04C136.115 57.392 136.387 57.824 136.589 58.336C136.803 58.848 136.909 59.4293 136.909 60.08C136.909 60.7307 136.803 61.312 136.589 61.824C136.387 62.336 136.115 62.768 135.773 63.12C135.432 63.472 135.032 63.7387 134.573 63.92C134.125 64.1013 133.656 64.192 133.165 64.192ZM133.165 62.688C133.741 62.688 134.195 62.4533 134.525 61.984C134.856 61.504 135.021 60.8693 135.021 60.08C135.021 59.28 134.856 58.6453 134.525 58.176C134.195 57.696 133.741 57.456 133.165 57.456C132.589 57.456 132.136 57.696 131.805 58.176C131.485 58.6453 131.325 59.28 131.325 60.08C131.325 60.8693 131.485 61.504 131.805 61.984C132.136 62.4533 132.589 62.688 133.165 62.688ZM139.933 64L137.853 56.144H139.709L140.653 60.224C140.738 60.5973 140.807 60.9707 140.861 61.344C140.925 61.7173 140.994 62.096 141.069 62.48H141.133C141.207 62.096 141.282 61.7173 141.357 61.344C141.442 60.9707 141.533 60.5973 141.629 60.224L142.653 56.144H144.333L145.373 60.224C145.469 60.5973 145.559 60.9707 145.645 61.344C145.73 61.7173 145.815 62.096 145.901 62.48H145.965C146.039 62.096 146.109 61.7173 146.173 61.344C146.237 60.9707 146.306 60.5973 146.381 60.224L147.325 56.144H149.053L147.053 64H144.861L143.949 60.336C143.863 59.9627 143.783 59.5947 143.709 59.232C143.634 58.8587 143.554 58.464 143.469 58.048H143.405C143.33 58.464 143.255 58.8587 143.181 59.232C143.106 59.6053 143.026 59.9787 142.941 60.352L142.045 64H139.933ZM150.606 64V56.144H152.126L152.254 57.2H152.318C152.67 56.8587 153.048 56.5653 153.454 56.32C153.87 56.0747 154.35 55.952 154.894 55.952C155.736 55.952 156.35 56.224 156.734 56.768C157.118 57.3013 157.31 58.0693 157.31 59.072V64H155.47V59.312C155.47 58.6613 155.374 58.2027 155.182 57.936C154.99 57.6693 154.675 57.536 154.238 57.536C153.896 57.536 153.592 57.6213 153.326 57.792C153.07 57.952 152.776 58.192 152.446 58.512V64H150.606ZM161.351 64.192C160.689 64.192 160.225 63.9947 159.959 63.6C159.692 63.2053 159.559 62.6667 159.559 61.984V52.704H161.399V62.08C161.399 62.304 161.441 62.464 161.527 62.56C161.612 62.6453 161.703 62.688 161.799 62.688C161.841 62.688 161.879 62.688 161.911 62.688C161.953 62.688 162.012 62.6773 162.087 62.656L162.327 64.032C162.081 64.1387 161.756 64.192 161.351 64.192ZM167.118 64.192C166.628 64.192 166.158 64.1013 165.71 63.92C165.262 63.7387 164.862 63.472 164.51 63.12C164.169 62.768 163.897 62.336 163.694 61.824C163.492 61.312 163.39 60.7307 163.39 60.08C163.39 59.4293 163.492 58.848 163.694 58.336C163.897 57.824 164.169 57.392 164.51 57.04C164.862 56.688 165.262 56.4213 165.71 56.24C166.158 56.048 166.628 55.952 167.118 55.952C167.609 55.952 168.078 56.048 168.526 56.24C168.985 56.4213 169.385 56.688 169.726 57.04C170.068 57.392 170.34 57.824 170.542 58.336C170.756 58.848 170.862 59.4293 170.862 60.08C170.862 60.7307 170.756 61.312 170.542 61.824C170.34 62.336 170.068 62.768 169.726 63.12C169.385 63.472 168.985 63.7387 168.526 63.92C168.078 64.1013 167.609 64.192 167.118 64.192ZM167.118 62.688C167.694 62.688 168.148 62.4533 168.478 61.984C168.809 61.504 168.974 60.8693 168.974 60.08C168.974 59.28 168.809 58.6453 168.478 58.176C168.148 57.696 167.694 57.456 167.118 57.456C166.542 57.456 166.089 57.696 165.758 58.176C165.438 58.6453 165.278 59.28 165.278 60.08C165.278 60.8693 165.438 61.504 165.758 61.984C166.089 62.4533 166.542 62.688 167.118 62.688ZM174.4 64.192C173.707 64.192 173.147 63.984 172.72 63.568C172.293 63.1413 172.08 62.5813 172.08 61.888C172.08 61.472 172.165 61.104 172.336 60.784C172.517 60.4533 172.795 60.1707 173.168 59.936C173.552 59.7013 174.032 59.504 174.608 59.344C175.195 59.184 175.893 59.0613 176.704 58.976C176.693 58.7733 176.661 58.5813 176.608 58.4C176.565 58.208 176.485 58.0427 176.368 57.904C176.261 57.7547 176.117 57.6427 175.936 57.568C175.755 57.4827 175.531 57.44 175.264 57.44C174.88 57.44 174.501 57.5147 174.128 57.664C173.765 57.8133 173.408 57.9947 173.056 58.208L172.384 56.976C172.821 56.6987 173.312 56.4587 173.856 56.256C174.4 56.0533 174.987 55.952 175.616 55.952C176.597 55.952 177.328 56.2453 177.808 56.832C178.299 57.408 178.544 58.2453 178.544 59.344V64H177.024L176.896 63.136H176.832C176.48 63.4347 176.101 63.6853 175.696 63.888C175.301 64.0907 174.869 64.192 174.4 64.192ZM174.992 62.752C175.312 62.752 175.6 62.6773 175.856 62.528C176.123 62.3787 176.405 62.1653 176.704 61.888V60.128C176.171 60.192 175.723 60.2773 175.36 60.384C174.997 60.4907 174.704 60.6133 174.48 60.752C174.256 60.88 174.096 61.0293 174 61.2C173.904 61.3707 173.856 61.552 173.856 61.744C173.856 62.096 173.963 62.352 174.176 62.512C174.389 62.672 174.661 62.752 174.992 62.752ZM183.498 64.192C182.506 64.192 181.717 63.8347 181.13 63.12C180.554 62.3947 180.266 61.3813 180.266 60.08C180.266 59.44 180.357 58.864 180.538 58.352C180.73 57.84 180.981 57.408 181.29 57.056C181.599 56.704 181.951 56.432 182.346 56.24C182.751 56.048 183.167 55.952 183.594 55.952C184.042 55.952 184.421 56.032 184.73 56.192C185.039 56.3413 185.349 56.5493 185.658 56.816L185.594 55.552V52.704H187.434V64H185.914L185.786 63.152H185.722C185.434 63.44 185.098 63.6853 184.714 63.888C184.33 64.0907 183.925 64.192 183.498 64.192ZM183.946 62.672C184.533 62.672 185.082 62.3787 185.594 61.792V58.128C185.317 57.8827 185.045 57.712 184.778 57.616C184.522 57.52 184.261 57.472 183.994 57.472C183.482 57.472 183.05 57.696 182.698 58.144C182.346 58.592 182.17 59.232 182.17 60.064C182.17 60.9173 182.319 61.568 182.618 62.016C182.927 62.4533 183.37 62.672 183.946 62.672ZM193.137 64.192C192.593 64.192 192.087 64.1013 191.617 63.92C191.148 63.728 190.737 63.456 190.385 63.104C190.033 62.752 189.756 62.3253 189.553 61.824C189.361 61.312 189.265 60.7307 189.265 60.08C189.265 59.44 189.367 58.864 189.569 58.352C189.772 57.84 190.039 57.408 190.369 57.056C190.711 56.704 191.1 56.432 191.537 56.24C191.975 56.048 192.423 55.952 192.881 55.952C193.415 55.952 193.884 56.0427 194.289 56.224C194.695 56.4053 195.031 56.6613 195.297 56.992C195.575 57.3227 195.783 57.7173 195.921 58.176C196.06 58.6347 196.129 59.136 196.129 59.68C196.129 59.8613 196.119 60.032 196.097 60.192C196.087 60.352 196.071 60.48 196.049 60.576H191.057C191.143 61.28 191.388 61.824 191.793 62.208C192.209 62.5813 192.737 62.768 193.377 62.768C193.719 62.768 194.033 62.72 194.321 62.624C194.62 62.5173 194.913 62.3733 195.201 62.192L195.825 63.344C195.452 63.5893 195.036 63.792 194.577 63.952C194.119 64.112 193.639 64.192 193.137 64.192ZM191.041 59.328H194.529C194.529 58.72 194.396 58.2453 194.129 57.904C193.873 57.552 193.473 57.376 192.929 57.376C192.46 57.376 192.049 57.5413 191.697 57.872C191.345 58.2027 191.127 58.688 191.041 59.328ZM197.887 64V56.144H199.407L199.535 57.536H199.599C199.876 57.024 200.212 56.6347 200.607 56.368C201.001 56.0907 201.407 55.952 201.823 55.952C202.196 55.952 202.495 56.0053 202.719 56.112L202.399 57.712C202.26 57.6693 202.132 57.6373 202.015 57.616C201.897 57.5947 201.753 57.584 201.583 57.584C201.273 57.584 200.948 57.7067 200.607 57.952C200.265 58.1867 199.972 58.6027 199.727 59.2V64H197.887Z" fill="#D8DEE5"/>
<rect opacity="0.2" x="121" y="11" width="95" height="8" rx="4" fill="#B8C3D2"/>
<rect width="50" height="34" rx="2" transform="matrix(1 0 0 -1 14 182)" fill="#F1F3F6"/>
<rect opacity="0.2" width="10" height="10" rx="2" transform="matrix(1 0 0 -1 14 20)" fill="#B8C3D2"/>
<rect width="50" height="34" rx="2" transform="matrix(1 0 0 -1 90 182)" fill="#F1F3F6"/>
<rect width="50" height="34" rx="2" transform="matrix(1 0 0 -1 166 182)" fill="#F1F3F6"/>
<defs>
<filter id="filter0_dd_1045_2056" x="142.901" y="49.9" width="108.197" height="108.2" filterUnits="userSpaceOnUse" color-interpolation-filters="sRGB">
<feFlood flood-opacity="0" result="BackgroundImageFix"/>
<feColorMatrix in="SourceAlpha" type="matrix" values="0 0 0 0 0 0 0 0 0 0 0 0 0 0 0 0 0 0 127 0" result="hardAlpha"/>
<feOffset dx="5" dy="2"/>
<feGaussianBlur stdDeviation="20"/>
<feColorMatrix type="matrix" values="0 0 0 0 0 0 0 0 0 0.460526 0 0 0 0 1 0 0 0 0.66 0"/>
<feBlend mode="normal" in2="BackgroundImageFix" result="effect1_dropShadow_1045_2056"/>
<feColorMatrix in="SourceAlpha" type="matrix" values="0 0 0 0 0 0 0 0 0 0 0 0 0 0 0 0 0 0 127 0" result="hardAlpha"/>
<feOffset dx="5" dy="5"/>
<feGaussianBlur stdDeviation="5"/>
<feColorMatrix type="matrix" values="0 0 0 0 0.383333 0 0 0 0 0.360972 0 0 0 0 0.360972 0 0 0 0.08 0"/>
<feBlend mode="normal" in2="effect1_dropShadow_1045_2056" result="effect2_dropShadow_1045_2056"/>
<feBlend mode="normal" in="SourceGraphic" in2="effect2_dropShadow_1045_2056" result="shape"/>
</filter>
</defs>
</svg>
