<svg width="230" height="184" viewBox="0 0 230 184" fill="none" xmlns="http://www.w3.org/2000/svg">
<rect x="1" y="1" width="228" height="182" rx="4" fill="white" stroke="#D8DEE5" stroke-width="2"/>
<path fill-rule="evenodd" clip-rule="evenodd" d="M230 62.9062H0V60.9404H230V62.9062Z" fill="#D8DEE5"/>
<path fill-rule="evenodd" clip-rule="evenodd" d="M205.795 38.0452C206.179 38.4291 206.179 39.0514 205.795 39.4353L201.943 43.2874C201.559 43.6712 200.936 43.6712 200.553 43.2874C200.169 42.9035 200.169 42.2812 200.553 41.8973L204.405 38.0452C204.789 37.6614 205.411 37.6614 205.795 38.0452Z" fill="white"/>
<path fill-rule="evenodd" clip-rule="evenodd" d="M205.874 43.2874C205.49 43.6713 204.868 43.6713 204.484 43.2874L200.632 39.4353C200.248 39.0514 200.248 38.4291 200.632 38.0452C201.016 37.6614 201.638 37.6614 202.022 38.0452L205.874 41.8974C206.258 42.2812 206.258 42.9036 205.874 43.2874Z" fill="white"/>
<path fill-rule="evenodd" clip-rule="evenodd" d="M214.547 31.4531H18.6211C18.2592 31.4531 17.9658 31.7465 17.9658 32.1084V49.8007C17.9658 50.1626 18.2592 50.456 18.6211 50.456H214.547C214.909 50.456 215.202 50.1626 215.202 49.8007V32.1084C215.202 31.7465 214.909 31.4531 214.547 31.4531ZM18.6211 29.4873C17.1735 29.4873 16 30.6608 16 32.1084V49.8007C16 51.2483 17.1735 52.4218 18.6211 52.4218H214.547C215.995 52.4218 217.168 51.2483 217.168 49.8007V32.1084C217.168 30.6608 215.995 29.4873 214.547 29.4873H18.6211Z" fill="#D8DEE5"/>
<rect x="190" y="32" width="25" height="18" fill="url(#paint0_linear_1045_2026)"/>
<path d="M22.2793 15.0713C22.2793 16.8808 20.8124 18.3476 19.0029 18.3476C17.1934 18.3476 15.7266 16.8808 15.7266 15.0713C15.7266 13.2618 17.1934 11.7949 19.0029 11.7949C20.8124 11.7949 22.2793 13.2618 22.2793 15.0713Z" fill="#D8DEE5"/>
<path d="M32.7634 15.0713C32.7634 16.8808 31.2965 18.3476 29.487 18.3476C27.6776 18.3476 26.2107 16.8808 26.2107 15.0713C26.2107 13.2618 27.6776 11.7949 29.487 11.7949C31.2965 11.7949 32.7634 13.2618 32.7634 15.0713Z" fill="#D8DEE5"/>
<path fill-rule="evenodd" clip-rule="evenodd" d="M39.9714 17.0371C41.0571 17.0371 41.9372 16.157 41.9372 15.0713C41.9372 13.9856 41.0571 13.1055 39.9714 13.1055C38.8857 13.1055 38.0056 13.9856 38.0056 15.0713C38.0056 16.157 38.8857 17.0371 39.9714 17.0371ZM39.9714 18.3476C41.7809 18.3476 43.2478 16.8808 43.2478 15.0713C43.2478 13.2618 41.7809 11.7949 39.9714 11.7949C38.1619 11.7949 36.6951 13.2618 36.6951 15.0713C36.6951 16.8808 38.1619 18.3476 39.9714 18.3476Z" fill="#D8DEE5"/>
<path opacity="0.2" d="M15.7266 77.3218C15.7266 75.5123 17.1934 74.0454 19.0029 74.0454H53.1926C55.0021 74.0454 56.469 75.5123 56.469 77.3218V111.396C56.469 113.205 55.0021 114.672 53.1926 114.672H19.0029C17.1934 114.672 15.7266 113.205 15.7266 111.396V77.3218Z" fill="#B8C3D2"/>
<path opacity="0.2" d="M69.4585 77.3218C69.4585 75.5123 70.9254 74.0454 72.7348 74.0454H106.925C108.734 74.0454 110.201 75.5123 110.201 77.3218V111.396C110.201 113.205 108.734 114.672 106.925 114.672H72.7348C70.9254 114.672 69.4585 113.205 69.4585 111.396V77.3218Z" fill="#B8C3D2"/>
<path opacity="0.2" d="M122.536 77.3218C122.536 75.5123 124.003 74.0454 125.812 74.0454H160.002C161.811 74.0454 163.278 75.5123 163.278 77.3218V111.396C163.278 113.205 161.811 114.672 160.002 114.672H125.812C124.003 114.672 122.536 113.205 122.536 111.396V77.3218Z" fill="#B8C3D2"/>
<path opacity="0.2" d="M176.268 77.3218C176.268 75.5123 177.735 74.0454 179.544 74.0454H213.734C215.543 74.0454 217.01 75.5123 217.01 77.3218V111.396C217.01 113.205 215.543 114.672 213.734 114.672H179.544C177.735 114.672 176.268 113.205 176.268 111.396V77.3218Z" fill="#B8C3D2"/>
<path opacity="0.2" d="M15.7266 129.088C15.7266 127.279 17.1934 125.812 19.0029 125.812H53.1926C55.0021 125.812 56.469 127.279 56.469 129.088V163.162C56.469 164.972 55.0021 166.439 53.1926 166.439H19.0029C17.1934 166.439 15.7266 164.972 15.7266 163.162V129.088Z" fill="#B8C3D2"/>
<path opacity="0.2" d="M69.4585 129.088C69.4585 127.279 70.9254 125.812 72.7348 125.812H106.925C108.734 125.812 110.201 127.279 110.201 129.088V163.162C110.201 164.972 108.734 166.439 106.925 166.439H72.7348C70.9254 166.439 69.4585 164.972 69.4585 163.162V129.088Z" fill="#B8C3D2"/>
<path opacity="0.2" d="M122.536 129.088C122.536 127.279 124.003 125.812 125.812 125.812H160.002C161.811 125.812 163.278 127.279 163.278 129.088V163.162C163.278 164.972 161.811 166.439 160.002 166.439H125.812C124.003 166.439 122.536 164.972 122.536 163.162V129.088Z" fill="#B8C3D2"/>
<path fill-rule="evenodd" clip-rule="evenodd" d="M122.571 57.0003C122.034 57.0003 121.52 56.7844 121.144 56.4012L118.251 53.4545C117.467 52.6558 116.181 52.6558 115.397 53.4545L112.505 56.4012C112.128 56.7844 111.614 57.0003 111.077 57.0003H99.1111C96.8406 57.0003 95 58.8409 95 61.1114V72.8891C95 75.1596 96.8406 77.0003 99.1111 77.0003H133.889C136.159 77.0003 138 75.1596 138 72.8891V61.1114C138 58.8409 136.159 57.0003 133.889 57.0003H122.571Z" fill="#79B5FC"/>
<path d="M107.74 64.1183C107.041 64.1183 106.489 64.3517 106.083 64.8185C105.68 65.2824 105.478 65.9189 105.478 66.7279C105.478 67.56 105.672 68.2037 106.061 68.659C106.452 69.1113 107.009 69.3375 107.731 69.3375C108.175 69.3375 108.681 69.2577 109.249 69.0983V69.7463C108.808 69.9116 108.265 69.9942 107.618 69.9942C106.681 69.9942 105.958 69.7101 105.448 69.1417C104.94 68.5734 104.687 67.7659 104.687 66.7192C104.687 66.0639 104.808 65.4898 105.052 64.9968C105.298 64.5039 105.652 64.1241 106.113 63.8573C106.577 63.5906 107.122 63.4572 107.748 63.4572C108.415 63.4572 108.998 63.579 109.497 63.8225L109.184 64.4575C108.702 64.2314 108.221 64.1183 107.74 64.1183ZM114.642 67.5194C114.642 68.2965 114.446 68.904 114.055 69.3418C113.664 69.7767 113.123 69.9942 112.433 69.9942C112.006 69.9942 111.628 69.8942 111.297 69.6941C110.967 69.494 110.712 69.207 110.532 68.8329C110.352 68.4589 110.262 68.0211 110.262 67.5194C110.262 66.7424 110.457 66.1378 110.845 65.7058C111.234 65.2709 111.773 65.0534 112.463 65.0534C113.13 65.0534 113.659 65.2752 114.051 65.7188C114.445 66.1625 114.642 66.7627 114.642 67.5194ZM111.01 67.5194C111.01 68.1284 111.132 68.5923 111.376 68.9112C111.619 69.2302 111.977 69.3897 112.45 69.3897C112.923 69.3897 113.281 69.2316 113.524 68.9156C113.771 68.5966 113.894 68.1313 113.894 67.5194C113.894 66.9134 113.771 66.4539 113.524 66.1407C113.281 65.8247 112.92 65.6666 112.441 65.6666C111.969 65.6666 111.612 65.8218 111.371 66.132C111.131 66.4423 111.01 66.9047 111.01 67.5194ZM118.13 69.9942C117.82 69.9942 117.536 69.9377 117.278 69.8246C117.023 69.7086 116.808 69.5317 116.634 69.294H116.582C116.617 69.5723 116.634 69.8362 116.634 70.0855V72.0471H115.912V65.1404H116.499L116.599 65.7928H116.634C116.82 65.5318 117.036 65.3433 117.282 65.2274C117.529 65.1114 117.811 65.0534 118.13 65.0534C118.762 65.0534 119.249 65.2694 119.592 65.7014C119.937 66.1335 120.109 66.7395 120.109 67.5194C120.109 68.3023 119.934 68.9112 119.583 69.3462C119.235 69.7782 118.751 69.9942 118.13 69.9942ZM118.026 65.6666C117.539 65.6666 117.186 65.8015 116.969 66.0711C116.752 66.3408 116.64 66.7699 116.634 67.3585V67.5194C116.634 68.1892 116.746 68.6691 116.969 68.9591C117.192 69.2461 117.55 69.3897 118.043 69.3897C118.455 69.3897 118.777 69.2229 119.009 68.8895C119.244 68.556 119.361 68.0965 119.361 67.5108C119.361 66.9163 119.244 66.4611 119.009 66.1451C118.777 65.8261 118.449 65.6666 118.026 65.6666ZM120.618 65.1404H121.392L122.436 67.8587C122.665 68.4792 122.807 68.9272 122.862 69.2026H122.897C122.935 69.0548 123.013 68.8025 123.132 68.4459C123.254 68.0863 123.648 66.9845 124.315 65.1404H125.089L123.041 70.5683C122.838 71.1047 122.6 71.4846 122.327 71.7078C122.058 71.934 121.726 72.0471 121.331 72.0471C121.111 72.0471 120.894 72.0224 120.679 71.9732V71.3947C120.838 71.4295 121.017 71.4469 121.214 71.4469C121.71 71.4469 122.064 71.1685 122.275 70.6118L122.54 69.9333L120.618 65.1404Z" fill="white"/>
<g filter="url(#filter0_dd_1045_2026)">
<path fill-rule="evenodd" clip-rule="evenodd" d="M134.259 67.8154C134.776 67.8154 135.195 67.3962 135.195 66.879V63.9364C135.195 63.4192 134.776 63 134.259 63C133.742 63 133.322 63.4192 133.322 63.9364V66.8791C133.322 67.3962 133.742 67.8154 134.259 67.8154ZM127.786 65.786C128.152 65.4205 128.745 65.4206 129.11 65.786L131.191 67.8667C131.556 68.2324 131.556 68.8252 131.191 69.1909C131.008 69.3737 130.768 69.4652 130.529 69.4652C130.289 69.4652 130.049 69.3737 129.866 69.1909L127.786 67.1103C127.42 66.7446 127.42 66.1517 127.786 65.786ZM147.151 81.1097L152.723 86.6821C153.089 87.0478 153.089 87.6406 152.723 88.0063L150.004 90.7257C149.829 90.9013 149.59 91 149.342 91C149.094 91 148.855 90.9013 148.68 90.7257L143.108 85.1533L140.812 89.1286C140.633 89.4394 140.292 89.6202 139.934 89.5942C139.576 89.5683 139.264 89.3403 139.131 89.0071L132.061 71.2782C131.923 70.9307 132.004 70.534 132.269 70.2693C132.534 70.0047 132.93 69.923 133.278 70.0618L151.005 77.133C151.338 77.2659 151.566 77.5774 151.592 77.9353C151.618 78.2931 151.437 78.6341 151.126 78.8135L147.151 81.1097ZM129.815 72.2593C129.815 71.7423 129.396 71.323 128.879 71.323H125.936C125.419 71.323 125 71.7422 125 72.2593C125 72.7764 125.419 73.1958 125.936 73.1958H128.879C129.396 73.1957 129.815 72.7764 129.815 72.2593ZM127.355 77.23L129.436 75.1493C129.802 74.7838 130.394 74.7838 130.76 75.1493C131.125 75.515 131.125 76.1079 130.76 76.4736L128.679 78.5542C128.496 78.737 128.256 78.8285 128.017 78.8285C127.777 78.8285 127.538 78.737 127.355 78.5542C126.989 78.1886 126.989 77.5957 127.355 77.23ZM138.472 68.76C138.29 68.9428 138.05 69.0342 137.81 69.0342C137.571 69.0342 137.331 68.9428 137.148 68.76C136.783 68.3944 136.783 67.8015 137.148 67.4358L139.229 65.3551C139.594 64.9896 140.187 64.9896 140.553 65.3551C140.919 65.7208 140.919 66.3137 140.553 66.6794L138.472 68.76Z" fill="white"/>
<path d="M129.11 65.786L129.181 65.7153L129.181 65.7153L129.11 65.786ZM127.786 65.786L127.715 65.7153L127.715 65.7153L127.786 65.786ZM131.191 67.8667L131.12 67.9374L131.12 67.9374L131.191 67.8667ZM131.191 69.1909L131.261 69.2616L131.191 69.1909ZM129.866 69.1909L129.796 69.2616L129.866 69.1909ZM127.786 67.1103L127.715 67.181L127.715 67.1811L127.786 67.1103ZM152.723 86.6821L152.652 86.7528V86.7528L152.723 86.6821ZM147.151 81.1097L147.101 81.0231L146.988 81.0883L147.08 81.1804L147.151 81.1097ZM152.723 88.0063L152.794 88.077L152.794 88.077L152.723 88.0063ZM150.004 90.7257L149.933 90.655L149.933 90.655L150.004 90.7257ZM148.68 90.7257L148.751 90.655L148.751 90.655L148.68 90.7257ZM143.108 85.1533L143.179 85.0826L143.087 84.9904L143.021 85.1033L143.108 85.1533ZM140.812 89.1286L140.725 89.0786L140.725 89.0786L140.812 89.1286ZM139.934 89.5942L139.941 89.4944L139.941 89.4944L139.934 89.5942ZM139.131 89.0071L139.039 89.0441L139.039 89.0442L139.131 89.0071ZM132.061 71.2782L132.154 71.2412L132.154 71.2411L132.061 71.2782ZM132.269 70.2693L132.198 70.1985L132.198 70.1986L132.269 70.2693ZM133.278 70.0618L133.241 70.1546L133.241 70.1546L133.278 70.0618ZM151.005 77.133L150.968 77.2259L150.968 77.2259L151.005 77.133ZM151.592 77.9353L151.492 77.9425V77.9425L151.592 77.9353ZM151.126 78.8135L151.076 78.7269L151.076 78.7269L151.126 78.8135ZM128.879 73.1958V73.2958H128.879L128.879 73.1958ZM129.436 75.1493L129.365 75.0785L129.365 75.0786L129.436 75.1493ZM127.355 77.23L127.284 77.1593L127.284 77.1593L127.355 77.23ZM130.76 75.1493L130.83 75.0786L130.83 75.0785L130.76 75.1493ZM130.76 76.4736L130.83 76.5443L130.83 76.5443L130.76 76.4736ZM128.679 78.5542L128.608 78.4835L128.608 78.4835L128.679 78.5542ZM127.355 78.5542L127.284 78.6249L127.284 78.625L127.355 78.5542ZM138.472 68.76L138.543 68.8307L138.543 68.8307L138.472 68.76ZM137.148 68.76L137.078 68.8307L137.078 68.8307L137.148 68.76ZM137.148 67.4358L137.219 67.5065L137.219 67.5065L137.148 67.4358ZM139.229 65.3551L139.158 65.2844L139.158 65.2844L139.229 65.3551ZM140.553 65.3551L140.624 65.2844L140.624 65.2844L140.553 65.3551ZM140.553 66.6794L140.482 66.6087L140.482 66.6087L140.553 66.6794ZM135.095 66.879C135.095 67.341 134.72 67.7154 134.259 67.7154V67.9154C134.831 67.9154 135.295 67.4514 135.295 66.879H135.095ZM135.095 63.9364V66.879H135.295V63.9364H135.095ZM134.259 63.1C134.721 63.1 135.095 63.4745 135.095 63.9364H135.295C135.295 63.364 134.831 62.9 134.259 62.9V63.1ZM133.422 63.9364C133.422 63.4744 133.797 63.1 134.259 63.1V62.9C133.686 62.9 133.222 63.3639 133.222 63.9364H133.422ZM133.422 66.8791V63.9364H133.222V66.8791H133.422ZM134.259 67.7154C133.797 67.7154 133.422 67.341 133.422 66.8791H133.222C133.222 67.4514 133.686 67.9154 134.259 67.9154V67.7154ZM129.181 65.7153C128.776 65.3109 128.12 65.3108 127.715 65.7153L127.857 65.8568C128.183 65.5303 128.713 65.5304 129.04 65.8568L129.181 65.7153ZM131.261 67.796L129.181 65.7153L129.04 65.8567L131.12 67.9374L131.261 67.796ZM131.261 69.2616C131.666 68.8569 131.666 68.2008 131.261 67.796L131.12 67.9374C131.447 68.2641 131.447 68.7936 131.12 69.1202L131.261 69.2616ZM130.529 69.5652C130.794 69.5652 131.059 69.4639 131.261 69.2616L131.12 69.1202C130.957 69.2835 130.743 69.3652 130.529 69.3652V69.5652ZM129.796 69.2616C129.998 69.4639 130.263 69.5652 130.529 69.5652V69.3652C130.314 69.3652 130.101 69.2835 129.937 69.1202L129.796 69.2616ZM127.715 67.1811L129.796 69.2616L129.937 69.1202L127.857 67.0396L127.715 67.1811ZM127.715 65.7153C127.311 66.1201 127.311 66.7763 127.715 67.181L127.857 67.0396C127.53 66.713 127.53 66.1834 127.857 65.8567L127.715 65.7153ZM152.794 86.6114L147.222 81.039L147.08 81.1804L152.652 86.7528L152.794 86.6114ZM152.794 88.077C153.198 87.6722 153.198 87.0161 152.794 86.6114L152.652 86.7528C152.979 87.0794 152.979 87.6089 152.652 87.9356L152.794 88.077ZM150.075 90.7964L152.794 88.077L152.652 87.9356L149.933 90.655L150.075 90.7964ZM149.342 91.1C149.617 91.1 149.881 90.9907 150.075 90.7964L149.933 90.655C149.777 90.8118 149.564 90.9 149.342 90.9V91.1ZM148.609 90.7964C148.803 90.9908 149.067 91.1 149.342 91.1V90.9C149.12 90.9 148.907 90.8118 148.751 90.655L148.609 90.7964ZM143.037 85.224L148.609 90.7964L148.751 90.655L143.179 85.0826L143.037 85.224ZM140.899 89.1786L143.195 85.2033L143.021 85.1033L140.725 89.0786L140.899 89.1786ZM139.927 89.6939C140.323 89.7227 140.7 89.5225 140.899 89.1786L140.725 89.0786C140.565 89.3562 140.261 89.5177 139.941 89.4944L139.927 89.6939ZM139.039 89.0442C139.186 89.4129 139.531 89.6653 139.927 89.6939L139.941 89.4944C139.621 89.4713 139.343 89.2676 139.224 88.97L139.039 89.0442ZM131.968 71.3152L139.039 89.0441L139.224 88.9701L132.154 71.2412L131.968 71.3152ZM132.198 70.1986C131.905 70.4915 131.815 70.9306 131.968 71.3153L132.154 71.2411C132.03 70.9308 132.103 70.5764 132.34 70.34L132.198 70.1986ZM133.315 69.9689C132.93 69.8153 132.491 69.9058 132.198 70.1985L132.34 70.34C132.576 70.1037 132.93 70.0307 133.241 70.1546L133.315 69.9689ZM151.042 77.0401L133.315 69.9689L133.241 70.1546L150.968 77.2259L151.042 77.0401ZM151.691 77.9281C151.663 77.532 151.411 77.1872 151.042 77.0401L150.968 77.2259C151.265 77.3446 151.469 77.6228 151.492 77.9425L151.691 77.9281ZM151.176 78.9001C151.52 78.7015 151.72 78.3241 151.691 77.9281L151.492 77.9425C151.515 78.2621 151.354 78.5667 151.076 78.7269L151.176 78.9001ZM147.201 81.1963L151.176 78.9001L151.076 78.7269L147.101 81.0231L147.201 81.1963ZM128.879 71.423C129.341 71.423 129.715 71.7976 129.715 72.2593H129.915C129.915 71.6871 129.451 71.223 128.879 71.223V71.423ZM125.936 71.423H128.879V71.223H125.936V71.423ZM125.1 72.2593C125.1 71.7975 125.475 71.423 125.936 71.423V71.223C125.364 71.223 124.9 71.687 124.9 72.2593H125.1ZM125.936 73.0958C125.474 73.0958 125.1 72.7212 125.1 72.2593H124.9C124.9 72.8317 125.364 73.2958 125.936 73.2958V73.0958ZM128.879 73.0958H125.936V73.2958H128.879V73.0958ZM129.715 72.2593C129.715 72.7212 129.341 73.0957 128.879 73.0958L128.879 73.2958C129.451 73.2957 129.915 72.8317 129.915 72.2593H129.715ZM129.365 75.0786L127.284 77.1593L127.425 77.3007L129.506 75.22L129.365 75.0786ZM130.83 75.0785C130.426 74.6741 129.77 74.674 129.365 75.0785L129.506 75.22C129.833 74.8935 130.362 74.8936 130.689 75.22L130.83 75.0785ZM130.83 76.5443C131.235 76.1395 131.235 75.4833 130.83 75.0786L130.689 75.22C131.016 75.5466 131.016 76.0762 130.689 76.4028L130.83 76.5443ZM128.75 78.6249L130.83 76.5443L130.689 76.4028L128.608 78.4835L128.75 78.6249ZM128.017 78.9285C128.282 78.9285 128.547 78.8273 128.75 78.6249L128.608 78.4835C128.445 78.6468 128.231 78.7285 128.017 78.7285V78.9285ZM127.284 78.625C127.486 78.8272 127.752 78.9285 128.017 78.9285V78.7285C127.803 78.7285 127.589 78.6468 127.425 78.4835L127.284 78.625ZM127.284 77.1593C126.879 77.5641 126.879 78.2203 127.284 78.6249L127.425 78.4835C127.099 78.157 127.099 77.6274 127.425 77.3007L127.284 77.1593ZM137.81 69.1342C138.076 69.1342 138.341 69.033 138.543 68.8307L138.402 68.6893C138.238 68.8526 138.025 68.9342 137.81 68.9342V69.1342ZM137.078 68.8307C137.28 69.033 137.545 69.1342 137.81 69.1342V68.9342C137.596 68.9342 137.382 68.8526 137.219 68.6893L137.078 68.8307ZM137.078 67.3651C136.673 67.7698 136.673 68.426 137.078 68.8307L137.219 68.6893C136.892 68.3627 136.892 67.8331 137.219 67.5065L137.078 67.3651ZM139.158 65.2844L137.078 67.3651L137.219 67.5065L139.299 65.4258L139.158 65.2844ZM140.624 65.2844C140.219 64.8798 139.563 64.8798 139.158 65.2844L139.299 65.4258C139.626 65.0994 140.156 65.0994 140.482 65.4258L140.624 65.2844ZM140.624 66.7501C141.028 66.3454 141.028 65.6891 140.624 65.2844L140.482 65.4258C140.809 65.7525 140.809 66.2821 140.482 66.6087L140.624 66.7501ZM138.543 68.8307L140.624 66.7501L140.482 66.6087L138.402 68.6893L138.543 68.8307Z" fill="#D9E7F7"/>
</g>
<path d="M21.91 45V35.186H23.968V37.594L23.87 38.84C24.1313 38.6067 24.4347 38.392 24.78 38.196C25.1347 37.9907 25.5453 37.888 26.012 37.888C26.768 37.888 27.314 38.14 27.65 38.644C27.9953 39.1387 28.168 39.82 28.168 40.688V45H26.11V40.954C26.11 40.45 26.04 40.1047 25.9 39.918C25.7693 39.7313 25.5547 39.638 25.256 39.638C24.9947 39.638 24.7707 39.6987 24.584 39.82C24.3973 39.932 24.192 40.0953 23.968 40.31V45H21.91ZM32.582 45.168C31.7234 45.168 31.1074 44.9207 30.734 44.426C30.37 43.9313 30.188 43.2827 30.188 42.48V39.666H29.236V38.14L30.3 38.056L30.538 36.208H32.246V38.056H33.912V39.666H32.246V42.452C32.246 42.844 32.3254 43.1287 32.484 43.306C32.652 43.474 32.8714 43.558 33.142 43.558C33.254 43.558 33.366 43.544 33.478 43.516C33.5994 43.488 33.7067 43.4553 33.8 43.418L34.122 44.916C33.9447 44.972 33.7254 45.028 33.464 45.084C33.212 45.14 32.918 45.168 32.582 45.168ZM37.668 45.168C36.8093 45.168 36.1933 44.9207 35.82 44.426C35.456 43.9313 35.274 43.2827 35.274 42.48V39.666H34.322V38.14L35.386 38.056L35.624 36.208H37.332V38.056H38.998V39.666H37.332V42.452C37.332 42.844 37.4113 43.1287 37.57 43.306C37.738 43.474 37.9573 43.558 38.228 43.558C38.34 43.558 38.452 43.544 38.564 43.516C38.6853 43.488 38.7927 43.4553 38.886 43.418L39.208 44.916C39.0307 44.972 38.8113 45.028 38.55 45.084C38.298 45.14 38.004 45.168 37.668 45.168ZM40.3534 47.576V38.056H42.0334L42.1734 38.742H42.2294C42.5 38.4993 42.8034 38.2987 43.1394 38.14C43.4847 37.972 43.8394 37.888 44.2034 37.888C45.0434 37.888 45.706 38.21 46.1914 38.854C46.6767 39.4887 46.9194 40.3427 46.9194 41.416C46.9194 42.2093 46.7794 42.886 46.4994 43.446C46.2194 44.006 45.8554 44.4353 45.4074 44.734C44.9687 45.0233 44.4974 45.168 43.9934 45.168C43.6947 45.168 43.4054 45.1073 43.1254 44.986C42.8454 44.8553 42.584 44.6733 42.3414 44.44L42.4114 45.546V47.576H40.3534ZM43.5174 43.488C43.872 43.488 44.1754 43.3247 44.4274 42.998C44.6794 42.6713 44.8054 42.1533 44.8054 41.444C44.8054 40.1933 44.404 39.568 43.6014 39.568C43.2 39.568 42.8034 39.778 42.4114 40.198V43.04C42.598 43.208 42.7847 43.3247 42.9714 43.39C43.158 43.4553 43.34 43.488 43.5174 43.488ZM50.3544 45.168C49.8971 45.168 49.4257 45.0793 48.9404 44.902C48.4644 44.7247 48.0491 44.4913 47.6944 44.202L48.6184 42.914C48.9357 43.1473 49.2391 43.3293 49.5284 43.46C49.8271 43.5813 50.1211 43.642 50.4104 43.642C50.7184 43.642 50.9424 43.5907 51.0824 43.488C51.2224 43.376 51.2924 43.2313 51.2924 43.054C51.2924 42.8953 51.2224 42.7647 51.0824 42.662C50.9517 42.5593 50.7791 42.466 50.5644 42.382C50.3497 42.2887 50.1211 42.1953 49.8784 42.102C49.5984 41.99 49.3184 41.85 49.0384 41.682C48.7677 41.514 48.5391 41.2993 48.3524 41.038C48.1657 40.7673 48.0724 40.4407 48.0724 40.058C48.0724 39.414 48.3151 38.8913 48.8004 38.49C49.2951 38.0887 49.9391 37.888 50.7324 37.888C51.2644 37.888 51.7311 37.9813 52.1324 38.168C52.5431 38.3453 52.8931 38.546 53.1824 38.77L52.2584 40.002C52.0157 39.8153 51.7731 39.6707 51.5304 39.568C51.2877 39.4653 51.0451 39.414 50.8024 39.414C50.2704 39.414 50.0044 39.596 50.0044 39.96C50.0044 40.184 50.1351 40.3567 50.3964 40.478C50.6671 40.59 50.9797 40.7113 51.3344 40.842C51.6331 40.9447 51.9224 41.08 52.2024 41.248C52.4917 41.4067 52.7297 41.6213 52.9164 41.892C53.1124 42.1533 53.2104 42.4987 53.2104 42.928C53.2104 43.5533 52.9677 44.0853 52.4824 44.524C51.9971 44.9533 51.2877 45.168 50.3544 45.168ZM55.7074 40.632C55.3528 40.632 55.0541 40.5107 54.8114 40.268C54.5781 40.016 54.4614 39.708 54.4614 39.344C54.4614 38.9707 54.5781 38.6627 54.8114 38.42C55.0541 38.168 55.3528 38.042 55.7074 38.042C56.0621 38.042 56.3561 38.168 56.5894 38.42C56.8321 38.6627 56.9534 38.9707 56.9534 39.344C56.9534 39.708 56.8321 40.016 56.5894 40.268C56.3561 40.5107 56.0621 40.632 55.7074 40.632ZM55.7074 45.168C55.3528 45.168 55.0541 45.0467 54.8114 44.804C54.5781 44.552 54.4614 44.244 54.4614 43.88C54.4614 43.5067 54.5781 43.1987 54.8114 42.956C55.0541 42.704 55.3528 42.578 55.7074 42.578C56.0621 42.578 56.3561 42.704 56.5894 42.956C56.8321 43.1987 56.9534 43.5067 56.9534 43.88C56.9534 44.244 56.8321 44.552 56.5894 44.804C56.3561 45.0467 56.0621 45.168 55.7074 45.168ZM57.9867 47.24L60.8007 35.06H62.1447L59.3307 47.24H57.9867ZM62.7308 47.24L65.5448 35.06H66.8888L64.0748 47.24H62.7308ZM69.365 45L67.629 38.056H69.673L70.345 41.276C70.401 41.6213 70.4523 41.962 70.499 42.298C70.5456 42.634 70.597 42.9793 70.653 43.334H70.709C70.7743 42.9793 70.835 42.6293 70.891 42.284C70.9563 41.9387 71.031 41.6027 71.115 41.276L71.885 38.056H73.663L74.447 41.276C74.531 41.6213 74.6056 41.962 74.671 42.298C74.7456 42.634 74.8156 42.9793 74.881 43.334H74.937C75.0023 42.9793 75.0536 42.634 75.091 42.298C75.1376 41.962 75.1936 41.6213 75.259 41.276L75.917 38.056H77.821L76.155 45H73.747L73.117 42.228C73.0516 41.9013 72.9863 41.5747 72.921 41.248C72.865 40.9213 72.8043 40.5713 72.739 40.198H72.683C72.6176 40.5713 72.557 40.9213 72.501 41.248C72.4543 41.5747 72.3983 41.9013 72.333 42.228L71.717 45H69.365ZM80.2341 45L78.4981 38.056H80.5421L81.2141 41.276C81.2701 41.6213 81.3214 41.962 81.3681 42.298C81.4148 42.634 81.4661 42.9793 81.5221 43.334H81.5781C81.6434 42.9793 81.7041 42.6293 81.7601 42.284C81.8254 41.9387 81.9001 41.6027 81.9841 41.276L82.7541 38.056H84.5321L85.3161 41.276C85.4001 41.6213 85.4748 41.962 85.5401 42.298C85.6148 42.634 85.6848 42.9793 85.7501 43.334H85.8061C85.8714 42.9793 85.9228 42.634 85.9601 42.298C86.0068 41.962 86.0628 41.6213 86.1281 41.276L86.7861 38.056H88.6901L87.0241 45H84.6161L83.9861 42.228C83.9208 41.9013 83.8554 41.5747 83.7901 41.248C83.7341 40.9213 83.6734 40.5713 83.6081 40.198H83.5521C83.4868 40.5713 83.4261 40.9213 83.3701 41.248C83.3234 41.5747 83.2674 41.9013 83.2021 42.228L82.5861 45H80.2341ZM91.1033 45L89.3673 38.056H91.4113L92.0833 41.276C92.1393 41.6213 92.1906 41.962 92.2373 42.298C92.2839 42.634 92.3353 42.9793 92.3913 43.334H92.4473C92.5126 42.9793 92.5733 42.6293 92.6292 42.284C92.6946 41.9387 92.7692 41.6027 92.8533 41.276L93.6233 38.056H95.4013L96.1853 41.276C96.2693 41.6213 96.3439 41.962 96.4093 42.298C96.4839 42.634 96.5539 42.9793 96.6193 43.334H96.6753C96.7406 42.9793 96.7919 42.634 96.8293 42.298C96.8759 41.962 96.9319 41.6213 96.9973 41.276L97.6553 38.056H99.5593L97.8933 45H95.4853L94.8553 42.228C94.7899 41.9013 94.7246 41.5747 94.6593 41.248C94.6033 40.9213 94.5426 40.5713 94.4773 40.198H94.4213C94.3559 40.5713 94.2953 40.9213 94.2393 41.248C94.1926 41.5747 94.1366 41.9013 94.0713 42.228L93.4553 45H91.1033ZM100.838 45.168C100.484 45.168 100.185 45.0467 99.9423 44.804C99.7089 44.552 99.5923 44.244 99.5923 43.88C99.5923 43.5067 99.7089 43.1987 99.9423 42.956C100.185 42.704 100.484 42.578 100.838 42.578C101.193 42.578 101.487 42.704 101.72 42.956C101.963 43.1987 102.084 43.5067 102.084 43.88C102.084 44.244 101.963 44.552 101.72 44.804C101.487 45.0467 101.193 45.168 100.838 45.168ZM103.846 45V38.056H105.904V45H103.846ZM104.868 37.034C104.522 37.034 104.242 36.936 104.028 36.74C103.813 36.544 103.706 36.2827 103.706 35.956C103.706 35.6293 103.813 35.368 104.028 35.172C104.242 34.976 104.522 34.878 104.868 34.878C105.213 34.878 105.493 34.976 105.708 35.172C105.922 35.368 106.03 35.6293 106.03 35.956C106.03 36.2827 105.922 36.544 105.708 36.74C105.493 36.936 105.213 37.034 104.868 37.034ZM107.715 45V38.056H109.395L109.535 38.938H109.591C109.889 38.658 110.216 38.4153 110.571 38.21C110.935 37.9953 111.35 37.888 111.817 37.888C112.573 37.888 113.119 38.14 113.455 38.644C113.8 39.1387 113.973 39.82 113.973 40.688V45H111.915V40.954C111.915 40.45 111.845 40.1047 111.705 39.918C111.574 39.7313 111.359 39.638 111.061 39.638C110.799 39.638 110.575 39.6987 110.389 39.82C110.202 39.932 109.997 40.0953 109.773 40.31V45H107.715ZM117.77 45.168C117.313 45.168 116.842 45.0793 116.356 44.902C115.88 44.7247 115.465 44.4913 115.11 44.202L116.034 42.914C116.352 43.1473 116.655 43.3293 116.944 43.46C117.243 43.5813 117.537 43.642 117.826 43.642C118.134 43.642 118.358 43.5907 118.498 43.488C118.638 43.376 118.708 43.2313 118.708 43.054C118.708 42.8953 118.638 42.7647 118.498 42.662C118.368 42.5593 118.195 42.466 117.98 42.382C117.766 42.2887 117.537 42.1953 117.294 42.102C117.014 41.99 116.734 41.85 116.454 41.682C116.184 41.514 115.955 41.2993 115.768 41.038C115.582 40.7673 115.488 40.4407 115.488 40.058C115.488 39.414 115.731 38.8913 116.216 38.49C116.711 38.0887 117.355 37.888 118.148 37.888C118.68 37.888 119.147 37.9813 119.548 38.168C119.959 38.3453 120.309 38.546 120.598 38.77L119.674 40.002C119.432 39.8153 119.189 39.6707 118.946 39.568C118.704 39.4653 118.461 39.414 118.218 39.414C117.686 39.414 117.42 39.596 117.42 39.96C117.42 40.184 117.551 40.3567 117.812 40.478C118.083 40.59 118.396 40.7113 118.75 40.842C119.049 40.9447 119.338 41.08 119.618 41.248C119.908 41.4067 120.146 41.6213 120.332 41.892C120.528 42.1533 120.626 42.4987 120.626 42.928C120.626 43.5533 120.384 44.0853 119.898 44.524C119.413 44.9533 118.704 45.168 117.77 45.168ZM124.334 45.168C123.475 45.168 122.859 44.9207 122.486 44.426C122.122 43.9313 121.94 43.2827 121.94 42.48V39.666H120.988V38.14L122.052 38.056L122.29 36.208H123.998V38.056H125.664V39.666H123.998V42.452C123.998 42.844 124.077 43.1287 124.236 43.306C124.404 43.474 124.623 43.558 124.894 43.558C125.006 43.558 125.118 43.544 125.23 43.516C125.351 43.488 125.459 43.4553 125.552 43.418L125.874 44.916C125.697 44.972 125.477 45.028 125.216 45.084C124.964 45.14 124.67 45.168 124.334 45.168ZM128.496 45.168C127.861 45.168 127.357 44.9673 126.984 44.566C126.611 44.1553 126.424 43.656 126.424 43.068C126.424 42.34 126.732 41.7707 127.348 41.36C127.964 40.9493 128.958 40.674 130.33 40.534C130.311 40.226 130.218 39.9833 130.05 39.806C129.891 39.6193 129.621 39.526 129.238 39.526C128.949 39.526 128.655 39.582 128.356 39.694C128.057 39.806 127.74 39.96 127.404 40.156L126.662 38.798C127.101 38.5273 127.567 38.308 128.062 38.14C128.566 37.972 129.089 37.888 129.63 37.888C130.517 37.888 131.198 38.1447 131.674 38.658C132.15 39.1713 132.388 39.96 132.388 41.024V45H130.708L130.568 44.286H130.512C130.223 44.5473 129.91 44.762 129.574 44.93C129.247 45.0887 128.888 45.168 128.496 45.168ZM129.196 43.572C129.429 43.572 129.63 43.5207 129.798 43.418C129.975 43.306 130.153 43.1613 130.33 42.984V41.766C129.602 41.8593 129.098 42.0087 128.818 42.214C128.538 42.41 128.398 42.6433 128.398 42.914C128.398 43.138 128.468 43.306 128.608 43.418C128.757 43.5207 128.953 43.572 129.196 43.572ZM136.607 47.954C136.065 47.954 135.575 47.8933 135.137 47.772C134.698 47.6507 134.348 47.4593 134.087 47.198C133.825 46.9367 133.695 46.6007 133.695 46.19C133.695 45.63 134.026 45.1633 134.689 44.79V44.734C134.511 44.6127 134.357 44.4587 134.227 44.272C134.105 44.0853 134.045 43.8473 134.045 43.558C134.045 43.306 134.119 43.0633 134.269 42.83C134.418 42.5967 134.605 42.4053 134.829 42.256V42.2C134.586 42.032 134.367 41.7893 134.171 41.472C133.984 41.1547 133.891 40.7953 133.891 40.394C133.891 39.834 134.026 39.372 134.297 39.008C134.567 38.6347 134.922 38.3547 135.361 38.168C135.799 37.9813 136.266 37.888 136.761 37.888C137.171 37.888 137.531 37.944 137.839 38.056H140.373V39.554H139.267C139.332 39.6567 139.383 39.7873 139.421 39.946C139.467 40.1047 139.491 40.2773 139.491 40.464C139.491 40.996 139.369 41.4347 139.127 41.78C138.884 42.1253 138.557 42.382 138.147 42.55C137.736 42.718 137.274 42.802 136.761 42.802C136.49 42.802 136.21 42.7553 135.921 42.662C135.753 42.802 135.669 42.9747 135.669 43.18C135.669 43.3573 135.748 43.488 135.907 43.572C136.065 43.656 136.336 43.698 136.719 43.698H137.839C138.697 43.698 139.351 43.838 139.799 44.118C140.256 44.3887 140.485 44.8367 140.485 45.462C140.485 45.938 140.326 46.3627 140.009 46.736C139.691 47.1187 139.243 47.4173 138.665 47.632C138.086 47.8467 137.4 47.954 136.607 47.954ZM136.761 41.556C137.031 41.556 137.255 41.458 137.433 41.262C137.619 41.066 137.713 40.7767 137.713 40.394C137.713 40.03 137.619 39.7547 137.433 39.568C137.255 39.372 137.031 39.274 136.761 39.274C136.49 39.274 136.261 39.3673 136.075 39.554C135.897 39.7407 135.809 40.0207 135.809 40.394C135.809 40.7767 135.897 41.066 136.075 41.262C136.261 41.458 136.49 41.556 136.761 41.556ZM136.929 46.666C137.395 46.666 137.778 46.582 138.077 46.414C138.375 46.246 138.525 46.0453 138.525 45.812C138.525 45.5973 138.431 45.4527 138.245 45.378C138.067 45.3033 137.806 45.266 137.461 45.266H136.747C136.513 45.266 136.317 45.2567 136.159 45.238C136.009 45.2287 135.879 45.21 135.767 45.182C135.515 45.406 135.389 45.6347 135.389 45.868C135.389 46.1293 135.529 46.3253 135.809 46.456C136.098 46.596 136.471 46.666 136.929 46.666ZM141.607 45V38.056H143.287L143.427 39.274H143.483C143.735 38.8073 144.039 38.462 144.393 38.238C144.748 38.0047 145.103 37.888 145.457 37.888C145.653 37.888 145.817 37.902 145.947 37.93C146.078 37.9487 146.19 37.9813 146.283 38.028L145.947 39.806C145.826 39.7687 145.705 39.7407 145.583 39.722C145.471 39.7033 145.341 39.694 145.191 39.694C144.93 39.694 144.655 39.792 144.365 39.988C144.085 40.1747 143.852 40.5013 143.665 40.968V45H141.607ZM148.539 45.168C147.904 45.168 147.4 44.9673 147.027 44.566C146.654 44.1553 146.467 43.656 146.467 43.068C146.467 42.34 146.775 41.7707 147.391 41.36C148.007 40.9493 149.001 40.674 150.373 40.534C150.354 40.226 150.261 39.9833 150.093 39.806C149.934 39.6193 149.664 39.526 149.281 39.526C148.992 39.526 148.698 39.582 148.399 39.694C148.1 39.806 147.783 39.96 147.447 40.156L146.705 38.798C147.144 38.5273 147.61 38.308 148.105 38.14C148.609 37.972 149.132 37.888 149.673 37.888C150.56 37.888 151.241 38.1447 151.717 38.658C152.193 39.1713 152.431 39.96 152.431 41.024V45H150.751L150.611 44.286H150.555C150.266 44.5473 149.953 44.762 149.617 44.93C149.29 45.0887 148.931 45.168 148.539 45.168ZM149.239 43.572C149.472 43.572 149.673 43.5207 149.841 43.418C150.018 43.306 150.196 43.1613 150.373 42.984V41.766C149.645 41.8593 149.141 42.0087 148.861 42.214C148.581 42.41 148.441 42.6433 148.441 42.914C148.441 43.138 148.511 43.306 148.651 43.418C148.8 43.5207 148.996 43.572 149.239 43.572ZM154.172 45V38.056H155.852L155.992 38.952H156.048C156.337 38.6627 156.645 38.4153 156.972 38.21C157.298 37.9953 157.69 37.888 158.148 37.888C158.642 37.888 159.039 37.9907 159.338 38.196C159.646 38.392 159.888 38.6767 160.066 39.05C160.374 38.7327 160.7 38.462 161.046 38.238C161.391 38.0047 161.792 37.888 162.25 37.888C162.996 37.888 163.542 38.14 163.888 38.644C164.242 39.1387 164.42 39.82 164.42 40.688V45H162.362V40.954C162.362 40.45 162.292 40.1047 162.152 39.918C162.021 39.7313 161.806 39.638 161.508 39.638C161.162 39.638 160.766 39.862 160.318 40.31V45H158.26V40.954C158.26 40.45 158.19 40.1047 158.05 39.918C157.919 39.7313 157.704 39.638 157.406 39.638C157.06 39.638 156.668 39.862 156.23 40.31V45H154.172ZM167.366 45.168C167.011 45.168 166.712 45.0467 166.47 44.804C166.236 44.552 166.12 44.244 166.12 43.88C166.12 43.5067 166.236 43.1987 166.47 42.956C166.712 42.704 167.011 42.578 167.366 42.578C167.72 42.578 168.014 42.704 168.248 42.956C168.49 43.1987 168.612 43.5067 168.612 43.88C168.612 44.244 168.49 44.552 168.248 44.804C168.014 45.0467 167.72 45.168 167.366 45.168ZM173.26 45.168C172.616 45.168 172.033 45.028 171.51 44.748C170.997 44.4587 170.586 44.0433 170.278 43.502C169.98 42.9513 169.83 42.2933 169.83 41.528C169.83 40.7533 169.998 40.0953 170.334 39.554C170.67 39.0127 171.114 38.602 171.664 38.322C172.215 38.0327 172.808 37.888 173.442 37.888C173.872 37.888 174.25 37.958 174.576 38.098C174.912 38.238 175.211 38.4153 175.472 38.63L174.506 39.96C174.18 39.6893 173.867 39.554 173.568 39.554C173.074 39.554 172.677 39.7313 172.378 40.086C172.089 40.4407 171.944 40.9213 171.944 41.528C171.944 42.1253 172.089 42.606 172.378 42.97C172.677 43.3247 173.05 43.502 173.498 43.502C173.722 43.502 173.942 43.4553 174.156 43.362C174.371 43.2593 174.567 43.138 174.744 42.998L175.556 44.342C175.211 44.6407 174.838 44.8553 174.436 44.986C174.035 45.1073 173.643 45.168 173.26 45.168ZM179.357 45.168C178.769 45.168 178.214 45.028 177.691 44.748C177.178 44.4587 176.762 44.0433 176.445 43.502C176.128 42.9513 175.969 42.2933 175.969 41.528C175.969 40.7533 176.128 40.0953 176.445 39.554C176.762 39.0127 177.178 38.602 177.691 38.322C178.214 38.0327 178.769 37.888 179.357 37.888C179.945 37.888 180.496 38.0327 181.009 38.322C181.522 38.602 181.938 39.0127 182.255 39.554C182.572 40.0953 182.731 40.7533 182.731 41.528C182.731 42.2933 182.572 42.9513 182.255 43.502C181.938 44.0433 181.522 44.4587 181.009 44.748C180.496 45.028 179.945 45.168 179.357 45.168ZM179.357 43.502C179.777 43.502 180.094 43.3247 180.309 42.97C180.524 42.606 180.631 42.1253 180.631 41.528C180.631 40.9213 180.524 40.4407 180.309 40.086C180.094 39.7313 179.777 39.554 179.357 39.554C178.928 39.554 178.606 39.7313 178.391 40.086C178.186 40.4407 178.083 40.9213 178.083 41.528C178.083 42.1253 178.186 42.606 178.391 42.97C178.606 43.3247 178.928 43.502 179.357 43.502ZM184.14 45V38.056H185.82L185.96 38.952H186.016C186.306 38.6627 186.614 38.4153 186.94 38.21C187.267 37.9953 187.659 37.888 188.116 37.888C188.611 37.888 189.008 37.9907 189.306 38.196C189.614 38.392 189.857 38.6767 190.034 39.05C190.342 38.7327 190.669 38.462 191.014 38.238C191.36 38.0047 191.761 37.888 192.218 37.888C192.965 37.888 193.511 38.14 193.856 38.644C194.211 39.1387 194.388 39.82 194.388 40.688V45H192.33V40.954C192.33 40.45 192.26 40.1047 192.12 39.918C191.99 39.7313 191.775 39.638 191.476 39.638C191.131 39.638 190.734 39.862 190.286 40.31V45H188.228V40.954C188.228 40.45 188.158 40.1047 188.018 39.918C187.888 39.7313 187.673 39.638 187.374 39.638C187.029 39.638 186.637 39.862 186.198 40.31V45H184.14ZM195.416 47.24L198.23 35.06H199.574L196.76 47.24H195.416ZM202.079 45.168C201.724 45.168 201.425 45.0467 201.183 44.804C200.949 44.552 200.833 44.244 200.833 43.88C200.833 43.5067 200.949 43.1987 201.183 42.956C201.425 42.704 201.724 42.578 202.079 42.578C202.433 42.578 202.727 42.704 202.961 42.956C203.203 43.1987 203.325 43.5067 203.325 43.88C203.325 44.244 203.203 44.552 202.961 44.804C202.727 45.0467 202.433 45.168 202.079 45.168ZM206.276 45.168C205.921 45.168 205.622 45.0467 205.38 44.804C205.146 44.552 205.03 44.244 205.03 43.88C205.03 43.5067 205.146 43.1987 205.38 42.956C205.622 42.704 205.921 42.578 206.276 42.578C206.63 42.578 206.924 42.704 207.158 42.956C207.4 43.1987 207.522 43.5067 207.522 43.88C207.522 44.244 207.4 44.552 207.158 44.804C206.924 45.0467 206.63 45.168 206.276 45.168ZM210.473 45.168C210.118 45.168 209.82 45.0467 209.577 44.804C209.344 44.552 209.227 44.244 209.227 43.88C209.227 43.5067 209.344 43.1987 209.577 42.956C209.82 42.704 210.118 42.578 210.473 42.578C210.828 42.578 211.122 42.704 211.355 42.956C211.598 43.1987 211.719 43.5067 211.719 43.88C211.719 44.244 211.598 44.552 211.355 44.804C211.122 45.0467 210.828 45.168 210.473 45.168Z" fill="#D7DDE5"/>
<defs>
<filter id="filter0_dd_1045_2026" x="89.9" y="24.9" width="108.197" height="108.2" filterUnits="userSpaceOnUse" color-interpolation-filters="sRGB">
<feFlood flood-opacity="0" result="BackgroundImageFix"/>
<feColorMatrix in="SourceAlpha" type="matrix" values="0 0 0 0 0 0 0 0 0 0 0 0 0 0 0 0 0 0 127 0" result="hardAlpha"/>
<feOffset dx="5" dy="2"/>
<feGaussianBlur stdDeviation="20"/>
<feColorMatrix type="matrix" values="0 0 0 0 0 0 0 0 0 0.460526 0 0 0 0 1 0 0 0 0.66 0"/>
<feBlend mode="normal" in2="BackgroundImageFix" result="effect1_dropShadow_1045_2026"/>
<feColorMatrix in="SourceAlpha" type="matrix" values="0 0 0 0 0 0 0 0 0 0 0 0 0 0 0 0 0 0 127 0" result="hardAlpha"/>
<feOffset dx="5" dy="5"/>
<feGaussianBlur stdDeviation="5"/>
<feColorMatrix type="matrix" values="0 0 0 0 0.383333 0 0 0 0 0.360972 0 0 0 0 0.360972 0 0 0 0.08 0"/>
<feBlend mode="normal" in2="effect1_dropShadow_1045_2026" result="effect2_dropShadow_1045_2026"/>
<feBlend mode="normal" in="SourceGraphic" in2="effect2_dropShadow_1045_2026" result="shape"/>
</filter>
<linearGradient id="paint0_linear_1045_2026" x1="207.187" y1="42.5" x2="180.106" y2="42.2815" gradientUnits="userSpaceOnUse">
<stop stop-color="white"/>
<stop offset="1" stop-color="white" stop-opacity="0"/>
</linearGradient>
</defs>
</svg>
