<svg width="230" height="184" viewBox="0 0 230 184" fill="none" xmlns="http://www.w3.org/2000/svg">
<rect x="1" y="1" width="228" height="182" rx="4" fill="white" stroke="#D8DEE5" stroke-width="2"/>
<path fill-rule="evenodd" clip-rule="evenodd" d="M230 62.9062H0V60.9404H230V62.9062Z" fill="#D8DEE5"/>
<path fill-rule="evenodd" clip-rule="evenodd" d="M205.795 38.0452C206.179 38.4291 206.179 39.0514 205.795 39.4353L201.943 43.2874C201.559 43.6712 200.936 43.6712 200.553 43.2874C200.169 42.9035 200.169 42.2812 200.553 41.8973L204.405 38.0452C204.789 37.6614 205.411 37.6614 205.795 38.0452Z" fill="white"/>
<path fill-rule="evenodd" clip-rule="evenodd" d="M205.874 43.2874C205.49 43.6713 204.868 43.6713 204.484 43.2874L200.632 39.4353C200.248 39.0514 200.248 38.4291 200.632 38.0452C201.016 37.6614 201.638 37.6614 202.022 38.0452L205.874 41.8974C206.258 42.2812 206.258 42.9036 205.874 43.2874Z" fill="white"/>
<path fill-rule="evenodd" clip-rule="evenodd" d="M214.547 31.4531H18.6211C18.2592 31.4531 17.9658 31.7465 17.9658 32.1084V49.8007C17.9658 50.1626 18.2592 50.456 18.6211 50.456H214.547C214.909 50.456 215.202 50.1626 215.202 49.8007V32.1084C215.202 31.7465 214.909 31.4531 214.547 31.4531ZM18.6211 29.4873C17.1735 29.4873 16 30.6608 16 32.1084V49.8007C16 51.2483 17.1735 52.4218 18.6211 52.4218H214.547C215.995 52.4218 217.168 51.2483 217.168 49.8007V32.1084C217.168 30.6608 215.995 29.4873 214.547 29.4873H18.6211Z" fill="#D8DEE5"/>
<rect x="190" y="32" width="25" height="18" fill="url(#paint0_linear_1045_1875)"/>
<path d="M22.2793 15.0713C22.2793 16.8808 20.8124 18.3476 19.0029 18.3476C17.1934 18.3476 15.7266 16.8808 15.7266 15.0713C15.7266 13.2618 17.1934 11.7949 19.0029 11.7949C20.8124 11.7949 22.2793 13.2618 22.2793 15.0713Z" fill="#D8DEE5"/>
<path d="M32.7634 15.0713C32.7634 16.8808 31.2965 18.3476 29.487 18.3476C27.6776 18.3476 26.2107 16.8808 26.2107 15.0713C26.2107 13.2618 27.6776 11.7949 29.487 11.7949C31.2965 11.7949 32.7634 13.2618 32.7634 15.0713Z" fill="#D8DEE5"/>
<path fill-rule="evenodd" clip-rule="evenodd" d="M39.9714 17.0371C41.0571 17.0371 41.9372 16.157 41.9372 15.0713C41.9372 13.9856 41.0571 13.1055 39.9714 13.1055C38.8857 13.1055 38.0056 13.9856 38.0056 15.0713C38.0056 16.157 38.8857 17.0371 39.9714 17.0371ZM39.9714 18.3476C41.7809 18.3476 43.2478 16.8808 43.2478 15.0713C43.2478 13.2618 41.7809 11.7949 39.9714 11.7949C38.1619 11.7949 36.6951 13.2618 36.6951 15.0713C36.6951 16.8808 38.1619 18.3476 39.9714 18.3476Z" fill="#D8DEE5"/>
<path opacity="0.2" d="M15.7266 77.3218C15.7266 75.5123 17.1934 74.0454 19.0029 74.0454H53.1926C55.0021 74.0454 56.469 75.5123 56.469 77.3218V111.396C56.469 113.205 55.0021 114.672 53.1926 114.672H19.0029C17.1934 114.672 15.7266 113.205 15.7266 111.396V77.3218Z" fill="#B8C3D2"/>
<path opacity="0.2" d="M69.4585 77.3218C69.4585 75.5123 70.9254 74.0454 72.7348 74.0454H106.925C108.734 74.0454 110.201 75.5123 110.201 77.3218V111.396C110.201 113.205 108.734 114.672 106.925 114.672H72.7348C70.9254 114.672 69.4585 113.205 69.4585 111.396V77.3218Z" fill="#B8C3D2"/>
<path opacity="0.2" d="M122.536 77.3218C122.536 75.5123 124.003 74.0454 125.812 74.0454H160.002C161.811 74.0454 163.278 75.5123 163.278 77.3218V111.396C163.278 113.205 161.811 114.672 160.002 114.672H125.812C124.003 114.672 122.536 113.205 122.536 111.396V77.3218Z" fill="#B8C3D2"/>
<path opacity="0.2" d="M176.268 77.3218C176.268 75.5123 177.735 74.0454 179.544 74.0454H213.734C215.543 74.0454 217.01 75.5123 217.01 77.3218V111.396C217.01 113.205 215.543 114.672 213.734 114.672H179.544C177.735 114.672 176.268 113.205 176.268 111.396V77.3218Z" fill="#B8C3D2"/>
<path opacity="0.2" d="M15.7266 129.088C15.7266 127.279 17.1934 125.812 19.0029 125.812H53.1926C55.0021 125.812 56.469 127.279 56.469 129.088V163.162C56.469 164.972 55.0021 166.439 53.1926 166.439H19.0029C17.1934 166.439 15.7266 164.972 15.7266 163.162V129.088Z" fill="#B8C3D2"/>
<path opacity="0.2" d="M69.4585 129.088C69.4585 127.279 70.9254 125.812 72.7348 125.812H106.925C108.734 125.812 110.201 127.279 110.201 129.088V163.162C110.201 164.972 108.734 166.439 106.925 166.439H72.7348C70.9254 166.439 69.4585 164.972 69.4585 163.162V129.088Z" fill="#B8C3D2"/>
<path opacity="0.2" d="M122.536 129.088C122.536 127.279 124.003 125.812 125.812 125.812H160.002C161.811 125.812 163.278 127.279 163.278 129.088V163.162C163.278 164.972 161.811 166.439 160.002 166.439H125.812C124.003 166.439 122.536 164.972 122.536 163.162V129.088Z" fill="#B8C3D2"/>
<path fill-rule="evenodd" clip-rule="evenodd" d="M122.571 57.0003C122.034 57.0003 121.52 56.7844 121.144 56.4012L118.251 53.4545C117.467 52.6558 116.181 52.6558 115.397 53.4545L112.505 56.4012C112.128 56.7844 111.614 57.0003 111.077 57.0003H99.1111C96.8406 57.0003 95 58.8409 95 61.1114V72.8891C95 75.1596 96.8406 77.0003 99.1111 77.0003H133.889C136.159 77.0003 138 75.1596 138 72.8891V61.1114C138 58.8409 136.159 57.0003 133.889 57.0003H122.571Z" fill="#79B5FC"/>
<path d="M107.74 64.1183C107.041 64.1183 106.489 64.3517 106.083 64.8185C105.68 65.2824 105.478 65.9189 105.478 66.7279C105.478 67.56 105.672 68.2037 106.061 68.659C106.452 69.1113 107.009 69.3375 107.731 69.3375C108.175 69.3375 108.681 69.2577 109.249 69.0983V69.7463C108.808 69.9116 108.265 69.9942 107.618 69.9942C106.681 69.9942 105.958 69.7101 105.448 69.1417C104.94 68.5734 104.687 67.7659 104.687 66.7192C104.687 66.0639 104.808 65.4898 105.052 64.9968C105.298 64.5039 105.652 64.1241 106.113 63.8573C106.577 63.5906 107.122 63.4572 107.748 63.4572C108.415 63.4572 108.998 63.579 109.497 63.8225L109.184 64.4575C108.702 64.2314 108.221 64.1183 107.74 64.1183ZM114.642 67.5194C114.642 68.2965 114.446 68.904 114.055 69.3418C113.664 69.7767 113.123 69.9942 112.433 69.9942C112.006 69.9942 111.628 69.8942 111.297 69.6941C110.967 69.494 110.712 69.207 110.532 68.8329C110.352 68.4589 110.262 68.0211 110.262 67.5194C110.262 66.7424 110.457 66.1378 110.845 65.7058C111.234 65.2709 111.773 65.0534 112.463 65.0534C113.13 65.0534 113.659 65.2752 114.051 65.7188C114.445 66.1625 114.642 66.7627 114.642 67.5194ZM111.01 67.5194C111.01 68.1284 111.132 68.5923 111.376 68.9112C111.619 69.2302 111.977 69.3897 112.45 69.3897C112.923 69.3897 113.281 69.2316 113.524 68.9156C113.771 68.5966 113.894 68.1313 113.894 67.5194C113.894 66.9134 113.771 66.4539 113.524 66.1407C113.281 65.8247 112.92 65.6666 112.441 65.6666C111.969 65.6666 111.612 65.8218 111.371 66.132C111.131 66.4423 111.01 66.9047 111.01 67.5194ZM118.13 69.9942C117.82 69.9942 117.536 69.9377 117.278 69.8246C117.023 69.7086 116.808 69.5317 116.634 69.294H116.582C116.617 69.5723 116.634 69.8362 116.634 70.0855V72.0471H115.912V65.1404H116.499L116.599 65.7928H116.634C116.82 65.5318 117.036 65.3433 117.282 65.2274C117.529 65.1114 117.811 65.0534 118.13 65.0534C118.762 65.0534 119.249 65.2694 119.592 65.7014C119.937 66.1335 120.109 66.7395 120.109 67.5194C120.109 68.3023 119.934 68.9112 119.583 69.3462C119.235 69.7782 118.751 69.9942 118.13 69.9942ZM118.026 65.6666C117.539 65.6666 117.186 65.8015 116.969 66.0711C116.752 66.3408 116.64 66.7699 116.634 67.3585V67.5194C116.634 68.1892 116.746 68.6691 116.969 68.9591C117.192 69.2461 117.55 69.3897 118.043 69.3897C118.455 69.3897 118.777 69.2229 119.009 68.8895C119.244 68.556 119.361 68.0965 119.361 67.5108C119.361 66.9163 119.244 66.4611 119.009 66.1451C118.777 65.8261 118.449 65.6666 118.026 65.6666ZM120.618 65.1404H121.392L122.436 67.8587C122.665 68.4792 122.807 68.9272 122.862 69.2026H122.897C122.935 69.0548 123.013 68.8025 123.132 68.4459C123.254 68.0863 123.648 66.9845 124.315 65.1404H125.089L123.041 70.5683C122.838 71.1047 122.6 71.4846 122.327 71.7078C122.058 71.934 121.726 72.0471 121.331 72.0471C121.111 72.0471 120.894 72.0224 120.679 71.9732V71.3947C120.838 71.4295 121.017 71.4469 121.214 71.4469C121.71 71.4469 122.064 71.1685 122.275 70.6118L122.54 69.9333L120.618 65.1404Z" fill="white"/>
<g filter="url(#filter0_dd_1045_1875)">
<path fill-rule="evenodd" clip-rule="evenodd" d="M134.259 67.8154C134.776 67.8154 135.195 67.3962 135.195 66.879V63.9364C135.195 63.4192 134.776 63 134.259 63C133.742 63 133.322 63.4192 133.322 63.9364V66.8791C133.322 67.3962 133.742 67.8154 134.259 67.8154ZM127.786 65.786C128.152 65.4205 128.745 65.4206 129.11 65.786L131.191 67.8667C131.556 68.2324 131.556 68.8252 131.191 69.1909C131.008 69.3737 130.768 69.4652 130.529 69.4652C130.289 69.4652 130.049 69.3737 129.866 69.1909L127.786 67.1103C127.42 66.7446 127.42 66.1517 127.786 65.786ZM147.151 81.1097L152.723 86.6821C153.089 87.0478 153.089 87.6406 152.723 88.0063L150.004 90.7257C149.829 90.9013 149.59 91 149.342 91C149.094 91 148.855 90.9013 148.68 90.7257L143.108 85.1533L140.812 89.1286C140.633 89.4394 140.292 89.6202 139.934 89.5942C139.576 89.5683 139.264 89.3403 139.131 89.0071L132.061 71.2782C131.923 70.9307 132.004 70.534 132.269 70.2693C132.534 70.0047 132.93 69.923 133.278 70.0618L151.005 77.133C151.338 77.2659 151.566 77.5774 151.592 77.9353C151.618 78.2931 151.437 78.6341 151.126 78.8135L147.151 81.1097ZM129.815 72.2593C129.815 71.7423 129.396 71.323 128.879 71.323H125.936C125.419 71.323 125 71.7422 125 72.2593C125 72.7764 125.419 73.1958 125.936 73.1958H128.879C129.396 73.1957 129.815 72.7764 129.815 72.2593ZM127.355 77.23L129.436 75.1493C129.802 74.7838 130.394 74.7838 130.76 75.1493C131.125 75.515 131.125 76.1079 130.76 76.4736L128.679 78.5542C128.496 78.737 128.256 78.8285 128.017 78.8285C127.777 78.8285 127.538 78.737 127.355 78.5542C126.989 78.1886 126.989 77.5957 127.355 77.23ZM138.472 68.76C138.29 68.9428 138.05 69.0342 137.81 69.0342C137.571 69.0342 137.331 68.9428 137.148 68.76C136.783 68.3944 136.783 67.8015 137.148 67.4358L139.229 65.3551C139.594 64.9896 140.187 64.9896 140.553 65.3551C140.919 65.7208 140.919 66.3137 140.553 66.6794L138.472 68.76Z" fill="white"/>
<path d="M129.11 65.786L129.181 65.7153L129.181 65.7153L129.11 65.786ZM127.786 65.786L127.715 65.7153L127.715 65.7153L127.786 65.786ZM131.191 67.8667L131.12 67.9374L131.12 67.9374L131.191 67.8667ZM131.191 69.1909L131.261 69.2616L131.191 69.1909ZM129.866 69.1909L129.796 69.2616L129.866 69.1909ZM127.786 67.1103L127.715 67.181L127.715 67.1811L127.786 67.1103ZM152.723 86.6821L152.652 86.7528V86.7528L152.723 86.6821ZM147.151 81.1097L147.101 81.0231L146.988 81.0883L147.08 81.1804L147.151 81.1097ZM152.723 88.0063L152.794 88.077L152.794 88.077L152.723 88.0063ZM150.004 90.7257L149.933 90.655L149.933 90.655L150.004 90.7257ZM148.68 90.7257L148.751 90.655L148.751 90.655L148.68 90.7257ZM143.108 85.1533L143.179 85.0826L143.087 84.9904L143.021 85.1033L143.108 85.1533ZM140.812 89.1286L140.725 89.0786L140.725 89.0786L140.812 89.1286ZM139.934 89.5942L139.941 89.4944L139.941 89.4944L139.934 89.5942ZM139.131 89.0071L139.039 89.0441L139.039 89.0442L139.131 89.0071ZM132.061 71.2782L132.154 71.2412L132.154 71.2411L132.061 71.2782ZM132.269 70.2693L132.198 70.1985L132.198 70.1986L132.269 70.2693ZM133.278 70.0618L133.241 70.1546L133.241 70.1546L133.278 70.0618ZM151.005 77.133L150.968 77.2259L150.968 77.2259L151.005 77.133ZM151.592 77.9353L151.492 77.9425V77.9425L151.592 77.9353ZM151.126 78.8135L151.076 78.7269L151.076 78.7269L151.126 78.8135ZM128.879 73.1958V73.2958H128.879L128.879 73.1958ZM129.436 75.1493L129.365 75.0785L129.365 75.0786L129.436 75.1493ZM127.355 77.23L127.284 77.1593L127.284 77.1593L127.355 77.23ZM130.76 75.1493L130.83 75.0786L130.83 75.0785L130.76 75.1493ZM130.76 76.4736L130.83 76.5443L130.83 76.5443L130.76 76.4736ZM128.679 78.5542L128.608 78.4835L128.608 78.4835L128.679 78.5542ZM127.355 78.5542L127.284 78.6249L127.284 78.625L127.355 78.5542ZM138.472 68.76L138.543 68.8307L138.543 68.8307L138.472 68.76ZM137.148 68.76L137.078 68.8307L137.078 68.8307L137.148 68.76ZM137.148 67.4358L137.219 67.5065L137.219 67.5065L137.148 67.4358ZM139.229 65.3551L139.158 65.2844L139.158 65.2844L139.229 65.3551ZM140.553 65.3551L140.624 65.2844L140.624 65.2844L140.553 65.3551ZM140.553 66.6794L140.482 66.6087L140.482 66.6087L140.553 66.6794ZM135.095 66.879C135.095 67.341 134.72 67.7154 134.259 67.7154V67.9154C134.831 67.9154 135.295 67.4514 135.295 66.879H135.095ZM135.095 63.9364V66.879H135.295V63.9364H135.095ZM134.259 63.1C134.721 63.1 135.095 63.4745 135.095 63.9364H135.295C135.295 63.364 134.831 62.9 134.259 62.9V63.1ZM133.422 63.9364C133.422 63.4744 133.797 63.1 134.259 63.1V62.9C133.686 62.9 133.222 63.3639 133.222 63.9364H133.422ZM133.422 66.8791V63.9364H133.222V66.8791H133.422ZM134.259 67.7154C133.797 67.7154 133.422 67.341 133.422 66.8791H133.222C133.222 67.4514 133.686 67.9154 134.259 67.9154V67.7154ZM129.181 65.7153C128.776 65.3109 128.12 65.3108 127.715 65.7153L127.857 65.8568C128.183 65.5303 128.713 65.5304 129.04 65.8568L129.181 65.7153ZM131.261 67.796L129.181 65.7153L129.04 65.8567L131.12 67.9374L131.261 67.796ZM131.261 69.2616C131.666 68.8569 131.666 68.2008 131.261 67.796L131.12 67.9374C131.447 68.2641 131.447 68.7936 131.12 69.1202L131.261 69.2616ZM130.529 69.5652C130.794 69.5652 131.059 69.4639 131.261 69.2616L131.12 69.1202C130.957 69.2835 130.743 69.3652 130.529 69.3652V69.5652ZM129.796 69.2616C129.998 69.4639 130.263 69.5652 130.529 69.5652V69.3652C130.314 69.3652 130.101 69.2835 129.937 69.1202L129.796 69.2616ZM127.715 67.1811L129.796 69.2616L129.937 69.1202L127.857 67.0396L127.715 67.1811ZM127.715 65.7153C127.311 66.1201 127.311 66.7763 127.715 67.181L127.857 67.0396C127.53 66.713 127.53 66.1834 127.857 65.8567L127.715 65.7153ZM152.794 86.6114L147.222 81.039L147.08 81.1804L152.652 86.7528L152.794 86.6114ZM152.794 88.077C153.198 87.6722 153.198 87.0161 152.794 86.6114L152.652 86.7528C152.979 87.0794 152.979 87.6089 152.652 87.9356L152.794 88.077ZM150.075 90.7964L152.794 88.077L152.652 87.9356L149.933 90.655L150.075 90.7964ZM149.342 91.1C149.617 91.1 149.881 90.9907 150.075 90.7964L149.933 90.655C149.777 90.8118 149.564 90.9 149.342 90.9V91.1ZM148.609 90.7964C148.803 90.9908 149.067 91.1 149.342 91.1V90.9C149.12 90.9 148.907 90.8118 148.751 90.655L148.609 90.7964ZM143.037 85.224L148.609 90.7964L148.751 90.655L143.179 85.0826L143.037 85.224ZM140.899 89.1786L143.195 85.2033L143.021 85.1033L140.725 89.0786L140.899 89.1786ZM139.927 89.6939C140.323 89.7227 140.7 89.5225 140.899 89.1786L140.725 89.0786C140.565 89.3562 140.261 89.5177 139.941 89.4944L139.927 89.6939ZM139.039 89.0442C139.186 89.4129 139.531 89.6653 139.927 89.6939L139.941 89.4944C139.621 89.4713 139.343 89.2676 139.224 88.97L139.039 89.0442ZM131.968 71.3152L139.039 89.0441L139.224 88.9701L132.154 71.2412L131.968 71.3152ZM132.198 70.1986C131.905 70.4915 131.815 70.9306 131.968 71.3153L132.154 71.2411C132.03 70.9308 132.103 70.5764 132.34 70.34L132.198 70.1986ZM133.315 69.9689C132.93 69.8153 132.491 69.9058 132.198 70.1985L132.34 70.34C132.576 70.1037 132.93 70.0307 133.241 70.1546L133.315 69.9689ZM151.042 77.0401L133.315 69.9689L133.241 70.1546L150.968 77.2259L151.042 77.0401ZM151.691 77.9281C151.663 77.532 151.411 77.1872 151.042 77.0401L150.968 77.2259C151.265 77.3446 151.469 77.6228 151.492 77.9425L151.691 77.9281ZM151.176 78.9001C151.52 78.7015 151.72 78.3241 151.691 77.9281L151.492 77.9425C151.515 78.2621 151.354 78.5667 151.076 78.7269L151.176 78.9001ZM147.201 81.1963L151.176 78.9001L151.076 78.7269L147.101 81.0231L147.201 81.1963ZM128.879 71.423C129.341 71.423 129.715 71.7976 129.715 72.2593H129.915C129.915 71.6871 129.451 71.223 128.879 71.223V71.423ZM125.936 71.423H128.879V71.223H125.936V71.423ZM125.1 72.2593C125.1 71.7975 125.475 71.423 125.936 71.423V71.223C125.364 71.223 124.9 71.687 124.9 72.2593H125.1ZM125.936 73.0958C125.474 73.0958 125.1 72.7212 125.1 72.2593H124.9C124.9 72.8317 125.364 73.2958 125.936 73.2958V73.0958ZM128.879 73.0958H125.936V73.2958H128.879V73.0958ZM129.715 72.2593C129.715 72.7212 129.341 73.0957 128.879 73.0958L128.879 73.2958C129.451 73.2957 129.915 72.8317 129.915 72.2593H129.715ZM129.365 75.0786L127.284 77.1593L127.425 77.3007L129.506 75.22L129.365 75.0786ZM130.83 75.0785C130.426 74.6741 129.77 74.674 129.365 75.0785L129.506 75.22C129.833 74.8935 130.362 74.8936 130.689 75.22L130.83 75.0785ZM130.83 76.5443C131.235 76.1395 131.235 75.4833 130.83 75.0786L130.689 75.22C131.016 75.5466 131.016 76.0762 130.689 76.4028L130.83 76.5443ZM128.75 78.6249L130.83 76.5443L130.689 76.4028L128.608 78.4835L128.75 78.6249ZM128.017 78.9285C128.282 78.9285 128.547 78.8273 128.75 78.6249L128.608 78.4835C128.445 78.6468 128.231 78.7285 128.017 78.7285V78.9285ZM127.284 78.625C127.486 78.8272 127.752 78.9285 128.017 78.9285V78.7285C127.803 78.7285 127.589 78.6468 127.425 78.4835L127.284 78.625ZM127.284 77.1593C126.879 77.5641 126.879 78.2203 127.284 78.6249L127.425 78.4835C127.099 78.157 127.099 77.6274 127.425 77.3007L127.284 77.1593ZM137.81 69.1342C138.076 69.1342 138.341 69.033 138.543 68.8307L138.402 68.6893C138.238 68.8526 138.025 68.9342 137.81 68.9342V69.1342ZM137.078 68.8307C137.28 69.033 137.545 69.1342 137.81 69.1342V68.9342C137.596 68.9342 137.382 68.8526 137.219 68.6893L137.078 68.8307ZM137.078 67.3651C136.673 67.7698 136.673 68.426 137.078 68.8307L137.219 68.6893C136.892 68.3627 136.892 67.8331 137.219 67.5065L137.078 67.3651ZM139.158 65.2844L137.078 67.3651L137.219 67.5065L139.299 65.4258L139.158 65.2844ZM140.624 65.2844C140.219 64.8798 139.563 64.8798 139.158 65.2844L139.299 65.4258C139.626 65.0994 140.156 65.0994 140.482 65.4258L140.624 65.2844ZM140.624 66.7501C141.028 66.3454 141.028 65.6891 140.624 65.2844L140.482 65.4258C140.809 65.7525 140.809 66.2821 140.482 66.6087L140.624 66.7501ZM138.543 68.8307L140.624 66.7501L140.482 66.6087L138.402 68.6893L138.543 68.8307Z" fill="#D9E7F7"/>
</g>
<path d="M21.91 45V35.186H23.968V37.594L23.87 38.84C24.1313 38.6067 24.4347 38.392 24.78 38.196C25.1347 37.9907 25.5453 37.888 26.012 37.888C26.768 37.888 27.314 38.14 27.65 38.644C27.9953 39.1387 28.168 39.82 28.168 40.688V45H26.11V40.954C26.11 40.45 26.04 40.1047 25.9 39.918C25.7693 39.7313 25.5547 39.638 25.256 39.638C24.9947 39.638 24.7707 39.6987 24.584 39.82C24.3973 39.932 24.192 40.0953 23.968 40.31V45H21.91ZM32.582 45.168C31.7234 45.168 31.1074 44.9207 30.734 44.426C30.37 43.9313 30.188 43.2827 30.188 42.48V39.666H29.236V38.14L30.3 38.056L30.538 36.208H32.246V38.056H33.912V39.666H32.246V42.452C32.246 42.844 32.3254 43.1287 32.484 43.306C32.652 43.474 32.8714 43.558 33.142 43.558C33.254 43.558 33.366 43.544 33.478 43.516C33.5994 43.488 33.7067 43.4553 33.8 43.418L34.122 44.916C33.9447 44.972 33.7254 45.028 33.464 45.084C33.212 45.14 32.918 45.168 32.582 45.168ZM37.668 45.168C36.8093 45.168 36.1933 44.9207 35.82 44.426C35.456 43.9313 35.274 43.2827 35.274 42.48V39.666H34.322V38.14L35.386 38.056L35.624 36.208H37.332V38.056H38.998V39.666H37.332V42.452C37.332 42.844 37.4113 43.1287 37.57 43.306C37.738 43.474 37.9573 43.558 38.228 43.558C38.34 43.558 38.452 43.544 38.564 43.516C38.6853 43.488 38.7927 43.4553 38.886 43.418L39.208 44.916C39.0307 44.972 38.8113 45.028 38.55 45.084C38.298 45.14 38.004 45.168 37.668 45.168ZM40.3534 47.576V38.056H42.0334L42.1734 38.742H42.2294C42.5 38.4993 42.8034 38.2987 43.1394 38.14C43.4847 37.972 43.8394 37.888 44.2034 37.888C45.0434 37.888 45.706 38.21 46.1914 38.854C46.6767 39.4887 46.9194 40.3427 46.9194 41.416C46.9194 42.2093 46.7794 42.886 46.4994 43.446C46.2194 44.006 45.8554 44.4353 45.4074 44.734C44.9687 45.0233 44.4974 45.168 43.9934 45.168C43.6947 45.168 43.4054 45.1073 43.1254 44.986C42.8454 44.8553 42.584 44.6733 42.3414 44.44L42.4114 45.546V47.576H40.3534ZM43.5174 43.488C43.872 43.488 44.1754 43.3247 44.4274 42.998C44.6794 42.6713 44.8054 42.1533 44.8054 41.444C44.8054 40.1933 44.404 39.568 43.6014 39.568C43.2 39.568 42.8034 39.778 42.4114 40.198V43.04C42.598 43.208 42.7847 43.3247 42.9714 43.39C43.158 43.4553 43.34 43.488 43.5174 43.488ZM50.3544 45.168C49.8971 45.168 49.4257 45.0793 48.9404 44.902C48.4644 44.7247 48.0491 44.4913 47.6944 44.202L48.6184 42.914C48.9357 43.1473 49.2391 43.3293 49.5284 43.46C49.8271 43.5813 50.1211 43.642 50.4104 43.642C50.7184 43.642 50.9424 43.5907 51.0824 43.488C51.2224 43.376 51.2924 43.2313 51.2924 43.054C51.2924 42.8953 51.2224 42.7647 51.0824 42.662C50.9517 42.5593 50.7791 42.466 50.5644 42.382C50.3497 42.2887 50.1211 42.1953 49.8784 42.102C49.5984 41.99 49.3184 41.85 49.0384 41.682C48.7677 41.514 48.5391 41.2993 48.3524 41.038C48.1657 40.7673 48.0724 40.4407 48.0724 40.058C48.0724 39.414 48.3151 38.8913 48.8004 38.49C49.2951 38.0887 49.9391 37.888 50.7324 37.888C51.2644 37.888 51.7311 37.9813 52.1324 38.168C52.5431 38.3453 52.8931 38.546 53.1824 38.77L52.2584 40.002C52.0157 39.8153 51.7731 39.6707 51.5304 39.568C51.2877 39.4653 51.0451 39.414 50.8024 39.414C50.2704 39.414 50.0044 39.596 50.0044 39.96C50.0044 40.184 50.1351 40.3567 50.3964 40.478C50.6671 40.59 50.9797 40.7113 51.3344 40.842C51.6331 40.9447 51.9224 41.08 52.2024 41.248C52.4917 41.4067 52.7297 41.6213 52.9164 41.892C53.1124 42.1533 53.2104 42.4987 53.2104 42.928C53.2104 43.5533 52.9677 44.0853 52.4824 44.524C51.9971 44.9533 51.2877 45.168 50.3544 45.168ZM55.7074 40.632C55.3528 40.632 55.0541 40.5107 54.8114 40.268C54.5781 40.016 54.4614 39.708 54.4614 39.344C54.4614 38.9707 54.5781 38.6627 54.8114 38.42C55.0541 38.168 55.3528 38.042 55.7074 38.042C56.0621 38.042 56.3561 38.168 56.5894 38.42C56.8321 38.6627 56.9534 38.9707 56.9534 39.344C56.9534 39.708 56.8321 40.016 56.5894 40.268C56.3561 40.5107 56.0621 40.632 55.7074 40.632ZM55.7074 45.168C55.3528 45.168 55.0541 45.0467 54.8114 44.804C54.5781 44.552 54.4614 44.244 54.4614 43.88C54.4614 43.5067 54.5781 43.1987 54.8114 42.956C55.0541 42.704 55.3528 42.578 55.7074 42.578C56.0621 42.578 56.3561 42.704 56.5894 42.956C56.8321 43.1987 56.9534 43.5067 56.9534 43.88C56.9534 44.244 56.8321 44.552 56.5894 44.804C56.3561 45.0467 56.0621 45.168 55.7074 45.168ZM57.9867 47.24L60.8007 35.06H62.1447L59.3307 47.24H57.9867ZM62.7308 47.24L65.5448 35.06H66.8888L64.0748 47.24H62.7308ZM69.365 45L67.629 38.056H69.673L70.345 41.276C70.401 41.6213 70.4523 41.962 70.499 42.298C70.5456 42.634 70.597 42.9793 70.653 43.334H70.709C70.7743 42.9793 70.835 42.6293 70.891 42.284C70.9563 41.9387 71.031 41.6027 71.115 41.276L71.885 38.056H73.663L74.447 41.276C74.531 41.6213 74.6056 41.962 74.671 42.298C74.7456 42.634 74.8156 42.9793 74.881 43.334H74.937C75.0023 42.9793 75.0536 42.634 75.091 42.298C75.1376 41.962 75.1936 41.6213 75.259 41.276L75.917 38.056H77.821L76.155 45H73.747L73.117 42.228C73.0516 41.9013 72.9863 41.5747 72.921 41.248C72.865 40.9213 72.8043 40.5713 72.739 40.198H72.683C72.6176 40.5713 72.557 40.9213 72.501 41.248C72.4543 41.5747 72.3983 41.9013 72.333 42.228L71.717 45H69.365ZM80.2341 45L78.4981 38.056H80.5421L81.2141 41.276C81.2701 41.6213 81.3214 41.962 81.3681 42.298C81.4148 42.634 81.4661 42.9793 81.5221 43.334H81.5781C81.6434 42.9793 81.7041 42.6293 81.7601 42.284C81.8254 41.9387 81.9001 41.6027 81.9841 41.276L82.7541 38.056H84.5321L85.3161 41.276C85.4001 41.6213 85.4748 41.962 85.5401 42.298C85.6148 42.634 85.6848 42.9793 85.7501 43.334H85.8061C85.8714 42.9793 85.9228 42.634 85.9601 42.298C86.0068 41.962 86.0628 41.6213 86.1281 41.276L86.7861 38.056H88.6901L87.0241 45H84.6161L83.9861 42.228C83.9208 41.9013 83.8554 41.5747 83.7901 41.248C83.7341 40.9213 83.6734 40.5713 83.6081 40.198H83.5521C83.4868 40.5713 83.4261 40.9213 83.3701 41.248C83.3234 41.5747 83.2674 41.9013 83.2021 42.228L82.5861 45H80.2341ZM91.1033 45L89.3673 38.056H91.4113L92.0833 41.276C92.1393 41.6213 92.1906 41.962 92.2373 42.298C92.2839 42.634 92.3353 42.9793 92.3913 43.334H92.4473C92.5126 42.9793 92.5733 42.6293 92.6292 42.284C92.6946 41.9387 92.7692 41.6027 92.8533 41.276L93.6233 38.056H95.4013L96.1853 41.276C96.2693 41.6213 96.3439 41.962 96.4093 42.298C96.4839 42.634 96.5539 42.9793 96.6193 43.334H96.6753C96.7406 42.9793 96.7919 42.634 96.8293 42.298C96.8759 41.962 96.9319 41.6213 96.9973 41.276L97.6553 38.056H99.5593L97.8933 45H95.4853L94.8553 42.228C94.7899 41.9013 94.7246 41.5747 94.6593 41.248C94.6033 40.9213 94.5426 40.5713 94.4773 40.198H94.4213C94.3559 40.5713 94.2953 40.9213 94.2393 41.248C94.1926 41.5747 94.1366 41.9013 94.0713 42.228L93.4553 45H91.1033ZM100.838 45.168C100.484 45.168 100.185 45.0467 99.9423 44.804C99.7089 44.552 99.5923 44.244 99.5923 43.88C99.5923 43.5067 99.7089 43.1987 99.9423 42.956C100.185 42.704 100.484 42.578 100.838 42.578C101.193 42.578 101.487 42.704 101.72 42.956C101.963 43.1987 102.084 43.5067 102.084 43.88C102.084 44.244 101.963 44.552 101.72 44.804C101.487 45.0467 101.193 45.168 100.838 45.168ZM104.196 45V39.666H103.272V38.14L104.196 38.07V37.692C104.196 37.1973 104.28 36.7493 104.448 36.348C104.616 35.9467 104.886 35.6247 105.26 35.382C105.633 35.1393 106.132 35.018 106.758 35.018C107.047 35.018 107.313 35.046 107.556 35.102C107.798 35.158 107.994 35.214 108.144 35.27L107.766 36.782C107.644 36.7353 107.523 36.7027 107.402 36.684C107.28 36.656 107.164 36.642 107.052 36.642C106.8 36.642 106.604 36.7213 106.464 36.88C106.324 37.0293 106.254 37.2813 106.254 37.636V38.056H107.5V39.666H106.254V45H104.196ZM110.094 45.168C109.459 45.168 108.955 44.9673 108.582 44.566C108.208 44.1553 108.022 43.656 108.022 43.068C108.022 42.34 108.33 41.7707 108.946 41.36C109.562 40.9493 110.556 40.674 111.928 40.534C111.909 40.226 111.816 39.9833 111.648 39.806C111.489 39.6193 111.218 39.526 110.836 39.526C110.546 39.526 110.252 39.582 109.954 39.694C109.655 39.806 109.338 39.96 109.002 40.156L108.26 38.798C108.698 38.5273 109.165 38.308 109.66 38.14C110.164 37.972 110.686 37.888 111.228 37.888C112.114 37.888 112.796 38.1447 113.272 38.658C113.748 39.1713 113.986 39.96 113.986 41.024V45H112.306L112.166 44.286H112.11C111.82 44.5473 111.508 44.762 111.172 44.93C110.845 45.0887 110.486 45.168 110.094 45.168ZM110.794 43.572C111.027 43.572 111.228 43.5207 111.396 43.418C111.573 43.306 111.75 43.1613 111.928 42.984V41.766C111.2 41.8593 110.696 42.0087 110.416 42.214C110.136 42.41 109.996 42.6433 109.996 42.914C109.996 43.138 110.066 43.306 110.206 43.418C110.355 43.5207 110.551 43.572 110.794 43.572ZM118.75 45.168C118.106 45.168 117.523 45.028 117 44.748C116.487 44.4587 116.076 44.0433 115.768 43.502C115.47 42.9513 115.32 42.2933 115.32 41.528C115.32 40.7533 115.488 40.0953 115.824 39.554C116.16 39.0127 116.604 38.602 117.154 38.322C117.705 38.0327 118.298 37.888 118.932 37.888C119.362 37.888 119.74 37.958 120.066 38.098C120.402 38.238 120.701 38.4153 120.962 38.63L119.996 39.96C119.67 39.6893 119.357 39.554 119.058 39.554C118.564 39.554 118.167 39.7313 117.868 40.086C117.579 40.4407 117.434 40.9213 117.434 41.528C117.434 42.1253 117.579 42.606 117.868 42.97C118.167 43.3247 118.54 43.502 118.988 43.502C119.212 43.502 119.432 43.4553 119.646 43.362C119.861 43.2593 120.057 43.138 120.234 42.998L121.046 44.342C120.701 44.6407 120.328 44.8553 119.926 44.986C119.525 45.1073 119.133 45.168 118.75 45.168ZM124.973 45.168C124.31 45.168 123.713 45.0233 123.181 44.734C122.649 44.4447 122.229 44.0293 121.921 43.488C121.613 42.9467 121.459 42.2933 121.459 41.528C121.459 40.772 121.613 40.1233 121.921 39.582C122.238 39.0407 122.649 38.6253 123.153 38.336C123.657 38.0373 124.184 37.888 124.735 37.888C125.398 37.888 125.944 38.0373 126.373 38.336C126.812 38.6253 127.138 39.022 127.353 39.526C127.577 40.0207 127.689 40.5853 127.689 41.22C127.689 41.3973 127.68 41.5747 127.661 41.752C127.642 41.92 127.624 42.046 127.605 42.13H123.447C123.54 42.634 123.75 43.0073 124.077 43.25C124.404 43.4833 124.796 43.6 125.253 43.6C125.748 43.6 126.247 43.446 126.751 43.138L127.437 44.384C127.082 44.6267 126.686 44.818 126.247 44.958C125.808 45.098 125.384 45.168 124.973 45.168ZM123.433 40.772H125.939C125.939 40.3893 125.846 40.0767 125.659 39.834C125.482 39.582 125.188 39.456 124.777 39.456C124.46 39.456 124.175 39.568 123.923 39.792C123.671 40.0067 123.508 40.3333 123.433 40.772ZM132.751 45.168C132.443 45.168 132.131 45.0933 131.813 44.944C131.505 44.7853 131.216 44.5567 130.945 44.258H130.889L130.721 45H129.111V35.186H131.169V37.594L131.113 38.658C131.384 38.4153 131.678 38.2287 131.995 38.098C132.313 37.958 132.63 37.888 132.947 37.888C133.507 37.888 133.993 38.0327 134.403 38.322C134.814 38.6113 135.127 39.022 135.341 39.554C135.565 40.0767 135.677 40.6927 135.677 41.402C135.677 42.1953 135.537 42.8767 135.257 43.446C134.977 44.006 134.613 44.4353 134.165 44.734C133.727 45.0233 133.255 45.168 132.751 45.168ZM132.275 43.488C132.63 43.488 132.933 43.3247 133.185 42.998C133.437 42.6713 133.563 42.1533 133.563 41.444C133.563 40.1933 133.162 39.568 132.359 39.568C131.949 39.568 131.552 39.778 131.169 40.198V43.04C131.356 43.208 131.543 43.3247 131.729 43.39C131.916 43.4553 132.098 43.488 132.275 43.488ZM140.119 45.168C139.531 45.168 138.975 45.028 138.453 44.748C137.939 44.4587 137.524 44.0433 137.207 43.502C136.889 42.9513 136.731 42.2933 136.731 41.528C136.731 40.7533 136.889 40.0953 137.207 39.554C137.524 39.0127 137.939 38.602 138.453 38.322C138.975 38.0327 139.531 37.888 140.119 37.888C140.707 37.888 141.257 38.0327 141.771 38.322C142.284 38.602 142.699 39.0127 143.017 39.554C143.334 40.0953 143.493 40.7533 143.493 41.528C143.493 42.2933 143.334 42.9513 143.017 43.502C142.699 44.0433 142.284 44.4587 141.771 44.748C141.257 45.028 140.707 45.168 140.119 45.168ZM140.119 43.502C140.539 43.502 140.856 43.3247 141.071 42.97C141.285 42.606 141.393 42.1253 141.393 41.528C141.393 40.9213 141.285 40.4407 141.071 40.086C140.856 39.7313 140.539 39.554 140.119 39.554C139.689 39.554 139.367 39.7313 139.153 40.086C138.947 40.4407 138.845 40.9213 138.845 41.528C138.845 42.1253 138.947 42.606 139.153 42.97C139.367 43.3247 139.689 43.502 140.119 43.502ZM147.884 45.168C147.296 45.168 146.741 45.028 146.218 44.748C145.705 44.4587 145.29 44.0433 144.972 43.502C144.655 42.9513 144.496 42.2933 144.496 41.528C144.496 40.7533 144.655 40.0953 144.972 39.554C145.29 39.0127 145.705 38.602 146.218 38.322C146.741 38.0327 147.296 37.888 147.884 37.888C148.472 37.888 149.023 38.0327 149.536 38.322C150.05 38.602 150.465 39.0127 150.782 39.554C151.1 40.0953 151.258 40.7533 151.258 41.528C151.258 42.2933 151.1 42.9513 150.782 43.502C150.465 44.0433 150.05 44.4587 149.536 44.748C149.023 45.028 148.472 45.168 147.884 45.168ZM147.884 43.502C148.304 43.502 148.622 43.3247 148.836 42.97C149.051 42.606 149.158 42.1253 149.158 41.528C149.158 40.9213 149.051 40.4407 148.836 40.086C148.622 39.7313 148.304 39.554 147.884 39.554C147.455 39.554 147.133 39.7313 146.918 40.086C146.713 40.4407 146.61 40.9213 146.61 41.528C146.61 42.1253 146.713 42.606 146.918 42.97C147.133 43.3247 147.455 43.502 147.884 43.502ZM152.668 45V35.186H154.67V40.814H154.726L156.924 38.056H159.164L156.728 40.912L159.346 45H157.12L155.552 42.298L154.67 43.292V45H152.668ZM161.582 45.168C161.228 45.168 160.929 45.0467 160.686 44.804C160.453 44.552 160.336 44.244 160.336 43.88C160.336 43.5067 160.453 43.1987 160.686 42.956C160.929 42.704 161.228 42.578 161.582 42.578C161.937 42.578 162.231 42.704 162.464 42.956C162.707 43.1987 162.828 43.5067 162.828 43.88C162.828 44.244 162.707 44.552 162.464 44.804C162.231 45.0467 161.937 45.168 161.582 45.168ZM167.477 45.168C166.833 45.168 166.25 45.028 165.727 44.748C165.214 44.4587 164.803 44.0433 164.495 43.502C164.196 42.9513 164.047 42.2933 164.047 41.528C164.047 40.7533 164.215 40.0953 164.551 39.554C164.887 39.0127 165.33 38.602 165.881 38.322C166.432 38.0327 167.024 37.888 167.659 37.888C168.088 37.888 168.466 37.958 168.793 38.098C169.129 38.238 169.428 38.4153 169.689 38.63L168.723 39.96C168.396 39.6893 168.084 39.554 167.785 39.554C167.29 39.554 166.894 39.7313 166.595 40.086C166.306 40.4407 166.161 40.9213 166.161 41.528C166.161 42.1253 166.306 42.606 166.595 42.97C166.894 43.3247 167.267 43.502 167.715 43.502C167.939 43.502 168.158 43.4553 168.373 43.362C168.588 43.2593 168.784 43.138 168.961 42.998L169.773 44.342C169.428 44.6407 169.054 44.8553 168.653 44.986C168.252 45.1073 167.86 45.168 167.477 45.168ZM173.574 45.168C172.986 45.168 172.43 45.028 171.908 44.748C171.394 44.4587 170.979 44.0433 170.662 43.502C170.344 42.9513 170.186 42.2933 170.186 41.528C170.186 40.7533 170.344 40.0953 170.662 39.554C170.979 39.0127 171.394 38.602 171.908 38.322C172.43 38.0327 172.986 37.888 173.574 37.888C174.162 37.888 174.712 38.0327 175.226 38.322C175.739 38.602 176.154 39.0127 176.472 39.554C176.789 40.0953 176.948 40.7533 176.948 41.528C176.948 42.2933 176.789 42.9513 176.472 43.502C176.154 44.0433 175.739 44.4587 175.226 44.748C174.712 45.028 174.162 45.168 173.574 45.168ZM173.574 43.502C173.994 43.502 174.311 43.3247 174.526 42.97C174.74 42.606 174.848 42.1253 174.848 41.528C174.848 40.9213 174.74 40.4407 174.526 40.086C174.311 39.7313 173.994 39.554 173.574 39.554C173.144 39.554 172.822 39.7313 172.608 40.086C172.402 40.4407 172.3 40.9213 172.3 41.528C172.3 42.1253 172.402 42.606 172.608 42.97C172.822 43.3247 173.144 43.502 173.574 43.502ZM178.357 45V38.056H180.037L180.177 38.952H180.233C180.523 38.6627 180.831 38.4153 181.157 38.21C181.484 37.9953 181.876 37.888 182.333 37.888C182.828 37.888 183.225 37.9907 183.523 38.196C183.831 38.392 184.074 38.6767 184.251 39.05C184.559 38.7327 184.886 38.462 185.231 38.238C185.577 38.0047 185.978 37.888 186.435 37.888C187.182 37.888 187.728 38.14 188.073 38.644C188.428 39.1387 188.605 39.82 188.605 40.688V45H186.547V40.954C186.547 40.45 186.477 40.1047 186.337 39.918C186.207 39.7313 185.992 39.638 185.693 39.638C185.348 39.638 184.951 39.862 184.503 40.31V45H182.445V40.954C182.445 40.45 182.375 40.1047 182.235 39.918C182.105 39.7313 181.89 39.638 181.591 39.638C181.246 39.638 180.854 39.862 180.415 40.31V45H178.357ZM189.633 47.24L192.447 35.06H193.791L190.977 47.24H189.633ZM196.295 45.168C195.941 45.168 195.642 45.0467 195.399 44.804C195.166 44.552 195.049 44.244 195.049 43.88C195.049 43.5067 195.166 43.1987 195.399 42.956C195.642 42.704 195.941 42.578 196.295 42.578C196.65 42.578 196.944 42.704 197.177 42.956C197.42 43.1987 197.541 43.5067 197.541 43.88C197.541 44.244 197.42 44.552 197.177 44.804C196.944 45.0467 196.65 45.168 196.295 45.168ZM200.493 45.168C200.138 45.168 199.839 45.0467 199.597 44.804C199.363 44.552 199.247 44.244 199.247 43.88C199.247 43.5067 199.363 43.1987 199.597 42.956C199.839 42.704 200.138 42.578 200.493 42.578C200.847 42.578 201.141 42.704 201.375 42.956C201.617 43.1987 201.739 43.5067 201.739 43.88C201.739 44.244 201.617 44.552 201.375 44.804C201.141 45.0467 200.847 45.168 200.493 45.168ZM204.69 45.168C204.335 45.168 204.037 45.0467 203.794 44.804C203.561 44.552 203.444 44.244 203.444 43.88C203.444 43.5067 203.561 43.1987 203.794 42.956C204.037 42.704 204.335 42.578 204.69 42.578C205.045 42.578 205.339 42.704 205.572 42.956C205.815 43.1987 205.936 43.5067 205.936 43.88C205.936 44.244 205.815 44.552 205.572 44.804C205.339 45.0467 205.045 45.168 204.69 45.168ZM208.887 45.168C208.532 45.168 208.234 45.0467 207.991 44.804C207.758 44.552 207.641 44.244 207.641 43.88C207.641 43.5067 207.758 43.1987 207.991 42.956C208.234 42.704 208.532 42.578 208.887 42.578C209.242 42.578 209.536 42.704 209.769 42.956C210.012 43.1987 210.133 43.5067 210.133 43.88C210.133 44.244 210.012 44.552 209.769 44.804C209.536 45.0467 209.242 45.168 208.887 45.168Z" fill="#D7DDE5"/>
<defs>
<filter id="filter0_dd_1045_1875" x="89.9" y="24.9" width="108.197" height="108.2" filterUnits="userSpaceOnUse" color-interpolation-filters="sRGB">
<feFlood flood-opacity="0" result="BackgroundImageFix"/>
<feColorMatrix in="SourceAlpha" type="matrix" values="0 0 0 0 0 0 0 0 0 0 0 0 0 0 0 0 0 0 127 0" result="hardAlpha"/>
<feOffset dx="5" dy="2"/>
<feGaussianBlur stdDeviation="20"/>
<feColorMatrix type="matrix" values="0 0 0 0 0 0 0 0 0 0.460526 0 0 0 0 1 0 0 0 0.66 0"/>
<feBlend mode="normal" in2="BackgroundImageFix" result="effect1_dropShadow_1045_1875"/>
<feColorMatrix in="SourceAlpha" type="matrix" values="0 0 0 0 0 0 0 0 0 0 0 0 0 0 0 0 0 0 127 0" result="hardAlpha"/>
<feOffset dx="5" dy="5"/>
<feGaussianBlur stdDeviation="5"/>
<feColorMatrix type="matrix" values="0 0 0 0 0.383333 0 0 0 0 0.360972 0 0 0 0 0.360972 0 0 0 0.08 0"/>
<feBlend mode="normal" in2="effect1_dropShadow_1045_1875" result="effect2_dropShadow_1045_1875"/>
<feBlend mode="normal" in="SourceGraphic" in2="effect2_dropShadow_1045_1875" result="shape"/>
</filter>
<linearGradient id="paint0_linear_1045_1875" x1="207.187" y1="42.5" x2="180.106" y2="42.2815" gradientUnits="userSpaceOnUse">
<stop stop-color="white"/>
<stop offset="1" stop-color="white" stop-opacity="0"/>
</linearGradient>
</defs>
</svg>
