<svg width="251" height="184" viewBox="0 0 251 184" fill="none" xmlns="http://www.w3.org/2000/svg">
    <rect x="1" y="1" width="228" height="182" rx="4" fill="white" stroke="#D8DEE5" stroke-width="2"/>
    <path fill-rule="evenodd" clip-rule="evenodd" d="M212.547 78.4531H16.6211C16.2592 78.4531 15.9658 78.7465 15.9658 79.1084V96.8007C15.9658 97.1626 16.2592 97.456 16.6211 97.456H212.547C212.909 97.456 213.202 97.1626 213.202 96.8007V79.1084C213.202 78.7465 212.909 78.4531 212.547 78.4531ZM16.6211 76.4873C15.1735 76.4873 14 77.6608 14 79.1084V96.8007C14 98.2483 15.1735 99.4218 16.6211 99.4218H212.547C213.995 99.4218 215.168 98.2483 215.168 96.8007V79.1084C215.168 77.6608 213.995 76.4873 212.547 76.4873H16.6211Z" fill="#D8DEE5"/>
    <path d="M19.91 92V82.186H21.968V84.594L21.87 85.84C22.1313 85.6067 22.4347 85.392 22.78 85.196C23.1253 84.9907 23.536 84.888 24.012 84.888C24.768 84.888 25.314 85.1353 25.65 85.63C25.9953 86.1247 26.168 86.8107 26.168 87.688V92H24.11V87.954C24.11 87.45 24.04 87.1047 23.9 86.918C23.7693 86.7313 23.5547 86.638 23.256 86.638C22.9947 86.638 22.7707 86.6987 22.584 86.82C22.3973 86.932 22.192 87.0953 21.968 87.31V92H19.91ZM30.582 92.168C30.1527 92.168 29.784 92.1027 29.476 91.972C29.1774 91.8413 28.93 91.6593 28.734 91.426C28.5474 91.1927 28.4074 90.9127 28.314 90.586C28.23 90.25 28.188 89.8813 28.188 89.48V86.666H27.236V85.14L28.3 85.056L28.538 83.208H30.246V85.056H31.912V86.666H30.246V89.452C30.246 89.844 30.3254 90.1287 30.484 90.306C30.652 90.474 30.8714 90.558 31.142 90.558C31.254 90.558 31.366 90.544 31.478 90.516C31.5994 90.488 31.7067 90.4553 31.8 90.418L32.122 91.916C31.9354 91.972 31.716 92.028 31.464 92.084C31.212 92.14 30.918 92.168 30.582 92.168ZM35.668 92.168C35.2387 92.168 34.87 92.1027 34.562 91.972C34.2633 91.8413 34.016 91.6593 33.82 91.426C33.6333 91.1927 33.4933 90.9127 33.4 90.586C33.316 90.25 33.274 89.8813 33.274 89.48V86.666H32.322V85.14L33.386 85.056L33.624 83.208H35.332V85.056H36.998V86.666H35.332V89.452C35.332 89.844 35.4113 90.1287 35.57 90.306C35.738 90.474 35.9573 90.558 36.228 90.558C36.34 90.558 36.452 90.544 36.564 90.516C36.6853 90.488 36.7927 90.4553 36.886 90.418L37.208 91.916C37.0213 91.972 36.802 92.028 36.55 92.084C36.298 92.14 36.004 92.168 35.668 92.168ZM38.3534 94.576V85.056H40.0334L40.1734 85.742H40.2294C40.5 85.4993 40.8034 85.2987 41.1394 85.14C41.4847 84.972 41.8394 84.888 42.2034 84.888C42.6234 84.888 43.0014 84.972 43.3374 85.14C43.6734 85.308 43.958 85.546 44.1914 85.854C44.4247 86.162 44.602 86.5353 44.7234 86.974C44.854 87.4033 44.9194 87.884 44.9194 88.416C44.9194 89.0133 44.8354 89.5453 44.6674 90.012C44.5087 90.4693 44.2894 90.8613 44.0094 91.188C43.7387 91.5053 43.426 91.748 43.0714 91.916C42.726 92.084 42.3667 92.168 41.9934 92.168C41.6947 92.168 41.4054 92.1073 41.1254 91.986C40.8454 91.8553 40.584 91.6733 40.3414 91.44L40.4114 92.546V94.576H38.3534ZM41.5174 90.488C41.872 90.488 42.1754 90.3293 42.4274 90.012C42.6794 89.6853 42.8054 89.1627 42.8054 88.444C42.8054 87.1933 42.404 86.568 41.6014 86.568C41.2 86.568 40.8034 86.778 40.4114 87.198V90.04C40.598 90.208 40.7847 90.3247 40.9714 90.39C41.158 90.4553 41.34 90.488 41.5174 90.488ZM48.3544 92.168C47.8971 92.168 47.4257 92.0793 46.9404 91.902C46.4644 91.7247 46.0491 91.4913 45.6944 91.202L46.6184 89.914C46.9357 90.1567 47.2391 90.3387 47.5284 90.46C47.8177 90.5813 48.1117 90.642 48.4104 90.642C48.7184 90.642 48.9424 90.5907 49.0824 90.488C49.2224 90.3853 49.2924 90.2407 49.2924 90.054C49.2924 89.942 49.2504 89.844 49.1664 89.76C49.0917 89.6667 48.9844 89.5827 48.8444 89.508C48.7137 89.4333 48.5644 89.368 48.3964 89.312C48.2284 89.2467 48.0557 89.1767 47.8784 89.102C47.6637 89.018 47.4491 88.92 47.2344 88.808C47.0197 88.696 46.8237 88.5607 46.6464 88.402C46.4691 88.234 46.3244 88.0427 46.2124 87.828C46.1004 87.604 46.0444 87.3473 46.0444 87.058C46.0444 86.7407 46.1051 86.4467 46.2264 86.176C46.3571 85.9053 46.5391 85.6767 46.7724 85.49C47.0057 85.3033 47.2857 85.1587 47.6124 85.056C47.9391 84.944 48.3031 84.888 48.7044 84.888C49.2364 84.888 49.7031 84.9813 50.1044 85.168C50.5057 85.3453 50.8557 85.546 51.1544 85.77L50.2304 87.002C49.9784 86.8153 49.7311 86.6707 49.4884 86.568C49.2457 86.4653 49.0031 86.414 48.7604 86.414C48.2377 86.414 47.9764 86.596 47.9764 86.96C47.9764 87.072 48.0137 87.17 48.0884 87.254C48.1631 87.3287 48.2611 87.3987 48.3824 87.464C48.5131 87.5293 48.6577 87.5947 48.8164 87.66C48.9844 87.716 49.1571 87.7767 49.3344 87.842C49.5584 87.926 49.7777 88.024 49.9924 88.136C50.2164 88.2387 50.4171 88.3693 50.5944 88.528C50.7811 88.6867 50.9304 88.8827 51.0424 89.116C51.1544 89.34 51.2104 89.6107 51.2104 89.928C51.2104 90.2453 51.1497 90.5393 51.0284 90.81C50.9071 91.0807 50.7251 91.3187 50.4824 91.524C50.2397 91.72 49.9411 91.8787 49.5864 92C49.2317 92.112 48.8211 92.168 48.3544 92.168ZM53.7074 87.632C53.3528 87.632 53.0541 87.5107 52.8114 87.268C52.5781 87.016 52.4614 86.708 52.4614 86.344C52.4614 85.9707 52.5781 85.6627 52.8114 85.42C53.0541 85.168 53.3528 85.042 53.7074 85.042C54.0621 85.042 54.3561 85.168 54.5894 85.42C54.8321 85.6627 54.9534 85.9707 54.9534 86.344C54.9534 86.708 54.8321 87.016 54.5894 87.268C54.3561 87.5107 54.0621 87.632 53.7074 87.632ZM53.7074 92.168C53.3528 92.168 53.0541 92.0467 52.8114 91.804C52.5781 91.552 52.4614 91.244 52.4614 90.88C52.4614 90.5067 52.5781 90.1987 52.8114 89.956C53.0541 89.704 53.3528 89.578 53.7074 89.578C54.0621 89.578 54.3561 89.704 54.5894 89.956C54.8321 90.1987 54.9534 90.5067 54.9534 90.88C54.9534 91.244 54.8321 91.552 54.5894 91.804C54.3561 92.0467 54.0621 92.168 53.7074 92.168ZM55.9867 94.24L58.8007 82.06H60.1447L57.3307 94.24H55.9867ZM60.7308 94.24L63.5448 82.06H64.8888L62.0748 94.24H60.7308ZM67.365 92L65.629 85.056H67.673L68.345 88.276C68.401 88.6213 68.4523 88.962 68.499 89.298C68.5456 89.634 68.597 89.9793 68.653 90.334H68.709C68.7743 89.9793 68.835 89.6293 68.891 89.284C68.9563 88.9387 69.031 88.6027 69.115 88.276L69.885 85.056H71.663L72.447 88.276C72.531 88.6213 72.6056 88.962 72.671 89.298C72.7363 89.634 72.8063 89.9793 72.881 90.334H72.937C73.0023 89.9793 73.0536 89.634 73.091 89.298C73.1376 88.962 73.1936 88.6213 73.259 88.276L73.917 85.056H75.821L74.155 92H71.747L71.117 89.228C71.0423 88.9013 70.977 88.5747 70.921 88.248C70.865 87.9213 70.8043 87.5713 70.739 87.198H70.683C70.6176 87.5713 70.557 87.9213 70.501 88.248C70.4543 88.5747 70.3983 88.9013 70.333 89.228L69.717 92H67.365ZM78.2341 92L76.4981 85.056H78.5421L79.2141 88.276C79.2701 88.6213 79.3214 88.962 79.3681 89.298C79.4148 89.634 79.4661 89.9793 79.5221 90.334H79.5781C79.6434 89.9793 79.7041 89.6293 79.7601 89.284C79.8254 88.9387 79.9001 88.6027 79.9841 88.276L80.7541 85.056H82.5321L83.3161 88.276C83.4001 88.6213 83.4748 88.962 83.5401 89.298C83.6054 89.634 83.6754 89.9793 83.7501 90.334H83.8061C83.8714 89.9793 83.9228 89.634 83.9601 89.298C84.0068 88.962 84.0628 88.6213 84.1281 88.276L84.7861 85.056H86.6901L85.0241 92H82.6161L81.9861 89.228C81.9114 88.9013 81.8461 88.5747 81.7901 88.248C81.7341 87.9213 81.6734 87.5713 81.6081 87.198H81.5521C81.4868 87.5713 81.4261 87.9213 81.3701 88.248C81.3234 88.5747 81.2674 88.9013 81.2021 89.228L80.5861 92H78.2341ZM89.1033 92L87.3673 85.056H89.4113L90.0833 88.276C90.1393 88.6213 90.1906 88.962 90.2373 89.298C90.2839 89.634 90.3353 89.9793 90.3913 90.334H90.4473C90.5126 89.9793 90.5733 89.6293 90.6292 89.284C90.6946 88.9387 90.7692 88.6027 90.8533 88.276L91.6233 85.056H93.4013L94.1853 88.276C94.2693 88.6213 94.3439 88.962 94.4093 89.298C94.4746 89.634 94.5446 89.9793 94.6193 90.334H94.6753C94.7406 89.9793 94.7919 89.634 94.8293 89.298C94.8759 88.962 94.9319 88.6213 94.9973 88.276L95.6553 85.056H97.5593L95.8933 92H93.4853L92.8553 89.228C92.7806 88.9013 92.7153 88.5747 92.6593 88.248C92.6033 87.9213 92.5426 87.5713 92.4773 87.198H92.4213C92.3559 87.5713 92.2953 87.9213 92.2393 88.248C92.1926 88.5747 92.1366 88.9013 92.0713 89.228L91.4553 92H89.1033ZM98.8383 92.168C98.4836 92.168 98.1849 92.0467 97.9423 91.804C97.7089 91.552 97.5923 91.244 97.5923 90.88C97.5923 90.5067 97.7089 90.1987 97.9423 89.956C98.1849 89.704 98.4836 89.578 98.8383 89.578C99.1929 89.578 99.4869 89.704 99.7203 89.956C99.9629 90.1987 100.084 90.5067 100.084 90.88C100.084 91.244 99.9629 91.552 99.7203 91.804C99.4869 92.0467 99.1929 92.168 98.8383 92.168ZM102.342 94.716C102.127 94.716 101.945 94.702 101.796 94.674C101.647 94.6553 101.502 94.6227 101.362 94.576L101.726 93.008C101.791 93.0267 101.866 93.0453 101.95 93.064C102.034 93.0827 102.113 93.092 102.188 93.092C102.533 93.092 102.799 93.008 102.986 92.84C103.173 92.672 103.313 92.4527 103.406 92.182L103.504 91.818L100.83 85.056H102.902L103.896 88.038C103.999 88.3553 104.092 88.6773 104.176 89.004C104.26 89.3307 104.349 89.6667 104.442 90.012H104.498C104.573 89.6853 104.647 89.3587 104.722 89.032C104.806 88.696 104.89 88.3647 104.974 88.038L105.814 85.056H107.788L105.38 92.07C105.212 92.5087 105.035 92.8913 104.848 93.218C104.671 93.554 104.461 93.8293 104.218 94.044C103.985 94.268 103.714 94.436 103.406 94.548C103.107 94.66 102.753 94.716 102.342 94.716ZM111.746 92.168C111.307 92.168 110.882 92.0887 110.472 91.93C110.061 91.762 109.697 91.524 109.38 91.216C109.072 90.908 108.824 90.53 108.638 90.082C108.451 89.6247 108.358 89.1067 108.358 88.528C108.358 87.9493 108.451 87.436 108.638 86.988C108.824 86.5307 109.072 86.148 109.38 85.84C109.697 85.532 110.061 85.2987 110.472 85.14C110.882 84.972 111.307 84.888 111.746 84.888C112.184 84.888 112.604 84.972 113.006 85.14C113.416 85.2987 113.776 85.532 114.084 85.84C114.401 86.148 114.653 86.5307 114.84 86.988C115.026 87.436 115.12 87.9493 115.12 88.528C115.12 89.1067 115.026 89.6247 114.84 90.082C114.653 90.53 114.401 90.908 114.084 91.216C113.776 91.524 113.416 91.762 113.006 91.93C112.604 92.0887 112.184 92.168 111.746 92.168ZM111.746 90.502C112.166 90.502 112.483 90.3247 112.698 89.97C112.912 89.6153 113.02 89.1347 113.02 88.528C113.02 87.9213 112.912 87.4407 112.698 87.086C112.483 86.7313 112.166 86.554 111.746 86.554C111.316 86.554 110.994 86.7313 110.78 87.086C110.574 87.4407 110.472 87.9213 110.472 88.528C110.472 89.1347 110.574 89.6153 110.78 89.97C110.994 90.3247 111.316 90.502 111.746 90.502ZM118.615 92.168C117.859 92.168 117.308 91.9207 116.963 91.426C116.627 90.9313 116.459 90.2453 116.459 89.368V85.056H118.517V89.102C118.517 89.606 118.587 89.9513 118.727 90.138C118.867 90.3247 119.086 90.418 119.385 90.418C119.646 90.418 119.866 90.3573 120.043 90.236C120.22 90.1147 120.412 89.9187 120.617 89.648V85.056H122.675V92H120.995L120.841 91.034H120.799C120.5 91.3887 120.178 91.6687 119.833 91.874C119.497 92.07 119.091 92.168 118.615 92.168ZM127.16 92.168C126.731 92.168 126.362 92.1027 126.054 91.972C125.756 91.8413 125.508 91.6593 125.312 91.426C125.126 91.1927 124.986 90.9127 124.892 90.586C124.808 90.25 124.766 89.8813 124.766 89.48V86.666H123.814V85.14L124.878 85.056L125.116 83.208H126.824V85.056H128.49V86.666H126.824V89.452C126.824 89.844 126.904 90.1287 127.062 90.306C127.23 90.474 127.45 90.558 127.72 90.558C127.832 90.558 127.944 90.544 128.056 90.516C128.178 90.488 128.285 90.4553 128.378 90.418L128.7 91.916C128.514 91.972 128.294 92.028 128.042 92.084C127.79 92.14 127.496 92.168 127.16 92.168ZM131.932 92.168C131.176 92.168 130.625 91.9207 130.28 91.426C129.944 90.9313 129.776 90.2453 129.776 89.368V85.056H131.834V89.102C131.834 89.606 131.904 89.9513 132.044 90.138C132.184 90.3247 132.403 90.418 132.702 90.418C132.963 90.418 133.182 90.3573 133.36 90.236C133.537 90.1147 133.728 89.9187 133.934 89.648V85.056H135.992V92H134.312L134.158 91.034H134.116C133.817 91.3887 133.495 91.6687 133.15 91.874C132.814 92.07 132.408 92.168 131.932 92.168ZM141.443 92.168C141.135 92.168 140.822 92.0933 140.505 91.944C140.197 91.7853 139.907 91.5567 139.637 91.258H139.581L139.413 92H137.803V82.186H139.861V84.594L139.805 85.658C140.075 85.4153 140.365 85.2287 140.673 85.098C140.99 84.958 141.312 84.888 141.639 84.888C142.059 84.888 142.437 84.972 142.773 85.14C143.109 85.308 143.393 85.546 143.627 85.854C143.869 86.1527 144.051 86.5213 144.173 86.96C144.303 87.3893 144.369 87.87 144.369 88.402C144.369 88.9993 144.285 89.5313 144.117 89.998C143.958 90.4647 143.739 90.8613 143.459 91.188C143.188 91.5053 142.875 91.748 142.521 91.916C142.175 92.084 141.816 92.168 141.443 92.168ZM140.967 90.488C141.321 90.488 141.625 90.3293 141.877 90.012C142.129 89.6853 142.255 89.1627 142.255 88.444C142.255 87.1933 141.853 86.568 141.051 86.568C140.64 86.568 140.243 86.778 139.861 87.198V90.04C140.047 90.208 140.234 90.3247 140.421 90.39C140.607 90.4553 140.789 90.488 140.967 90.488ZM148.936 92.168C148.441 92.168 147.979 92.0887 147.55 91.93C147.121 91.762 146.747 91.524 146.43 91.216C146.113 90.8987 145.865 90.516 145.688 90.068C145.511 89.62 145.422 89.1067 145.422 88.528C145.422 87.968 145.515 87.464 145.702 87.016C145.889 86.5587 146.131 86.176 146.43 85.868C146.738 85.5507 147.088 85.308 147.48 85.14C147.872 84.972 148.278 84.888 148.698 84.888C149.193 84.888 149.622 84.972 149.986 85.14C150.359 85.308 150.667 85.5413 150.91 85.84C151.162 86.1387 151.349 86.4933 151.47 86.904C151.591 87.3053 151.652 87.744 151.652 88.22C151.652 88.4067 151.643 88.584 151.624 88.752C151.605 88.92 151.587 89.046 151.568 89.13H147.41C147.503 89.634 147.709 90.0073 148.026 90.25C148.353 90.4833 148.749 90.6 149.216 90.6C149.711 90.6 150.21 90.446 150.714 90.138L151.4 91.384C151.045 91.6267 150.649 91.818 150.21 91.958C149.781 92.098 149.356 92.168 148.936 92.168ZM147.396 87.772H149.902C149.902 87.38 149.813 87.0627 149.636 86.82C149.459 86.5773 149.16 86.456 148.74 86.456C148.413 86.456 148.124 86.5633 147.872 86.778C147.629 86.9927 147.471 87.324 147.396 87.772ZM154.264 92.168C153.909 92.168 153.611 92.0467 153.368 91.804C153.135 91.552 153.018 91.244 153.018 90.88C153.018 90.5067 153.135 90.1987 153.368 89.956C153.611 89.704 153.909 89.578 154.264 89.578C154.619 89.578 154.913 89.704 155.146 89.956C155.389 90.1987 155.51 90.5067 155.51 90.88C155.51 91.244 155.389 91.552 155.146 91.804C154.913 92.0467 154.619 92.168 154.264 92.168ZM160.159 92.168C159.673 92.168 159.221 92.0887 158.801 91.93C158.39 91.762 158.031 91.524 157.723 91.216C157.415 90.908 157.172 90.53 156.995 90.082C156.817 89.6247 156.729 89.1067 156.729 88.528C156.729 87.9493 156.827 87.436 157.023 86.988C157.219 86.5307 157.48 86.148 157.807 85.84C158.143 85.532 158.53 85.2987 158.969 85.14C159.407 84.972 159.865 84.888 160.341 84.888C160.77 84.888 161.148 84.958 161.475 85.098C161.811 85.238 162.109 85.4153 162.371 85.63L161.405 86.96C161.078 86.6893 160.765 86.554 160.467 86.554C159.963 86.554 159.566 86.7313 159.277 87.086C158.987 87.4407 158.843 87.9213 158.843 88.528C158.843 89.1347 158.987 89.6153 159.277 89.97C159.575 90.3247 159.949 90.502 160.397 90.502C160.621 90.502 160.835 90.4553 161.041 90.362C161.255 90.2593 161.456 90.138 161.643 89.998L162.455 91.342C162.109 91.6407 161.736 91.8553 161.335 91.986C160.933 92.1073 160.541 92.168 160.159 92.168ZM166.255 92.168C165.817 92.168 165.392 92.0887 164.981 91.93C164.571 91.762 164.207 91.524 163.889 91.216C163.581 90.908 163.334 90.53 163.147 90.082C162.961 89.6247 162.867 89.1067 162.867 88.528C162.867 87.9493 162.961 87.436 163.147 86.988C163.334 86.5307 163.581 86.148 163.889 85.84C164.207 85.532 164.571 85.2987 164.981 85.14C165.392 84.972 165.817 84.888 166.255 84.888C166.694 84.888 167.114 84.972 167.515 85.14C167.926 85.2987 168.285 85.532 168.593 85.84C168.911 86.148 169.163 86.5307 169.349 86.988C169.536 87.436 169.629 87.9493 169.629 88.528C169.629 89.1067 169.536 89.6247 169.349 90.082C169.163 90.53 168.911 90.908 168.593 91.216C168.285 91.524 167.926 91.762 167.515 91.93C167.114 92.0887 166.694 92.168 166.255 92.168ZM166.255 90.502C166.675 90.502 166.993 90.3247 167.207 89.97C167.422 89.6153 167.529 89.1347 167.529 88.528C167.529 87.9213 167.422 87.4407 167.207 87.086C166.993 86.7313 166.675 86.554 166.255 86.554C165.826 86.554 165.504 86.7313 165.289 87.086C165.084 87.4407 164.981 87.9213 164.981 88.528C164.981 89.1347 165.084 89.6153 165.289 89.97C165.504 90.3247 165.826 90.502 166.255 90.502ZM171.039 92V85.056H172.719L172.859 85.952H172.915C173.204 85.6627 173.512 85.4153 173.839 85.21C174.166 84.9953 174.558 84.888 175.015 84.888C175.51 84.888 175.906 84.9907 176.205 85.196C176.513 85.392 176.756 85.6767 176.933 86.05C177.241 85.7327 177.563 85.462 177.899 85.238C178.244 85.0047 178.65 84.888 179.117 84.888C179.864 84.888 180.41 85.14 180.755 85.644C181.11 86.1387 181.287 86.82 181.287 87.688V92H179.229V87.954C179.229 87.45 179.159 87.1047 179.019 86.918C178.888 86.7313 178.674 86.638 178.375 86.638C178.03 86.638 177.633 86.862 177.185 87.31V92H175.127V87.954C175.127 87.45 175.057 87.1047 174.917 86.918C174.786 86.7313 174.572 86.638 174.273 86.638C173.918 86.638 173.526 86.862 173.097 87.31V92H171.039ZM182.315 94.24L185.129 82.06H186.473L183.659 94.24H182.315ZM188.949 92L187.213 85.056H189.257L189.929 88.276C189.985 88.6213 190.036 88.962 190.083 89.298C190.13 89.634 190.181 89.9793 190.237 90.334H190.293C190.358 89.9793 190.419 89.6293 190.475 89.284C190.54 88.9387 190.615 88.6027 190.699 88.276L191.469 85.056H193.247L194.031 88.276C194.115 88.6213 194.19 88.962 194.255 89.298C194.32 89.634 194.39 89.9793 194.465 90.334H194.521C194.586 89.9793 194.638 89.634 194.675 89.298C194.722 88.962 194.778 88.6213 194.843 88.276L195.501 85.056H197.405L195.739 92H193.331L192.701 89.228C192.626 88.9013 192.561 88.5747 192.505 88.248C192.449 87.9213 192.388 87.5713 192.323 87.198H192.267C192.202 87.5713 192.141 87.9213 192.085 88.248C192.038 88.5747 191.982 88.9013 191.917 89.228L191.301 92H188.949ZM200.269 92.168C199.952 92.168 199.663 92.112 199.401 92C199.149 91.8973 198.935 91.7527 198.757 91.566C198.58 91.37 198.44 91.146 198.337 90.894C198.244 90.642 198.197 90.3667 198.197 90.068C198.197 89.34 198.505 88.7707 199.121 88.36C199.737 87.9493 200.731 87.674 202.103 87.534C202.085 87.226 201.991 86.9833 201.823 86.806C201.665 86.6193 201.394 86.526 201.011 86.526C200.713 86.526 200.414 86.582 200.115 86.694C199.826 86.806 199.513 86.96 199.177 87.156L198.435 85.798C198.883 85.5273 199.35 85.308 199.835 85.14C200.33 84.972 200.853 84.888 201.403 84.888C202.299 84.888 202.981 85.1447 203.447 85.658C203.923 86.162 204.161 86.9507 204.161 88.024V92H202.481L202.341 91.286H202.285C201.987 91.5473 201.674 91.762 201.347 91.93C201.021 92.0887 200.661 92.168 200.269 92.168ZM200.969 90.572C201.203 90.572 201.403 90.5207 201.571 90.418C201.739 90.3153 201.917 90.1707 202.103 89.984V88.766C201.375 88.8687 200.871 89.018 200.591 89.214C200.311 89.41 200.171 89.6433 200.171 89.914C200.171 90.138 200.241 90.306 200.381 90.418C200.531 90.5207 200.727 90.572 200.969 90.572ZM208.33 92.168C207.901 92.168 207.532 92.1027 207.224 91.972C206.925 91.8413 206.678 91.6593 206.482 91.426C206.295 91.1927 206.155 90.9127 206.062 90.586C205.978 90.25 205.936 89.8813 205.936 89.48V86.666H204.984V85.14L206.048 85.056L206.286 83.208H207.994V85.056H209.66V86.666H207.994V89.452C207.994 89.844 208.073 90.1287 208.232 90.306C208.4 90.474 208.619 90.558 208.89 90.558C209.002 90.558 209.114 90.544 209.226 90.516C209.347 90.488 209.455 90.4553 209.548 90.418L209.87 91.916C209.683 91.972 209.464 92.028 209.212 92.084C208.96 92.14 208.666 92.168 208.33 92.168Z" fill="#D7DDE5"/>
    <rect x="181" y="76" width="34" height="24" rx="2" fill="white"/>
    <rect x="181" y="76" width="34" height="24" rx="2" fill="#79B5FC"/>
    <g filter="url(#filter0_dd)">
        <path fill-rule="evenodd" clip-rule="evenodd" d="M186.26 98.8154C186.777 98.8154 187.196 98.3962 187.196 97.879V94.9364C187.196 94.4192 186.777 94 186.26 94C185.743 94 185.323 94.4192 185.323 94.9364V97.8791C185.323 98.3962 185.742 98.8154 186.26 98.8154ZM179.787 96.786C180.153 96.4205 180.745 96.4206 181.111 96.786L183.192 98.8667C183.557 99.2324 183.557 99.8252 183.192 100.191C183.009 100.374 182.769 100.465 182.53 100.465C182.29 100.465 182.05 100.374 181.867 100.191L179.787 98.1103C179.421 97.7446 179.421 97.1517 179.787 96.786ZM199.152 112.11L204.724 117.682C205.09 118.048 205.09 118.641 204.724 119.006L202.005 121.726C201.83 121.901 201.591 122 201.343 122C201.095 122 200.856 121.901 200.681 121.726L195.109 116.153L192.813 120.129C192.634 120.439 192.293 120.62 191.935 120.594C191.577 120.568 191.265 120.34 191.132 120.007L184.062 102.278C183.924 101.931 184.005 101.534 184.27 101.269C184.535 101.005 184.931 100.923 185.279 101.062L203.006 108.133C203.339 108.266 203.567 108.577 203.593 108.935C203.619 109.293 203.438 109.634 203.127 109.813L199.152 112.11ZM181.816 103.259C181.816 102.742 181.397 102.323 180.88 102.323H177.937C177.42 102.323 177.001 102.742 177.001 103.259C177.001 103.776 177.42 104.196 177.937 104.196H180.88C181.397 104.196 181.816 103.776 181.816 103.259ZM179.356 108.23L181.437 106.149C181.802 105.784 182.395 105.784 182.761 106.149C183.126 106.515 183.126 107.108 182.761 107.474L180.68 109.554C180.497 109.737 180.257 109.828 180.018 109.828C179.778 109.828 179.539 109.737 179.356 109.554C178.99 109.189 178.99 108.596 179.356 108.23ZM190.473 99.76C190.291 99.9428 190.051 100.034 189.811 100.034C189.572 100.034 189.332 99.9428 189.149 99.76C188.784 99.3944 188.784 98.8015 189.149 98.4358L191.23 96.3551C191.595 95.9896 192.188 95.9896 192.554 96.3551C192.92 96.7208 192.92 97.3137 192.554 97.6794L190.473 99.76Z" fill="white"/>
        <path d="M181.111 96.786L181.182 96.7153L181.182 96.7153L181.111 96.786ZM179.787 96.786L179.716 96.7153L179.716 96.7153L179.787 96.786ZM183.192 98.8667L183.121 98.9374L183.121 98.9374L183.192 98.8667ZM183.192 100.191L183.262 100.262L183.192 100.191ZM181.867 100.191L181.797 100.262L181.867 100.191ZM179.787 98.1103L179.716 98.181L179.716 98.1811L179.787 98.1103ZM204.724 117.682L204.653 117.753V117.753L204.724 117.682ZM199.152 112.11L199.102 112.023L198.989 112.088L199.081 112.18L199.152 112.11ZM204.724 119.006L204.795 119.077L204.795 119.077L204.724 119.006ZM202.005 121.726L201.934 121.655L201.934 121.655L202.005 121.726ZM200.681 121.726L200.752 121.655L200.752 121.655L200.681 121.726ZM195.109 116.153L195.18 116.083L195.088 115.99L195.022 116.103L195.109 116.153ZM192.813 120.129L192.726 120.079L192.726 120.079L192.813 120.129ZM191.935 120.594L191.942 120.494L191.942 120.494L191.935 120.594ZM191.132 120.007L191.04 120.044L191.04 120.044L191.132 120.007ZM184.062 102.278L184.155 102.241L184.155 102.241L184.062 102.278ZM184.27 101.269L184.199 101.199L184.199 101.199L184.27 101.269ZM185.279 101.062L185.242 101.155L185.242 101.155L185.279 101.062ZM203.006 108.133L202.969 108.226L202.969 108.226L203.006 108.133ZM203.593 108.935L203.493 108.943V108.943L203.593 108.935ZM203.127 109.813L203.077 109.727L203.077 109.727L203.127 109.813ZM180.88 104.196V104.296H180.88L180.88 104.196ZM181.437 106.149L181.366 106.079L181.366 106.079L181.437 106.149ZM179.356 108.23L179.285 108.159L179.285 108.159L179.356 108.23ZM182.761 106.149L182.831 106.079L182.831 106.079L182.761 106.149ZM182.761 107.474L182.831 107.544L182.831 107.544L182.761 107.474ZM180.68 109.554L180.609 109.484L180.609 109.484L180.68 109.554ZM179.356 109.554L179.285 109.625L179.285 109.625L179.356 109.554ZM190.473 99.76L190.544 99.8307L190.544 99.8307L190.473 99.76ZM189.149 99.76L189.079 99.8307L189.079 99.8307L189.149 99.76ZM189.149 98.4358L189.22 98.5065L189.22 98.5065L189.149 98.4358ZM191.23 96.3551L191.159 96.2844L191.159 96.2844L191.23 96.3551ZM192.554 96.3551L192.625 96.2844L192.625 96.2844L192.554 96.3551ZM192.554 97.6794L192.483 97.6087L192.483 97.6087L192.554 97.6794ZM187.096 97.879C187.096 98.341 186.721 98.7154 186.26 98.7154V98.9154C186.832 98.9154 187.296 98.4514 187.296 97.879H187.096ZM187.096 94.9364V97.879H187.296V94.9364H187.096ZM186.26 94.1C186.722 94.1 187.096 94.4745 187.096 94.9364H187.296C187.296 94.364 186.832 93.9 186.26 93.9V94.1ZM185.423 94.9364C185.423 94.4744 185.798 94.1 186.26 94.1V93.9C185.687 93.9 185.223 94.3639 185.223 94.9364H185.423ZM185.423 97.8791V94.9364H185.223V97.8791H185.423ZM186.26 98.7154C185.798 98.7154 185.423 98.341 185.423 97.8791H185.223C185.223 98.4514 185.687 98.9154 186.26 98.9154V98.7154ZM181.182 96.7153C180.777 96.3109 180.121 96.3108 179.716 96.7153L179.858 96.8568C180.184 96.5303 180.714 96.5304 181.041 96.8568L181.182 96.7153ZM183.262 98.796L181.182 96.7153L181.04 96.8567L183.121 98.9374L183.262 98.796ZM183.262 100.262C183.667 99.8569 183.667 99.2008 183.262 98.796L183.121 98.9374C183.448 99.2641 183.448 99.7936 183.121 100.12L183.262 100.262ZM182.53 100.565C182.795 100.565 183.06 100.464 183.262 100.262L183.121 100.12C182.958 100.284 182.744 100.365 182.53 100.365V100.565ZM181.797 100.262C181.999 100.464 182.264 100.565 182.53 100.565V100.365C182.315 100.365 182.101 100.284 181.938 100.12L181.797 100.262ZM179.716 98.1811L181.797 100.262L181.938 100.12L179.858 98.0396L179.716 98.1811ZM179.716 96.7153C179.312 97.1201 179.312 97.7763 179.716 98.181L179.858 98.0396C179.531 97.713 179.531 97.1834 179.858 96.8567L179.716 96.7153ZM204.795 117.611L199.223 112.039L199.081 112.18L204.653 117.753L204.795 117.611ZM204.795 119.077C205.199 118.672 205.199 118.016 204.795 117.611L204.653 117.753C204.98 118.079 204.98 118.609 204.653 118.936L204.795 119.077ZM202.076 121.796L204.795 119.077L204.653 118.936L201.934 121.655L202.076 121.796ZM201.343 122.1C201.618 122.1 201.882 121.991 202.076 121.796L201.934 121.655C201.778 121.812 201.565 121.9 201.343 121.9V122.1ZM200.61 121.796C200.804 121.991 201.068 122.1 201.343 122.1V121.9C201.121 121.9 200.908 121.812 200.752 121.655L200.61 121.796ZM195.038 116.224L200.61 121.796L200.752 121.655L195.18 116.083L195.038 116.224ZM192.9 120.179L195.196 116.203L195.022 116.103L192.726 120.079L192.9 120.179ZM191.928 120.694C192.324 120.723 192.701 120.523 192.9 120.179L192.726 120.079C192.566 120.356 192.262 120.518 191.942 120.494L191.928 120.694ZM191.04 120.044C191.187 120.413 191.531 120.665 191.928 120.694L191.942 120.494C191.622 120.471 191.344 120.268 191.225 119.97L191.04 120.044ZM183.969 102.315L191.04 120.044L191.225 119.97L184.155 102.241L183.969 102.315ZM184.199 101.199C183.906 101.492 183.816 101.931 183.969 102.315L184.155 102.241C184.031 101.931 184.104 101.576 184.341 101.34L184.199 101.199ZM185.316 100.969C184.931 100.815 184.492 100.906 184.199 101.199L184.341 101.34C184.577 101.104 184.931 101.031 185.242 101.155L185.316 100.969ZM203.043 108.04L185.316 100.969L185.242 101.155L202.969 108.226L203.043 108.04ZM203.692 108.928C203.664 108.532 203.412 108.187 203.043 108.04L202.969 108.226C203.266 108.345 203.47 108.623 203.493 108.943L203.692 108.928ZM203.177 109.9C203.521 109.702 203.721 109.324 203.692 108.928L203.493 108.943C203.516 109.262 203.355 109.567 203.077 109.727L203.177 109.9ZM199.202 112.196L203.177 109.9L203.077 109.727L199.102 112.023L199.202 112.196ZM180.88 102.423C181.342 102.423 181.716 102.798 181.716 103.259H181.916C181.916 102.687 181.452 102.223 180.88 102.223V102.423ZM177.937 102.423H180.88V102.223H177.937V102.423ZM177.101 103.259C177.101 102.797 177.476 102.423 177.937 102.423V102.223C177.365 102.223 176.901 102.687 176.901 103.259H177.101ZM177.937 104.096C177.475 104.096 177.101 103.721 177.101 103.259H176.901C176.901 103.832 177.365 104.296 177.937 104.296V104.096ZM180.88 104.096H177.937V104.296H180.88V104.096ZM181.716 103.259C181.716 103.721 181.342 104.096 180.88 104.096L180.88 104.296C181.452 104.296 181.916 103.832 181.916 103.259H181.716ZM181.366 106.079L179.285 108.159L179.426 108.301L181.507 106.22L181.366 106.079ZM182.831 106.079C182.427 105.674 181.771 105.674 181.366 106.079L181.507 106.22C181.834 105.894 182.363 105.894 182.69 106.22L182.831 106.079ZM182.831 107.544C183.236 107.14 183.236 106.483 182.831 106.079L182.69 106.22C183.017 106.547 183.017 107.076 182.69 107.403L182.831 107.544ZM180.751 109.625L182.831 107.544L182.69 107.403L180.609 109.484L180.751 109.625ZM180.018 109.928C180.283 109.928 180.548 109.827 180.751 109.625L180.609 109.484C180.446 109.647 180.232 109.728 180.018 109.728V109.928ZM179.285 109.625C179.487 109.827 179.753 109.928 180.018 109.928V109.728C179.804 109.728 179.59 109.647 179.426 109.484L179.285 109.625ZM179.285 108.159C178.88 108.564 178.88 109.22 179.285 109.625L179.426 109.484C179.1 109.157 179.1 108.627 179.426 108.301L179.285 108.159ZM189.811 100.134C190.077 100.134 190.342 100.033 190.544 99.8307L190.403 99.6893C190.239 99.8526 190.026 99.9342 189.811 99.9342V100.134ZM189.079 99.8307C189.281 100.033 189.546 100.134 189.811 100.134V99.9342C189.597 99.9342 189.383 99.8526 189.22 99.6893L189.079 99.8307ZM189.079 98.3651C188.674 98.7698 188.674 99.426 189.079 99.8307L189.22 99.6893C188.893 99.3627 188.893 98.8331 189.22 98.5065L189.079 98.3651ZM191.159 96.2844L189.079 98.3651L189.22 98.5065L191.3 96.4258L191.159 96.2844ZM192.625 96.2844C192.22 95.8798 191.564 95.8798 191.159 96.2844L191.3 96.4258C191.627 96.0994 192.157 96.0994 192.483 96.4258L192.625 96.2844ZM192.625 97.7501C193.029 97.3454 193.029 96.6891 192.625 96.2844L192.483 96.4258C192.81 96.7525 192.81 97.2821 192.483 97.6087L192.625 97.7501ZM190.544 99.8307L192.625 97.7501L192.483 97.6087L190.403 99.6893L190.544 99.8307Z" fill="#D9E7F7"/>
    </g>
    <path fill-rule="evenodd" clip-rule="evenodd" d="M199.871 86.1711H202.219L198.11 90.4011L194.001 86.1711H196.349V82.5454H199.871V86.1711ZM202.219 92.8182H194V91.6096H202.219V92.8182Z" fill="white"/>
    <path d="M33.5605 64.192C32.9525 64.192 32.4032 64.1067 31.9125 63.936C31.4325 63.7547 31.0165 63.472 30.6645 63.088C30.3232 62.704 30.0565 62.2133 29.8645 61.616C29.6832 61.008 29.5925 60.272 29.5925 59.408V53.536H31.4485V59.552C31.4485 60.1173 31.4965 60.5973 31.5925 60.992C31.6992 61.376 31.8432 61.6853 32.0245 61.92C32.2165 62.1547 32.4405 62.3253 32.6965 62.432C32.9525 62.528 33.2405 62.576 33.5605 62.576C33.8805 62.576 34.1738 62.528 34.4405 62.432C34.7072 62.3253 34.9365 62.1547 35.1285 61.92C35.3205 61.6853 35.4698 61.376 35.5765 60.992C35.6832 60.5973 35.7365 60.1173 35.7365 59.552V53.536H37.5125V59.408C37.5125 60.272 37.4218 61.008 37.2405 61.616C37.0592 62.2133 36.7925 62.704 36.4405 63.088C36.0992 63.472 35.6832 63.7547 35.1925 63.936C34.7125 64.1067 34.1685 64.192 33.5605 64.192ZM39.9649 64V56.144H41.4849L41.6129 57.216H41.6769C42.0075 56.864 42.3649 56.5653 42.7489 56.32C43.1435 56.0747 43.5862 55.952 44.0769 55.952C44.6529 55.952 45.1115 56.0747 45.4529 56.32C45.8049 56.5653 46.0715 56.912 46.2529 57.36C46.6262 56.9547 47.0155 56.6187 47.4209 56.352C47.8262 56.0853 48.2795 55.952 48.7809 55.952C49.6129 55.952 50.2262 56.224 50.6209 56.768C51.0155 57.3013 51.2129 58.0693 51.2129 59.072V64H49.3569V59.312C49.3569 58.6613 49.2555 58.2027 49.0529 57.936C48.8609 57.6693 48.5622 57.536 48.1569 57.536C47.6662 57.536 47.1169 57.8613 46.5089 58.512V64H44.6689V59.312C44.6689 58.6613 44.5675 58.2027 44.3649 57.936C44.1729 57.6693 43.8689 57.536 43.4529 57.536C42.9622 57.536 42.4129 57.8613 41.8049 58.512V64H39.9649ZM53.4493 64V56.144H54.9693L55.0973 57.216H55.1613C55.4919 56.864 55.8493 56.5653 56.2333 56.32C56.6279 56.0747 57.0706 55.952 57.5613 55.952C58.1373 55.952 58.5959 56.0747 58.9373 56.32C59.2893 56.5653 59.5559 56.912 59.7373 57.36C60.1106 56.9547 60.4999 56.6187 60.9053 56.352C61.3106 56.0853 61.7639 55.952 62.2653 55.952C63.0973 55.952 63.7106 56.224 64.1053 56.768C64.4999 57.3013 64.6973 58.0693 64.6973 59.072V64H62.8413V59.312C62.8413 58.6613 62.7399 58.2027 62.5373 57.936C62.3453 57.6693 62.0466 57.536 61.6413 57.536C61.1506 57.536 60.6013 57.8613 59.9933 58.512V64H58.1533V59.312C58.1533 58.6613 58.0519 58.2027 57.8493 57.936C57.6573 57.6693 57.3533 57.536 56.9373 57.536C56.4466 57.536 55.8973 57.8613 55.2893 58.512V64H53.4493ZM67.4616 67.232C67.2483 67.232 67.0616 67.216 66.9016 67.184C66.7416 67.1627 66.587 67.1253 66.4376 67.072L66.7736 65.632C66.8483 65.6533 66.9336 65.6747 67.0296 65.696C67.1363 65.728 67.2376 65.744 67.3336 65.744C67.7496 65.744 68.0803 65.616 68.3256 65.36C68.5816 65.1147 68.7736 64.7947 68.9016 64.4L69.0456 63.904L65.9576 56.144H67.8296L69.1896 60C69.307 60.3413 69.419 60.704 69.5256 61.088C69.643 61.4613 69.7603 61.8347 69.8776 62.208H69.9416C70.0376 61.8453 70.1336 61.4773 70.2296 61.104C70.3363 60.72 70.4376 60.352 70.5336 60L71.7176 56.144H73.4936L70.6456 64.352C70.4856 64.8 70.3096 65.2 70.1176 65.552C69.9256 65.904 69.7016 66.2027 69.4456 66.448C69.2003 66.704 68.9123 66.896 68.5816 67.024C68.2616 67.1627 67.8883 67.232 67.4616 67.232ZM80.0906 64L76.8266 53.536H78.7946L80.2666 58.8C80.4373 59.3973 80.5866 59.9627 80.7146 60.496C80.8533 61.0293 81.0133 61.6 81.1946 62.208H81.2586C81.44 61.6 81.5946 61.0293 81.7226 60.496C81.8613 59.9627 82.0106 59.3973 82.1706 58.8L83.6266 53.536H85.5306L82.2826 64H80.0906ZM86.6368 64V56.144H88.4768V64H86.6368ZM87.5648 54.768C87.2341 54.768 86.9621 54.672 86.7488 54.48C86.5354 54.288 86.4288 54.0373 86.4288 53.728C86.4288 53.4187 86.5354 53.168 86.7488 52.976C86.9621 52.7733 87.2341 52.672 87.5648 52.672C87.8954 52.672 88.1674 52.7733 88.3808 52.976C88.5941 53.168 88.7008 53.4187 88.7008 53.728C88.7008 54.0373 88.5941 54.288 88.3808 54.48C88.1674 54.672 87.8954 54.768 87.5648 54.768ZM93.5763 64.192C92.5843 64.192 91.7949 63.8347 91.2083 63.12C90.6323 62.3947 90.3443 61.3813 90.3443 60.08C90.3443 59.44 90.4349 58.864 90.6163 58.352C90.8083 57.84 91.0589 57.408 91.3683 57.056C91.6776 56.704 92.0296 56.432 92.4243 56.24C92.8296 56.048 93.2456 55.952 93.6723 55.952C94.1203 55.952 94.4989 56.032 94.8083 56.192C95.1176 56.3413 95.4269 56.5493 95.7363 56.816L95.6723 55.552V52.704H97.5123V64H95.9923L95.8643 63.152H95.8003C95.5123 63.44 95.1763 63.6853 94.7923 63.888C94.4083 64.0907 94.0029 64.192 93.5763 64.192ZM94.0243 62.672C94.6109 62.672 95.1603 62.3787 95.6723 61.792V58.128C95.3949 57.8827 95.1229 57.712 94.8563 57.616C94.6003 57.52 94.3389 57.472 94.0723 57.472C93.5603 57.472 93.1283 57.696 92.7763 58.144C92.4243 58.592 92.2483 59.232 92.2483 60.064C92.2483 60.9173 92.3976 61.568 92.6963 62.016C93.0056 62.4533 93.4483 62.672 94.0243 62.672ZM103.216 64.192C102.672 64.192 102.165 64.1013 101.696 63.92C101.226 63.728 100.816 63.456 100.464 63.104C100.112 62.752 99.8342 62.3253 99.6315 61.824C99.4395 61.312 99.3435 60.7307 99.3435 60.08C99.3435 59.44 99.4448 58.864 99.6475 58.352C99.8502 57.84 100.117 57.408 100.448 57.056C100.789 56.704 101.178 56.432 101.616 56.24C102.053 56.048 102.501 55.952 102.96 55.952C103.493 55.952 103.962 56.0427 104.368 56.224C104.773 56.4053 105.109 56.6613 105.376 56.992C105.653 57.3227 105.861 57.7173 106 58.176C106.138 58.6347 106.208 59.136 106.208 59.68C106.208 59.8613 106.197 60.032 106.176 60.192C106.165 60.352 106.149 60.48 106.128 60.576H101.136C101.221 61.28 101.466 61.824 101.872 62.208C102.288 62.5813 102.816 62.768 103.456 62.768C103.797 62.768 104.112 62.72 104.4 62.624C104.698 62.5173 104.992 62.3733 105.28 62.192L105.904 63.344C105.53 63.5893 105.114 63.792 104.656 63.952C104.197 64.112 103.717 64.192 103.216 64.192ZM101.12 59.328H104.608C104.608 58.72 104.474 58.2453 104.208 57.904C103.952 57.552 103.552 57.376 103.008 57.376C102.538 57.376 102.128 57.5413 101.776 57.872C101.424 58.2027 101.205 58.688 101.12 59.328ZM111.181 64.192C110.69 64.192 110.221 64.1013 109.773 63.92C109.325 63.7387 108.925 63.472 108.573 63.12C108.232 62.768 107.96 62.336 107.757 61.824C107.554 61.312 107.453 60.7307 107.453 60.08C107.453 59.4293 107.554 58.848 107.757 58.336C107.96 57.824 108.232 57.392 108.573 57.04C108.925 56.688 109.325 56.4213 109.773 56.24C110.221 56.048 110.69 55.952 111.181 55.952C111.672 55.952 112.141 56.048 112.589 56.24C113.048 56.4213 113.448 56.688 113.789 57.04C114.13 57.392 114.402 57.824 114.605 58.336C114.818 58.848 114.925 59.4293 114.925 60.08C114.925 60.7307 114.818 61.312 114.605 61.824C114.402 62.336 114.13 62.768 113.789 63.12C113.448 63.472 113.048 63.7387 112.589 63.92C112.141 64.1013 111.672 64.192 111.181 64.192ZM111.181 62.688C111.757 62.688 112.21 62.4533 112.541 61.984C112.872 61.504 113.037 60.8693 113.037 60.08C113.037 59.28 112.872 58.6453 112.541 58.176C112.21 57.696 111.757 57.456 111.181 57.456C110.605 57.456 110.152 57.696 109.821 58.176C109.501 58.6453 109.341 59.28 109.341 60.08C109.341 60.8693 109.501 61.504 109.821 61.984C110.152 62.4533 110.605 62.688 111.181 62.688ZM120.109 64V53.536H122.909C124.509 53.536 125.757 53.968 126.653 54.832C127.549 55.696 127.997 56.992 127.997 58.72C127.997 59.584 127.88 60.3467 127.645 61.008C127.421 61.6693 127.091 62.224 126.653 62.672C126.227 63.1093 125.704 63.44 125.085 63.664C124.477 63.888 123.784 64 123.005 64H120.109ZM121.965 62.496H122.781C123.848 62.496 124.664 62.192 125.229 61.584C125.805 60.9653 126.093 60.0107 126.093 58.72C126.093 57.44 125.805 56.5067 125.229 55.92C124.653 55.3333 123.837 55.04 122.781 55.04H121.965V62.496ZM133.165 64.192C132.675 64.192 132.205 64.1013 131.757 63.92C131.309 63.7387 130.909 63.472 130.557 63.12C130.216 62.768 129.944 62.336 129.741 61.824C129.539 61.312 129.437 60.7307 129.437 60.08C129.437 59.4293 129.539 58.848 129.741 58.336C129.944 57.824 130.216 57.392 130.557 57.04C130.909 56.688 131.309 56.4213 131.757 56.24C132.205 56.048 132.675 55.952 133.165 55.952C133.656 55.952 134.125 56.048 134.573 56.24C135.032 56.4213 135.432 56.688 135.773 57.04C136.115 57.392 136.387 57.824 136.589 58.336C136.803 58.848 136.909 59.4293 136.909 60.08C136.909 60.7307 136.803 61.312 136.589 61.824C136.387 62.336 136.115 62.768 135.773 63.12C135.432 63.472 135.032 63.7387 134.573 63.92C134.125 64.1013 133.656 64.192 133.165 64.192ZM133.165 62.688C133.741 62.688 134.195 62.4533 134.525 61.984C134.856 61.504 135.021 60.8693 135.021 60.08C135.021 59.28 134.856 58.6453 134.525 58.176C134.195 57.696 133.741 57.456 133.165 57.456C132.589 57.456 132.136 57.696 131.805 58.176C131.485 58.6453 131.325 59.28 131.325 60.08C131.325 60.8693 131.485 61.504 131.805 61.984C132.136 62.4533 132.589 62.688 133.165 62.688ZM139.933 64L137.853 56.144H139.709L140.653 60.224C140.738 60.5973 140.807 60.9707 140.861 61.344C140.925 61.7173 140.994 62.096 141.069 62.48H141.133C141.207 62.096 141.282 61.7173 141.357 61.344C141.442 60.9707 141.533 60.5973 141.629 60.224L142.653 56.144H144.333L145.373 60.224C145.469 60.5973 145.559 60.9707 145.645 61.344C145.73 61.7173 145.815 62.096 145.901 62.48H145.965C146.039 62.096 146.109 61.7173 146.173 61.344C146.237 60.9707 146.306 60.5973 146.381 60.224L147.325 56.144H149.053L147.053 64H144.861L143.949 60.336C143.863 59.9627 143.783 59.5947 143.709 59.232C143.634 58.8587 143.554 58.464 143.469 58.048H143.405C143.33 58.464 143.255 58.8587 143.181 59.232C143.106 59.6053 143.026 59.9787 142.941 60.352L142.045 64H139.933ZM150.606 64V56.144H152.126L152.254 57.2H152.318C152.67 56.8587 153.048 56.5653 153.454 56.32C153.87 56.0747 154.35 55.952 154.894 55.952C155.736 55.952 156.35 56.224 156.734 56.768C157.118 57.3013 157.31 58.0693 157.31 59.072V64H155.47V59.312C155.47 58.6613 155.374 58.2027 155.182 57.936C154.99 57.6693 154.675 57.536 154.238 57.536C153.896 57.536 153.592 57.6213 153.326 57.792C153.07 57.952 152.776 58.192 152.446 58.512V64H150.606ZM161.351 64.192C160.689 64.192 160.225 63.9947 159.959 63.6C159.692 63.2053 159.559 62.6667 159.559 61.984V52.704H161.399V62.08C161.399 62.304 161.441 62.464 161.527 62.56C161.612 62.6453 161.703 62.688 161.799 62.688C161.841 62.688 161.879 62.688 161.911 62.688C161.953 62.688 162.012 62.6773 162.087 62.656L162.327 64.032C162.081 64.1387 161.756 64.192 161.351 64.192ZM167.118 64.192C166.628 64.192 166.158 64.1013 165.71 63.92C165.262 63.7387 164.862 63.472 164.51 63.12C164.169 62.768 163.897 62.336 163.694 61.824C163.492 61.312 163.39 60.7307 163.39 60.08C163.39 59.4293 163.492 58.848 163.694 58.336C163.897 57.824 164.169 57.392 164.51 57.04C164.862 56.688 165.262 56.4213 165.71 56.24C166.158 56.048 166.628 55.952 167.118 55.952C167.609 55.952 168.078 56.048 168.526 56.24C168.985 56.4213 169.385 56.688 169.726 57.04C170.068 57.392 170.34 57.824 170.542 58.336C170.756 58.848 170.862 59.4293 170.862 60.08C170.862 60.7307 170.756 61.312 170.542 61.824C170.34 62.336 170.068 62.768 169.726 63.12C169.385 63.472 168.985 63.7387 168.526 63.92C168.078 64.1013 167.609 64.192 167.118 64.192ZM167.118 62.688C167.694 62.688 168.148 62.4533 168.478 61.984C168.809 61.504 168.974 60.8693 168.974 60.08C168.974 59.28 168.809 58.6453 168.478 58.176C168.148 57.696 167.694 57.456 167.118 57.456C166.542 57.456 166.089 57.696 165.758 58.176C165.438 58.6453 165.278 59.28 165.278 60.08C165.278 60.8693 165.438 61.504 165.758 61.984C166.089 62.4533 166.542 62.688 167.118 62.688ZM174.4 64.192C173.707 64.192 173.147 63.984 172.72 63.568C172.293 63.1413 172.08 62.5813 172.08 61.888C172.08 61.472 172.165 61.104 172.336 60.784C172.517 60.4533 172.795 60.1707 173.168 59.936C173.552 59.7013 174.032 59.504 174.608 59.344C175.195 59.184 175.893 59.0613 176.704 58.976C176.693 58.7733 176.661 58.5813 176.608 58.4C176.565 58.208 176.485 58.0427 176.368 57.904C176.261 57.7547 176.117 57.6427 175.936 57.568C175.755 57.4827 175.531 57.44 175.264 57.44C174.88 57.44 174.501 57.5147 174.128 57.664C173.765 57.8133 173.408 57.9947 173.056 58.208L172.384 56.976C172.821 56.6987 173.312 56.4587 173.856 56.256C174.4 56.0533 174.987 55.952 175.616 55.952C176.597 55.952 177.328 56.2453 177.808 56.832C178.299 57.408 178.544 58.2453 178.544 59.344V64H177.024L176.896 63.136H176.832C176.48 63.4347 176.101 63.6853 175.696 63.888C175.301 64.0907 174.869 64.192 174.4 64.192ZM174.992 62.752C175.312 62.752 175.6 62.6773 175.856 62.528C176.123 62.3787 176.405 62.1653 176.704 61.888V60.128C176.171 60.192 175.723 60.2773 175.36 60.384C174.997 60.4907 174.704 60.6133 174.48 60.752C174.256 60.88 174.096 61.0293 174 61.2C173.904 61.3707 173.856 61.552 173.856 61.744C173.856 62.096 173.963 62.352 174.176 62.512C174.389 62.672 174.661 62.752 174.992 62.752ZM183.498 64.192C182.506 64.192 181.717 63.8347 181.13 63.12C180.554 62.3947 180.266 61.3813 180.266 60.08C180.266 59.44 180.357 58.864 180.538 58.352C180.73 57.84 180.981 57.408 181.29 57.056C181.599 56.704 181.951 56.432 182.346 56.24C182.751 56.048 183.167 55.952 183.594 55.952C184.042 55.952 184.421 56.032 184.73 56.192C185.039 56.3413 185.349 56.5493 185.658 56.816L185.594 55.552V52.704H187.434V64H185.914L185.786 63.152H185.722C185.434 63.44 185.098 63.6853 184.714 63.888C184.33 64.0907 183.925 64.192 183.498 64.192ZM183.946 62.672C184.533 62.672 185.082 62.3787 185.594 61.792V58.128C185.317 57.8827 185.045 57.712 184.778 57.616C184.522 57.52 184.261 57.472 183.994 57.472C183.482 57.472 183.05 57.696 182.698 58.144C182.346 58.592 182.17 59.232 182.17 60.064C182.17 60.9173 182.319 61.568 182.618 62.016C182.927 62.4533 183.37 62.672 183.946 62.672ZM193.137 64.192C192.593 64.192 192.087 64.1013 191.617 63.92C191.148 63.728 190.737 63.456 190.385 63.104C190.033 62.752 189.756 62.3253 189.553 61.824C189.361 61.312 189.265 60.7307 189.265 60.08C189.265 59.44 189.367 58.864 189.569 58.352C189.772 57.84 190.039 57.408 190.369 57.056C190.711 56.704 191.1 56.432 191.537 56.24C191.975 56.048 192.423 55.952 192.881 55.952C193.415 55.952 193.884 56.0427 194.289 56.224C194.695 56.4053 195.031 56.6613 195.297 56.992C195.575 57.3227 195.783 57.7173 195.921 58.176C196.06 58.6347 196.129 59.136 196.129 59.68C196.129 59.8613 196.119 60.032 196.097 60.192C196.087 60.352 196.071 60.48 196.049 60.576H191.057C191.143 61.28 191.388 61.824 191.793 62.208C192.209 62.5813 192.737 62.768 193.377 62.768C193.719 62.768 194.033 62.72 194.321 62.624C194.62 62.5173 194.913 62.3733 195.201 62.192L195.825 63.344C195.452 63.5893 195.036 63.792 194.577 63.952C194.119 64.112 193.639 64.192 193.137 64.192ZM191.041 59.328H194.529C194.529 58.72 194.396 58.2453 194.129 57.904C193.873 57.552 193.473 57.376 192.929 57.376C192.46 57.376 192.049 57.5413 191.697 57.872C191.345 58.2027 191.127 58.688 191.041 59.328ZM197.887 64V56.144H199.407L199.535 57.536H199.599C199.876 57.024 200.212 56.6347 200.607 56.368C201.001 56.0907 201.407 55.952 201.823 55.952C202.196 55.952 202.495 56.0053 202.719 56.112L202.399 57.712C202.26 57.6693 202.132 57.6373 202.015 57.616C201.897 57.5947 201.753 57.584 201.583 57.584C201.273 57.584 200.948 57.7067 200.607 57.952C200.265 58.1867 199.972 58.6027 199.727 59.2V64H197.887Z" fill="#D8DEE5"/>
    <rect opacity="0.2" x="121" y="11" width="95" height="8" rx="4" fill="#B8C3D2"/>
    <rect width="50" height="34" rx="2" transform="matrix(1 0 0 -1 14 182)" fill="#F1F3F6"/>
    <rect opacity="0.2" width="10" height="10" rx="2" transform="matrix(1 0 0 -1 14 20)" fill="#B8C3D2"/>
    <rect width="50" height="34" rx="2" transform="matrix(1 0 0 -1 90 182)" fill="#F1F3F6"/>
    <rect width="50" height="34" rx="2" transform="matrix(1 0 0 -1 166 182)" fill="#F1F3F6"/>
    <defs>
        <filter id="filter0_dd" x="141.901" y="55.8999" width="108.197" height="108.2" filterUnits="userSpaceOnUse" color-interpolation-filters="sRGB">
            <feFlood flood-opacity="0" result="BackgroundImageFix"/>
            <feColorMatrix in="SourceAlpha" type="matrix" values="0 0 0 0 0 0 0 0 0 0 0 0 0 0 0 0 0 0 127 0"/>
            <feOffset dx="5" dy="2"/>
            <feGaussianBlur stdDeviation="20"/>
            <feColorMatrix type="matrix" values="0 0 0 0 0 0 0 0 0 0.460526 0 0 0 0 1 0 0 0 0.66 0"/>
            <feBlend mode="normal" in2="BackgroundImageFix" result="effect1_dropShadow"/>
            <feColorMatrix in="SourceAlpha" type="matrix" values="0 0 0 0 0 0 0 0 0 0 0 0 0 0 0 0 0 0 127 0"/>
            <feOffset dx="5" dy="5"/>
            <feGaussianBlur stdDeviation="5"/>
            <feColorMatrix type="matrix" values="0 0 0 0 0.383333 0 0 0 0 0.360972 0 0 0 0 0.360972 0 0 0 0.08 0"/>
            <feBlend mode="normal" in2="effect1_dropShadow" result="effect2_dropShadow"/>
            <feBlend mode="normal" in="SourceGraphic" in2="effect2_dropShadow" result="shape"/>
        </filter>
    </defs>
</svg>
